<?xml version="1.0" encoding="UTF-8" standalone="no"?>
<!-- Created with Inkscape (http://www.inkscape.org/) -->

<svg
   xmlns:dc="http://purl.org/dc/elements/1.1/"
   xmlns:cc="http://creativecommons.org/ns#"
   xmlns:rdf="http://www.w3.org/1999/02/22-rdf-syntax-ns#"
   xmlns:svg="http://www.w3.org/2000/svg"
   xmlns="http://www.w3.org/2000/svg"
   xmlns:sodipodi="http://sodipodi.sourceforge.net/DTD/sodipodi-0.dtd"
   xmlns:inkscape="http://www.inkscape.org/namespaces/inkscape"
   width="744.09448819"
   height="1052.3622047"
   id="svg2"
   version="1.1"
   inkscape:version="0.47 r22583"
   sodipodi:docname="pidgeon.svg"
   inkscape:export-filename="U:\pics\pidgeon-without-envelope.png"
   inkscape:export-xdpi="38.686176"
   inkscape:export-ydpi="38.686176">
  <defs
     id="defs4">
    <inkscape:perspective
       sodipodi:type="inkscape:persp3d"
       inkscape:vp_x="0 : 526.18109 : 1"
       inkscape:vp_y="0 : 1000 : 0"
       inkscape:vp_z="744.09448 : 526.18109 : 1"
       inkscape:persp3d-origin="372.04724 : 350.78739 : 1"
       id="perspective10" />
    <inkscape:perspective
       id="perspective3626"
       inkscape:persp3d-origin="0.5 : 0.33333333 : 1"
       inkscape:vp_z="1 : 0.5 : 1"
       inkscape:vp_y="0 : 1000 : 0"
       inkscape:vp_x="0 : 0.5 : 1"
       sodipodi:type="inkscape:persp3d" />
    <inkscape:perspective
       id="perspective3664"
       inkscape:persp3d-origin="0.5 : 0.33333333 : 1"
       inkscape:vp_z="1 : 0.5 : 1"
       inkscape:vp_y="0 : 1000 : 0"
       inkscape:vp_x="0 : 0.5 : 1"
       sodipodi:type="inkscape:persp3d" />
    <inkscape:perspective
       id="perspective3686"
       inkscape:persp3d-origin="0.5 : 0.33333333 : 1"
       inkscape:vp_z="1 : 0.5 : 1"
       inkscape:vp_y="0 : 1000 : 0"
       inkscape:vp_x="0 : 0.5 : 1"
       sodipodi:type="inkscape:persp3d" />
    <inkscape:perspective
       id="perspective3657"
       inkscape:persp3d-origin="0.5 : 0.33333333 : 1"
       inkscape:vp_z="1 : 0.5 : 1"
       inkscape:vp_y="0 : 1000 : 0"
       inkscape:vp_x="0 : 0.5 : 1"
       sodipodi:type="inkscape:persp3d" />
    <inkscape:perspective
       id="perspective3681"
       inkscape:persp3d-origin="0.5 : 0.33333333 : 1"
       inkscape:vp_z="1 : 0.5 : 1"
       inkscape:vp_y="0 : 1000 : 0"
       inkscape:vp_x="0 : 0.5 : 1"
       sodipodi:type="inkscape:persp3d" />
  </defs>
  <sodipodi:namedview
     id="base"
     pagecolor="#ffffff"
     bordercolor="#666666"
     borderopacity="1.0"
     inkscape:pageopacity="0.0"
     inkscape:pageshadow="2"
     inkscape:zoom="0.98994949"
     inkscape:cx="409.74004"
     inkscape:cy="716.86435"
     inkscape:document-units="px"
     inkscape:current-layer="layer1"
     showgrid="false"
     inkscape:window-width="1079"
     inkscape:window-height="826"
     inkscape:window-x="44"
     inkscape:window-y="-3"
     inkscape:window-maximized="0"
     showguides="true"
     inkscape:guide-bbox="true" />
  <metadata
     id="metadata7">
    <rdf:RDF>
      <cc:Work
         rdf:about="">
        <dc:format>image/svg+xml</dc:format>
        <dc:type
           rdf:resource="http://purl.org/dc/dcmitype/StillImage" />
        <dc:title></dc:title>
      </cc:Work>
    </rdf:RDF>
  </metadata>
  <g
     inkscape:label="Layer 1"
     inkscape:groupmode="layer"
     id="layer1">
    <path
       style="fill:#b3b3b3;fill-opacity:1;stroke:none"
       d="m 187.24281,460.65457 c -9.17261,-1.75987 -21.46372,-4.58141 -36.30471,-3.57126 -118.629205,8.07451 51.88881,47.58838 61.49984,19.37649 4.02332,-11.80994 -17.08203,-17.00311 -25.19513,-15.80523 z"
       id="path3713"
       sodipodi:nodetypes="cssc"
       inkscape:export-filename="U:\pics\squobit-1stattempt.png"
       inkscape:export-xdpi="38.686176"
       inkscape:export-ydpi="38.686176" />
    <path
       style="fill:#ff5555;stroke:none"
       d="m 350.8095,551.37753 c 12.62169,27.29164 -22.00917,18.34664 -27.31517,21.53067 -8.90563,5.34409 24.57942,2.48302 30.04669,4.14051 20.13099,6.10303 49.46543,15.70628 46.89104,8.28102 -0.8957,-2.58345 -30.91126,-6.29389 -31.41245,-9.93722 -1.02786,-7.47192 48.88026,2.37623 45.07004,-4.55457 -5.9275,-10.78208 -38.25967,4.95186 -46.43579,-2.48431 -1.85362,-1.68586 18.6451,-2.91679 16.3891,-4.96861 -6.62866,-6.02876 -17.87369,4.44648 -21.85213,-0.41406 -1.21315,-1.48213 -5.93081,-26.45376 -11.38133,-11.59343 z"
       id="path3671-2"
       sodipodi:nodetypes="cssssssssc"
       inkscape:export-filename="U:\pics\squobit-1stattempt.png"
       inkscape:export-xdpi="38.686176"
       inkscape:export-ydpi="38.686176" />
    <path
       style="fill:#999999;stroke:none"
       d="m 294.78811,532.43314 c 34.3452,28.28428 46.467,33.33504 52.5279,28.28428 6.0609,-5.05077 25.2538,-8.08122 25.2538,-8.08122 0,0 6.061,-17.1726 -2.0203,-22.22336 -8.0812,-5.05076 -72.731,0 -75.7614,2.0203 z"
       id="path3645-5"
       inkscape:export-filename="U:\pics\squobit-1stattempt.png"
       inkscape:export-xdpi="38.686176"
       inkscape:export-ydpi="38.686176" />
    <path
       style="fill:#666666;stroke:none"
       d="m 453.7154,487.25661 c 9.9386,-11.77346 17.98677,-51.92596 14.64721,-59.09392 -6.92748,9.64988 -48.48568,75.29316 -70.20561,88.38835 13.60388,2.01105 46.76421,-20.93584 55.5584,-29.29443 z"
       id="path3628"
       sodipodi:nodetypes="cccc"
       inkscape:export-filename="U:\pics\squobit-1stattempt.png"
       inkscape:export-xdpi="38.686176"
       inkscape:export-ydpi="38.686176" />
    <path
       style="fill:#b3b3b3;stroke:none"
       d="m 502.32668,266.22948 c -6.78571,11.07143 -21.77161,76.9307 -20.93612,96.87038 0.75939,18.12345 2.5451,28.4806 0.22183,44.5582 -5.4568,37.76241 -12.16824,50.66351 -50.73966,89.23494 -16.28823,16.28823 -32.80607,24.82078 -48.81653,32.22952 -13.49193,6.24331 -51.04606,22.22952 -95.33177,17.9438 C 242.43872,542.78061 181.6007,535.89225 168.153,534.20918 82.427465,523.48003 76.777195,501.67479 76.985835,501.47613 c 8.7351,-8.31743 52.060925,-16.84853 79.320175,-26.35832 16.40943,-5.72467 39.31233,-10.56759 29.16317,-16.13271 -9.78326,-5.36448 -49.40256,-13.18797 -35.88761,-16.20449 28.67893,-6.4011 31.21611,-7.92368 36.78572,-10 21.86765,-8.15216 19.73594,-9.76938 38.43982,-19.55148 20.21567,-10.57277 15.1322,-11.9728 25.48875,-16.51995 32.76345,-14.38513 67.79808,-57.02432 107.85714,-79.64285 29.13343,-16.4496 50.89662,-39.89302 58.2248,-50.83684 3.85578,-5.75818 14.14781,-18.6034 16.06092,-32.02031 2.26541,-15.8876 12.10391,-31.75626 31.42857,-34.28571 18.662,-2.44271 33.57143,-1.18347 42.85714,8.57142 8.47297,8.90108 6.21892,17.1556 5.71429,27.14286 -1.13271,22.41769 -2.2654,18.09174 -10.11204,30.59173 z"
       id="path3632"
       sodipodi:nodetypes="csssssssssssssssssssc"
       inkscape:export-filename="U:\pics\squobit-1stattempt.png"
       inkscape:export-xdpi="38.686176"
       inkscape:export-ydpi="38.686176" />
    <path
       style="fill:#6c5353;stroke:none"
       d="m 505.4906,261.92841 c 1.77304,29.90799 -22.51484,83.41252 -22.85634,85.69993 -3.93285,26.34305 -70.32113,-59.83737 -119.44498,-32.84278 25.562,-16.4496 37.8513,-30.4445 52.43437,-47.09209 4.5663,-5.21275 9.898,-13.66468 15.34664,-32.7346 4.40888,-15.43081 12.72025,-31.13519 31.78571,-35.17857 17.412,-3.69271 36.24475,-0.79569 45.53046,8.9592 8.47297,8.90108 4.97417,18.01782 4.46954,28.00508 -1.13271,22.41769 0.58124,12.68384 -7.2654,25.18383 z"
       id="path3632-1-7"
       sodipodi:nodetypes="cscsssssc"
       inkscape:export-filename="U:\pics\squobit-1stattempt.png"
       inkscape:export-xdpi="38.686176"
       inkscape:export-ydpi="38.686176" />
    <g
       id="g3700"
       transform="matrix(1.1778885,0,0,1.1780485,1125.3518,-434.73452)"
       style="stroke:none"
       inkscape:export-filename="U:\pics\squobit-1stattempt.png"
       inkscape:export-xdpi="38.686176"
       inkscape:export-ydpi="38.686176">
      <path
         d="m -546.42856,568.07648 c 0,4.93111 -4.63705,8.92857 -10.35715,8.92857 -5.72009,0 -10.35714,-3.99746 -10.35714,-8.92857 0,-4.93112 4.63705,-8.92857 10.35714,-8.92857 5.7201,0 10.35715,3.99745 10.35715,8.92857 z"
         sodipodi:ry="8.9285717"
         sodipodi:rx="10.357142"
         sodipodi:cy="568.07648"
         sodipodi:cx="-556.78571"
         id="path3640"
         style="fill:#ffffff;fill-rule:evenodd;stroke:none"
         sodipodi:type="arc" />
      <path
         transform="matrix(1.1454381,0,0,1.1084478,79.563944,-62.405908)"
         d="m -547.50001,569.68359 c 0,2.86005 -2.27855,5.17857 -5.08928,5.17857 -2.81074,0 -5.08929,-2.31852 -5.08929,-5.17857 0,-2.86004 2.27855,-5.17857 5.08929,-5.17857 2.81073,0 5.08928,2.31853 5.08928,5.17857 z"
         sodipodi:ry="5.1785712"
         sodipodi:rx="5.0892859"
         sodipodi:cy="569.68359"
         sodipodi:cx="-552.58929"
         id="path3644"
         style="fill:#000000;fill-rule:evenodd;stroke:none"
         sodipodi:type="arc" />
      <path
         d="m -551.9643,566.38007 c 0,2.41624 -2.27855,4.375 -5.08929,4.375 -2.81073,0 -5.08928,-1.95876 -5.08928,-4.375 0,-2.41625 2.27855,-4.375 5.08928,-4.375 2.81074,0 5.08929,1.95875 5.08929,4.375 z"
         sodipodi:ry="4.375"
         sodipodi:rx="5.0892859"
         sodipodi:cy="566.38007"
         sodipodi:cx="-557.05359"
         id="path3648"
         style="fill:#ffffff;fill-rule:evenodd;stroke:none"
         sodipodi:type="arc" />
    </g>
    <g
       id="g3708"
       transform="matrix(1.4742146,0,0,1.1813094,1268.6706,-439.12233)"
       style="stroke:none"
       inkscape:export-filename="U:\pics\squobit-1stattempt.png"
       inkscape:export-xdpi="38.686176"
       inkscape:export-ydpi="38.686176">
      <path
         transform="translate(0.35714323,4.7832009e-7)"
         d="m -511.07141,569.86218 c 0,4.33938 -1.67893,7.85715 -3.75,7.85715 -2.07107,0 -3.75,-3.51777 -3.75,-7.85715 0,-4.33938 1.67893,-7.85714 3.75,-7.85714 2.07107,0 3.75,3.51776 3.75,7.85714 z"
         sodipodi:ry="7.8571429"
         sodipodi:rx="3.75"
         sodipodi:cy="569.86218"
         sodipodi:cx="-514.82141"
         id="path3642"
         style="fill:#ffffff;fill-rule:evenodd;stroke:none"
         sodipodi:type="arc" />
      <path
         transform="matrix(0.9871954,0,0,1.1320904,-7.126651,-74.082264)"
         d="m -512.49997,570.30859 c 0,2.12038 -0.99937,3.83929 -2.23215,3.83929 -1.23278,0 -2.23214,-1.71891 -2.23214,-3.83929 0,-2.12038 0.99936,-3.83928 2.23214,-3.83928 1.23278,0 2.23215,1.7189 2.23215,3.83928 z"
         sodipodi:ry="3.8392856"
         sodipodi:rx="2.2321429"
         sodipodi:cy="570.30859"
         sodipodi:cx="-514.73212"
         id="path3646"
         style="fill:#000000;fill-rule:evenodd;stroke:none"
         sodipodi:type="arc" />
      <g
         transform="translate(0.7142858,1.7857141)"
         id="g3705"
         style="stroke:none">
        <path
           sodipodi:type="arc"
           style="fill:#ffffff;fill-opacity:1;fill-rule:evenodd;stroke:none"
           id="path3652"
           sodipodi:cx="-514.46429"
           sodipodi:cy="568.3443"
           sodipodi:rx="1.7857143"
           sodipodi:ry="3.3035715"
           d="m -512.67858,568.3443 c 0,1.82451 -0.79949,3.30357 -1.78571,3.30357 -0.98623,0 -1.78572,-1.47906 -1.78572,-3.30357 0,-1.82451 0.79949,-3.30357 1.78572,-3.30357 0.98622,0 1.78571,1.47906 1.78571,3.30357 z" />
      </g>
    </g>
    <path
       style="fill:#aa4400;stroke:none"
       d="m 504.60184,259.97229 c -4.65011,3.82129 -22.98098,0.17367 -22.98098,-5.17703 0,-0.4209 -0.50273,-0.3145 -0.12626,-0.12627 1.3196,0.6598 3.27107,0.68919 4.79822,1.13643 3.88052,1.13642 9.67649,0.35568 12.62691,1.01015 1.89509,0.42037 4.49302,1.83717 5.68211,3.15672 z"
       id="path2846"
       sodipodi:nodetypes="cssssc"
       inkscape:export-filename="U:\pics\squobit-1stattempt.png"
       inkscape:export-xdpi="38.686176"
       inkscape:export-ydpi="38.686176" />
    <path
       style="fill:#ffffff;stroke:none"
       d="m 507.12722,241.03194 c -1.32046,-7.37066 -16.24023,-7.77513 -19.82425,-4.41943 -0.64108,0.60025 -3.49781,2.55736 -2.27284,3.15673 2.17316,1.06334 9.08454,-1.32499 12.2481,-1.38895 3.92857,-0.0794 7.62734,1.96564 9.97526,2.77791"
       id="path3624"
       sodipodi:nodetypes="csssc"
       inkscape:export-filename="U:\pics\squobit-1stattempt.png"
       inkscape:export-xdpi="38.686176"
       inkscape:export-ydpi="38.686176" />
    <path
       style="fill:#999999;stroke:none"
       d="m 404.47046,470.5891 c -41.41625,15.15229 -85.86296,37.37564 -96.97464,35.35534 -11.11168,-2.02031 -31.31473,-10.10153 -31.31473,-10.10153 28.43492,24.42355 117.81854,21.53081 128.28937,-25.25381 z"
       id="path3643"
       sodipodi:nodetypes="cscc"
       inkscape:export-filename="U:\pics\squobit-1stattempt.png"
       inkscape:export-xdpi="38.686176"
       inkscape:export-ydpi="38.686176" />
    <path
       style="fill:#ececec;stroke:none"
       d="m 254.46281,540.28962 c 26.26396,24.74875 36.36699,29.63016 44.95179,28.28428 8.99552,-1.41027 25.25381,-8.08122 25.25381,-8.08122 0,0 6.06092,-17.1726 -2.0203,-22.22336 -8.08122,-5.05076 -61.61931,-2.52538 -68.1853,2.0203 z"
       id="path3645"
       sodipodi:nodetypes="cscsc"
       inkscape:export-filename="U:\pics\squobit-1stattempt.png"
       inkscape:export-xdpi="38.686176"
       inkscape:export-ydpi="38.686176" />
    <path
       style="fill:#ff8080;stroke:none"
       d="m 296.38414,567.56375 c 14.00302,33.29143 -24.41789,22.37996 -30.30458,26.26396 -9.88028,6.51894 27.26942,3.02889 33.33504,5.05076 22.33415,7.44472 54.87899,19.15915 52.02286,10.10152 -0.99373,-3.15139 -34.29423,-7.67753 -34.85027,-12.12182 -1.14036,-9.11454 54.22978,2.89862 50.00256,-5.55584 -6.57621,-13.15241 -42.44686,6.04047 -51.51778,-3.03046 -2.05649,-2.05648 20.68564,-3.55802 18.18274,-6.06091 -7.35411,-7.35412 -19.82981,5.424 -24.24366,-0.50508 -1.34592,-1.80796 -6.57988,-32.26935 -12.62691,-14.14213 z"
       id="path3671"
       sodipodi:nodetypes="cssssssssc"
       inkscape:export-filename="U:\pics\squobit-1stattempt.png"
       inkscape:export-xdpi="38.686176"
       inkscape:export-ydpi="38.686176" />
    <path
       style="fill:#483737;stroke:none"
       d="m 505.35714,260.3979 c -6.18612,1.04967 -11.41345,2.15043 -15.71429,0 -2.04237,-0.3676 -6.14057,-1.93087 -7.32143,-3.57143 0,3.8055 6.87847,9.02134 9.28571,11.42858 5.1456,3.48515 8.0805,7.63238 8.75001,13.03571 2.24235,0.0209 2.57548,-1.3153 3.92857,-5.17858 0.96303,-9.70268 1.74676,-9.8267 1.07143,-15.71428 z"
       id="path3695"
       sodipodi:nodetypes="ccccccc"
       inkscape:export-filename="U:\pics\squobit-1stattempt.png"
       inkscape:export-xdpi="38.686176"
       inkscape:export-ydpi="38.686176" />
    <path
       style="fill:#c8b7b7;stroke:none"
       d="m 366.24999,313.07647 c 41.47497,-12.45687 70.79994,15.72562 102.67857,36.78572 1.48254,0.74126 6.16561,4.01297 9.82144,2.32142 0.18773,-0.0869 1.66593,1.06642 3.21428,-2.14285 -0.5224,3.74742 -0.099,9.00311 -0.53571,12.85714 -1.46366,3.5399 -9.39788,0.61738 -17.85714,-1.42857 -17.86916,-5.12622 -31.86954,-21.36989 -46.96429,-31.07142 -15.04734,-6.70109 -33.75122,-16.55435 -50.35715,-17.32144 z"
       id="path3699"
       sodipodi:nodetypes="ccsccccc"
       inkscape:export-filename="U:\pics\squobit-1stattempt.png"
       inkscape:export-xdpi="38.686176"
       inkscape:export-ydpi="38.686176" />
    <path
       style="fill:#6c5353;stroke:none"
       d="m 288.30292,497.86322 c -38.45455,13.73 -79.24879,19.38319 -122.22846,12.12183 -5.25851,-0.88842 -37.74356,-6.97169 -34.34518,-13.13199 10.78756,-19.55479 135.68848,-8.30859 156.57364,1.01016 z"
       id="path3701"
       sodipodi:nodetypes="cssc"
       inkscape:export-filename="U:\pics\squobit-1stattempt.png"
       inkscape:export-xdpi="38.686176"
       inkscape:export-ydpi="38.686176" />
    <path
       style="fill:#483737;stroke:none"
       d="m 279.24981,497.18887 c -96.42857,-1.42857 -105.67839,2.31617 -132.82124,-7.68383 -27.14286,-10 -18.57143,-11.42857 -0.71429,-15.71428 17.85714,-4.28572 35,-5.71429 35,-5.71429 0,0 -19.7339,-1.59657 -18.57142,-8.57143 0.71428,-4.28571 15.84384,-11.25232 24.58157,-12.56127 7.56128,-1.1327 -16.32962,-8.68672 -14.29315,-10.93093 2.40283,-2.64794 46.47191,-18.31889 46.47191,-18.31889 0,0 -5.57687,1.14013 -8.18891,16.81109 -2.71125,16.26617 2.85521,24.68541 12.68382,35.29587 9.61748,10.38253 52.99457,25.95939 55.85171,27.38796 z"
       id="path2842"
       sodipodi:nodetypes="csscssscssc"
       inkscape:export-filename="U:\pics\squobit-1stattempt.png"
       inkscape:export-xdpi="38.686176"
       inkscape:export-ydpi="38.686176" />
    <path
       style="fill:#cccccc;stroke:none"
       d="m 399.28571,477.36219 c -34.30427,33.0951 -101.71852,34.8885 -142.26541,15.46918 -35.29603,-13.98657 -62.27507,-32.97896 -48.62963,-71.86187 47.59395,-38.49653 85.32885,-65.49013 143.0379,-60.03588 48.34304,1.68344 76.77435,79.50025 47.85714,116.42857 z"
       id="path2838"
       sodipodi:nodetypes="ccccc"
       inkscape:export-xdpi="38.686176"
       inkscape:export-ydpi="38.686176"
       inkscape:export-filename="U:\pics\squobit-1stattempt.png" />
    <path
       style="fill:#ff7f2a;stroke:none"
       d="m 490.71224,237.49639 c 10.4661,-1.66104 13.11548,0.51762 20.07678,6.81854 1.9205,3.37354 2.39805,6.36369 2.90419,10.10153 0.50508,5.05076 0.3788,8.33375 -2.90419,8.83883 -5.13961,0.79072 -3.53553,-3.53554 -9.59645,-5.80838 -4.82283,-1.80856 -7.07107,-0.25254 -12.87944,-1.01015 -5.80838,-0.75762 -7.57615,-1.26269 -8.83884,-4.54569 -4.06518,-8.25199 4.07395,-12.00085 11.23795,-14.39468 z"
       id="path2844"
       sodipodi:nodetypes="cccssscc"
       inkscape:export-filename="U:\pics\squobit-1stattempt.png"
       inkscape:export-xdpi="38.686176"
       inkscape:export-ydpi="38.686176" />
    <path
       style="fill:#aa4400;stroke:none"
       d="m 491.09105,243.68358 c -1.36454,-0.0627 -1.62445,0.67536 -1.89405,1.2627 -1.28561,2.80084 6.43973,5.01047 6.43973,4.0406 0,-0.75424 -3.22591,-2.34202 -3.6618,-2.77791 -0.16381,-0.16381 3.30722,-1.68717 -0.88388,-2.52539 z"
       id="path2850"
       sodipodi:nodetypes="csssc"
       inkscape:export-filename="U:\pics\squobit-1stattempt.png"
       inkscape:export-xdpi="38.686176"
       inkscape:export-ydpi="38.686176" />
    <path
       style="fill:#ffccaa;stroke:none"
       d="m 502.67856,239.32647 c 3.75,1.96428 6.07144,5 7.32144,9.10714 1.15092,3.78159 1.60714,10.17858 1.60714,10.17858 -2.65548,-5.21926 -5.20154,-10.92748 -10.53572,-13.75 -5.07596,-2.53797 -7.14285,-5 -7.14285,-5 0,0 3.03571,-1.96429 8.74999,-0.53572 z"
       id="path3697"
       sodipodi:nodetypes="cscccc"
       inkscape:export-filename="U:\pics\squobit-1stattempt.png"
       inkscape:export-xdpi="38.686176"
       inkscape:export-ydpi="38.686176" />
  </g>
</svg>
