<?xml version="1.0" encoding="utf-8" standalone="no"?>
<!DOCTYPE svg PUBLIC "-//W3C//DTD SVG 1.1//EN"
  "http://www.w3.org/Graphics/SVG/1.1/DTD/svg11.dtd">
<!-- Created with matplotlib (http://matplotlib.org/) -->
<svg height="345pt" version="1.1" viewBox="0 0 460 345" width="460pt" xmlns="http://www.w3.org/2000/svg" xmlns:xlink="http://www.w3.org/1999/xlink">
 <defs>
  <style type="text/css">
*{stroke-linecap:butt;stroke-linejoin:round;}
  </style>
 </defs>
 <g id="figure_1">
  <g id="patch_1">
   <path d="M 0 345.6 
L 460.8 345.6 
L 460.8 0 
L 0 0 
z
" style="fill:#474e5d;"/>
  </g>
  <g id="axes_1">
   <g id="patch_2">
    <path d="M 36.864 321.408 
L 437.76 321.408 
L 437.76 41.472 
L 36.864 41.472 
z
" style="fill:#474e5d;"/>
   </g>
   <g id="matplotlib.axis_1">
    <g id="xtick_1">
     <g id="line2d_1">
      <path clip-path="url(#p7d59b811e5)" d="M 42.938182 321.408 
L 42.938182 41.472 
" style="fill:none;stroke:#cbcbcb;"/>
     </g>
     <g id="line2d_2"/>
     <g id="text_1">
      <!--  -->
      <g style="fill:#ffffff;" transform="translate(42.938182 330.98675)scale(0.08 -0.08)"/>
      <!-- 10 -->
      <defs>
       <path d="M 12.40625 8.296875 
L 28.515625 8.296875 
L 28.515625 63.921875 
L 10.984375 60.40625 
L 10.984375 69.390625 
L 28.421875 72.90625 
L 38.28125 72.90625 
L 38.28125 8.296875 
L 54.390625 8.296875 
L 54.390625 0 
L 12.40625 0 
z
" id="DejaVuSans-31"/>
       <path d="M 31.78125 66.40625 
Q 24.171875 66.40625 20.328125 58.90625 
Q 16.5 51.421875 16.5 36.375 
Q 16.5 21.390625 20.328125 13.890625 
Q 24.171875 6.390625 31.78125 6.390625 
Q 39.453125 6.390625 43.28125 13.890625 
Q 47.125 21.390625 47.125 36.375 
Q 47.125 51.421875 43.28125 58.90625 
Q 39.453125 66.40625 31.78125 66.40625 
z
M 31.78125 74.21875 
Q 44.046875 74.21875 50.515625 64.515625 
Q 56.984375 54.828125 56.984375 36.375 
Q 56.984375 17.96875 50.515625 8.265625 
Q 44.046875 -1.421875 31.78125 -1.421875 
Q 19.53125 -1.421875 13.0625 8.265625 
Q 6.59375 17.96875 6.59375 36.375 
Q 6.59375 54.828125 13.0625 64.515625 
Q 19.53125 74.21875 31.78125 74.21875 
z
" id="DejaVuSans-30"/>
      </defs>
      <g style="fill:#ffffff;" transform="translate(37.848182 339.945)scale(0.08 -0.08)">
       <use xlink:href="#DejaVuSans-31"/>
       <use x="63.623047" xlink:href="#DejaVuSans-30"/>
      </g>
     </g>
    </g>
    <g id="xtick_2">
     <g id="line2d_3">
      <path clip-path="url(#p7d59b811e5)" d="M 231.237818 321.408 
L 231.237818 41.472 
" style="fill:none;stroke:#cbcbcb;"/>
     </g>
     <g id="line2d_4"/>
     <g id="text_2">
      <!--  -->
      <g style="fill:#ffffff;" transform="translate(231.237818 330.98675)scale(0.08 -0.08)"/>
      <!-- 11 -->
      <g style="fill:#ffffff;" transform="translate(226.147818 339.945)scale(0.08 -0.08)">
       <use xlink:href="#DejaVuSans-31"/>
       <use x="63.623047" xlink:href="#DejaVuSans-31"/>
      </g>
     </g>
    </g>
    <g id="xtick_3">
     <g id="line2d_5">
      <path clip-path="url(#p7d59b811e5)" d="M 413.463273 321.408 
L 413.463273 41.472 
" style="fill:none;stroke:#cbcbcb;"/>
     </g>
     <g id="line2d_6"/>
     <g id="text_3">
      <!--  -->
      <g style="fill:#ffffff;" transform="translate(413.463273 330.98675)scale(0.08 -0.08)"/>
      <!-- 12 -->
      <defs>
       <path d="M 19.1875 8.296875 
L 53.609375 8.296875 
L 53.609375 0 
L 7.328125 0 
L 7.328125 8.296875 
Q 12.9375 14.109375 22.625 23.890625 
Q 32.328125 33.6875 34.8125 36.53125 
Q 39.546875 41.84375 41.421875 45.53125 
Q 43.3125 49.21875 43.3125 52.78125 
Q 43.3125 58.59375 39.234375 62.25 
Q 35.15625 65.921875 28.609375 65.921875 
Q 23.96875 65.921875 18.8125 64.3125 
Q 13.671875 62.703125 7.8125 59.421875 
L 7.8125 69.390625 
Q 13.765625 71.78125 18.9375 73 
Q 24.125 74.21875 28.421875 74.21875 
Q 39.75 74.21875 46.484375 68.546875 
Q 53.21875 62.890625 53.21875 53.421875 
Q 53.21875 48.921875 51.53125 44.890625 
Q 49.859375 40.875 45.40625 35.40625 
Q 44.1875 33.984375 37.640625 27.21875 
Q 31.109375 20.453125 19.1875 8.296875 
z
" id="DejaVuSans-32"/>
      </defs>
      <g style="fill:#ffffff;" transform="translate(408.373273 339.945)scale(0.08 -0.08)">
       <use xlink:href="#DejaVuSans-31"/>
       <use x="63.623047" xlink:href="#DejaVuSans-32"/>
      </g>
     </g>
    </g>
    <g id="xtick_4">
     <g id="line2d_7"/>
     <g id="text_4">
      <!-- 01 -->
      <g style="fill:#ffffff;" transform="translate(37.848182 330.88675)scale(0.08 -0.08)">
       <use xlink:href="#DejaVuSans-30"/>
       <use x="63.623047" xlink:href="#DejaVuSans-31"/>
      </g>
     </g>
    </g>
    <g id="xtick_5">
     <g id="line2d_8"/>
     <g id="text_5">
      <!-- 08 -->
      <defs>
       <path d="M 31.78125 34.625 
Q 24.75 34.625 20.71875 30.859375 
Q 16.703125 27.09375 16.703125 20.515625 
Q 16.703125 13.921875 20.71875 10.15625 
Q 24.75 6.390625 31.78125 6.390625 
Q 38.8125 6.390625 42.859375 10.171875 
Q 46.921875 13.96875 46.921875 20.515625 
Q 46.921875 27.09375 42.890625 30.859375 
Q 38.875 34.625 31.78125 34.625 
z
M 21.921875 38.8125 
Q 15.578125 40.375 12.03125 44.71875 
Q 8.5 49.078125 8.5 55.328125 
Q 8.5 64.0625 14.71875 69.140625 
Q 20.953125 74.21875 31.78125 74.21875 
Q 42.671875 74.21875 48.875 69.140625 
Q 55.078125 64.0625 55.078125 55.328125 
Q 55.078125 49.078125 51.53125 44.71875 
Q 48 40.375 41.703125 38.8125 
Q 48.828125 37.15625 52.796875 32.3125 
Q 56.78125 27.484375 56.78125 20.515625 
Q 56.78125 9.90625 50.3125 4.234375 
Q 43.84375 -1.421875 31.78125 -1.421875 
Q 19.734375 -1.421875 13.25 4.234375 
Q 6.78125 9.90625 6.78125 20.515625 
Q 6.78125 27.484375 10.78125 32.3125 
Q 14.796875 37.15625 21.921875 38.8125 
z
M 18.3125 54.390625 
Q 18.3125 48.734375 21.84375 45.5625 
Q 25.390625 42.390625 31.78125 42.390625 
Q 38.140625 42.390625 41.71875 45.5625 
Q 45.3125 48.734375 45.3125 54.390625 
Q 45.3125 60.0625 41.71875 63.234375 
Q 38.140625 66.40625 31.78125 66.40625 
Q 25.390625 66.40625 21.84375 63.234375 
Q 18.3125 60.0625 18.3125 54.390625 
z
" id="DejaVuSans-38"/>
      </defs>
      <g style="fill:#ffffff;" transform="translate(80.367455 330.88675)scale(0.08 -0.08)">
       <use xlink:href="#DejaVuSans-30"/>
       <use x="63.623047" xlink:href="#DejaVuSans-38"/>
      </g>
     </g>
    </g>
    <g id="xtick_6">
     <g id="line2d_9"/>
     <g id="text_6">
      <!-- 15 -->
      <defs>
       <path d="M 10.796875 72.90625 
L 49.515625 72.90625 
L 49.515625 64.59375 
L 19.828125 64.59375 
L 19.828125 46.734375 
Q 21.96875 47.46875 24.109375 47.828125 
Q 26.265625 48.1875 28.421875 48.1875 
Q 40.625 48.1875 47.75 41.5 
Q 54.890625 34.8125 54.890625 23.390625 
Q 54.890625 11.625 47.5625 5.09375 
Q 40.234375 -1.421875 26.90625 -1.421875 
Q 22.3125 -1.421875 17.546875 -0.640625 
Q 12.796875 0.140625 7.71875 1.703125 
L 7.71875 11.625 
Q 12.109375 9.234375 16.796875 8.0625 
Q 21.484375 6.890625 26.703125 6.890625 
Q 35.15625 6.890625 40.078125 11.328125 
Q 45.015625 15.765625 45.015625 23.390625 
Q 45.015625 31 40.078125 35.4375 
Q 35.15625 39.890625 26.703125 39.890625 
Q 22.75 39.890625 18.8125 39.015625 
Q 14.890625 38.140625 10.796875 36.28125 
z
" id="DejaVuSans-35"/>
      </defs>
      <g style="fill:#ffffff;" transform="translate(122.886727 330.88675)scale(0.08 -0.08)">
       <use xlink:href="#DejaVuSans-31"/>
       <use x="63.623047" xlink:href="#DejaVuSans-35"/>
      </g>
     </g>
    </g>
    <g id="xtick_7">
     <g id="line2d_10"/>
     <g id="text_7">
      <!-- 22 -->
      <g style="fill:#ffffff;" transform="translate(165.406 330.88675)scale(0.08 -0.08)">
       <use xlink:href="#DejaVuSans-32"/>
       <use x="63.623047" xlink:href="#DejaVuSans-32"/>
      </g>
     </g>
    </g>
    <g id="xtick_8">
     <g id="line2d_11"/>
     <g id="text_8">
      <!-- 29 -->
      <defs>
       <path d="M 10.984375 1.515625 
L 10.984375 10.5 
Q 14.703125 8.734375 18.5 7.8125 
Q 22.3125 6.890625 25.984375 6.890625 
Q 35.75 6.890625 40.890625 13.453125 
Q 46.046875 20.015625 46.78125 33.40625 
Q 43.953125 29.203125 39.59375 26.953125 
Q 35.25 24.703125 29.984375 24.703125 
Q 19.046875 24.703125 12.671875 31.3125 
Q 6.296875 37.9375 6.296875 49.421875 
Q 6.296875 60.640625 12.9375 67.421875 
Q 19.578125 74.21875 30.609375 74.21875 
Q 43.265625 74.21875 49.921875 64.515625 
Q 56.59375 54.828125 56.59375 36.375 
Q 56.59375 19.140625 48.40625 8.859375 
Q 40.234375 -1.421875 26.421875 -1.421875 
Q 22.703125 -1.421875 18.890625 -0.6875 
Q 15.09375 0.046875 10.984375 1.515625 
z
M 30.609375 32.421875 
Q 37.25 32.421875 41.125 36.953125 
Q 45.015625 41.5 45.015625 49.421875 
Q 45.015625 57.28125 41.125 61.84375 
Q 37.25 66.40625 30.609375 66.40625 
Q 23.96875 66.40625 20.09375 61.84375 
Q 16.21875 57.28125 16.21875 49.421875 
Q 16.21875 41.5 20.09375 36.953125 
Q 23.96875 32.421875 30.609375 32.421875 
z
" id="DejaVuSans-39"/>
      </defs>
      <g style="fill:#ffffff;" transform="translate(207.925273 330.88675)scale(0.08 -0.08)">
       <use xlink:href="#DejaVuSans-32"/>
       <use x="63.623047" xlink:href="#DejaVuSans-39"/>
      </g>
     </g>
    </g>
    <g id="xtick_9">
     <g id="line2d_12"/>
     <g id="text_9">
      <!-- 01 -->
      <g style="fill:#ffffff;" transform="translate(226.147818 330.88675)scale(0.08 -0.08)">
       <use xlink:href="#DejaVuSans-30"/>
       <use x="63.623047" xlink:href="#DejaVuSans-31"/>
      </g>
     </g>
    </g>
    <g id="xtick_10">
     <g id="line2d_13"/>
     <g id="text_10">
      <!-- 08 -->
      <g style="fill:#ffffff;" transform="translate(268.667091 330.88675)scale(0.08 -0.08)">
       <use xlink:href="#DejaVuSans-30"/>
       <use x="63.623047" xlink:href="#DejaVuSans-38"/>
      </g>
     </g>
    </g>
    <g id="xtick_11">
     <g id="line2d_14"/>
     <g id="text_11">
      <!-- 15 -->
      <g style="fill:#ffffff;" transform="translate(311.186364 330.88675)scale(0.08 -0.08)">
       <use xlink:href="#DejaVuSans-31"/>
       <use x="63.623047" xlink:href="#DejaVuSans-35"/>
      </g>
     </g>
    </g>
    <g id="xtick_12">
     <g id="line2d_15"/>
     <g id="text_12">
      <!-- 22 -->
      <g style="fill:#ffffff;" transform="translate(353.705636 330.88675)scale(0.08 -0.08)">
       <use xlink:href="#DejaVuSans-32"/>
       <use x="63.623047" xlink:href="#DejaVuSans-32"/>
      </g>
     </g>
    </g>
    <g id="xtick_13">
     <g id="line2d_16"/>
     <g id="text_13">
      <!-- 29 -->
      <g style="fill:#ffffff;" transform="translate(396.224909 330.88675)scale(0.08 -0.08)">
       <use xlink:href="#DejaVuSans-32"/>
       <use x="63.623047" xlink:href="#DejaVuSans-39"/>
      </g>
     </g>
    </g>
    <g id="xtick_14">
     <g id="line2d_17"/>
     <g id="text_14">
      <!-- 01 -->
      <g style="fill:#ffffff;" transform="translate(408.373273 330.88675)scale(0.08 -0.08)">
       <use xlink:href="#DejaVuSans-30"/>
       <use x="63.623047" xlink:href="#DejaVuSans-31"/>
      </g>
     </g>
    </g>
    <g id="text_15">
     <!-- Date -->
     <defs>
      <path d="M 27.984375 58.6875 
L 27.984375 14.203125 
L 34.71875 14.203125 
Q 46.234375 14.203125 52.3125 19.921875 
Q 58.40625 25.640625 58.40625 36.53125 
Q 58.40625 47.359375 52.34375 53.015625 
Q 46.296875 58.6875 34.71875 58.6875 
z
M 9.1875 72.90625 
L 29 72.90625 
Q 45.609375 72.90625 53.734375 70.53125 
Q 61.859375 68.171875 67.671875 62.5 
Q 72.796875 57.5625 75.28125 51.109375 
Q 77.78125 44.671875 77.78125 36.53125 
Q 77.78125 28.265625 75.28125 21.796875 
Q 72.796875 15.328125 67.671875 10.40625 
Q 61.8125 4.734375 53.609375 2.359375 
Q 45.40625 0 29 0 
L 9.1875 0 
z
" id="DejaVuSans-Bold-44"/>
      <path d="M 32.90625 24.609375 
Q 27.4375 24.609375 24.671875 22.75 
Q 21.921875 20.90625 21.921875 17.28125 
Q 21.921875 13.96875 24.140625 12.078125 
Q 26.375 10.203125 30.328125 10.203125 
Q 35.25 10.203125 38.625 13.734375 
Q 42 17.28125 42 22.609375 
L 42 24.609375 
z
M 59.625 31.203125 
L 59.625 0 
L 42 0 
L 42 8.109375 
Q 38.484375 3.125 34.078125 0.84375 
Q 29.6875 -1.421875 23.390625 -1.421875 
Q 14.890625 -1.421875 9.59375 3.53125 
Q 4.296875 8.5 4.296875 16.40625 
Q 4.296875 26.03125 10.90625 30.515625 
Q 17.53125 35.015625 31.6875 35.015625 
L 42 35.015625 
L 42 36.375 
Q 42 40.53125 38.71875 42.453125 
Q 35.453125 44.390625 28.515625 44.390625 
Q 22.90625 44.390625 18.0625 43.265625 
Q 13.234375 42.140625 9.078125 39.890625 
L 9.078125 53.21875 
Q 14.703125 54.59375 20.359375 55.296875 
Q 26.03125 56 31.6875 56 
Q 46.484375 56 53.046875 50.171875 
Q 59.625 44.34375 59.625 31.203125 
z
" id="DejaVuSans-Bold-61"/>
      <path d="M 27.484375 70.21875 
L 27.484375 54.6875 
L 45.515625 54.6875 
L 45.515625 42.1875 
L 27.484375 42.1875 
L 27.484375 19 
Q 27.484375 15.1875 29 13.84375 
Q 30.515625 12.5 35.015625 12.5 
L 44 12.5 
L 44 0 
L 29 0 
Q 18.65625 0 14.328125 4.3125 
Q 10.015625 8.640625 10.015625 19 
L 10.015625 42.1875 
L 1.3125 42.1875 
L 1.3125 54.6875 
L 10.015625 54.6875 
L 10.015625 70.21875 
z
" id="DejaVuSans-Bold-74"/>
      <path d="M 62.984375 27.484375 
L 62.984375 22.515625 
L 22.125 22.515625 
Q 22.75 16.359375 26.5625 13.28125 
Q 30.375 10.203125 37.203125 10.203125 
Q 42.71875 10.203125 48.5 11.84375 
Q 54.296875 13.484375 60.40625 16.796875 
L 60.40625 3.328125 
Q 54.203125 0.984375 48 -0.21875 
Q 41.796875 -1.421875 35.59375 -1.421875 
Q 20.75 -1.421875 12.515625 6.125 
Q 4.296875 13.671875 4.296875 27.296875 
Q 4.296875 40.671875 12.375 48.328125 
Q 20.453125 56 34.625 56 
Q 47.515625 56 55.25 48.234375 
Q 62.984375 40.484375 62.984375 27.484375 
z
M 45.015625 33.296875 
Q 45.015625 38.28125 42.109375 41.328125 
Q 39.203125 44.390625 34.515625 44.390625 
Q 29.4375 44.390625 26.265625 41.53125 
Q 23.09375 38.671875 22.3125 33.296875 
z
" id="DejaVuSans-Bold-65"/>
     </defs>
     <g style="fill:#ffffff;" transform="translate(224.00575 353.207187)scale(0.1 -0.1)">
      <use xlink:href="#DejaVuSans-Bold-44"/>
      <use x="83.007812" xlink:href="#DejaVuSans-Bold-61"/>
      <use x="150.488281" xlink:href="#DejaVuSans-Bold-74"/>
      <use x="198.291016" xlink:href="#DejaVuSans-Bold-65"/>
     </g>
    </g>
   </g>
   <g id="matplotlib.axis_2">
    <g id="ytick_1">
     <g id="line2d_18">
      <path clip-path="url(#p7d59b811e5)" d="M 36.864 311.018858 
L 437.76 311.018858 
" style="fill:none;stroke:#cbcbcb;"/>
     </g>
     <g id="line2d_19"/>
     <g id="text_16">
      <!-- 2 -->
      <g style="fill:#ffffff;" transform="translate(28.274 314.058233)scale(0.08 -0.08)">
       <use xlink:href="#DejaVuSans-32"/>
      </g>
     </g>
    </g>
    <g id="ytick_2">
     <g id="line2d_20">
      <path clip-path="url(#p7d59b811e5)" d="M 36.864 253.935661 
L 437.76 253.935661 
" style="fill:none;stroke:#cbcbcb;"/>
     </g>
     <g id="line2d_21"/>
     <g id="text_17">
      <!-- 4 -->
      <defs>
       <path d="M 37.796875 64.3125 
L 12.890625 25.390625 
L 37.796875 25.390625 
z
M 35.203125 72.90625 
L 47.609375 72.90625 
L 47.609375 25.390625 
L 58.015625 25.390625 
L 58.015625 17.1875 
L 47.609375 17.1875 
L 47.609375 0 
L 37.796875 0 
L 37.796875 17.1875 
L 4.890625 17.1875 
L 4.890625 26.703125 
z
" id="DejaVuSans-34"/>
      </defs>
      <g style="fill:#ffffff;" transform="translate(28.274 256.975036)scale(0.08 -0.08)">
       <use xlink:href="#DejaVuSans-34"/>
      </g>
     </g>
    </g>
    <g id="ytick_3">
     <g id="line2d_22">
      <path clip-path="url(#p7d59b811e5)" d="M 36.864 196.852463 
L 437.76 196.852463 
" style="fill:none;stroke:#cbcbcb;"/>
     </g>
     <g id="line2d_23"/>
     <g id="text_18">
      <!-- 6 -->
      <defs>
       <path d="M 33.015625 40.375 
Q 26.375 40.375 22.484375 35.828125 
Q 18.609375 31.296875 18.609375 23.390625 
Q 18.609375 15.53125 22.484375 10.953125 
Q 26.375 6.390625 33.015625 6.390625 
Q 39.65625 6.390625 43.53125 10.953125 
Q 47.40625 15.53125 47.40625 23.390625 
Q 47.40625 31.296875 43.53125 35.828125 
Q 39.65625 40.375 33.015625 40.375 
z
M 52.59375 71.296875 
L 52.59375 62.3125 
Q 48.875 64.0625 45.09375 64.984375 
Q 41.3125 65.921875 37.59375 65.921875 
Q 27.828125 65.921875 22.671875 59.328125 
Q 17.53125 52.734375 16.796875 39.40625 
Q 19.671875 43.65625 24.015625 45.921875 
Q 28.375 48.1875 33.59375 48.1875 
Q 44.578125 48.1875 50.953125 41.515625 
Q 57.328125 34.859375 57.328125 23.390625 
Q 57.328125 12.15625 50.6875 5.359375 
Q 44.046875 -1.421875 33.015625 -1.421875 
Q 20.359375 -1.421875 13.671875 8.265625 
Q 6.984375 17.96875 6.984375 36.375 
Q 6.984375 53.65625 15.1875 63.9375 
Q 23.390625 74.21875 37.203125 74.21875 
Q 40.921875 74.21875 44.703125 73.484375 
Q 48.484375 72.75 52.59375 71.296875 
z
" id="DejaVuSans-36"/>
      </defs>
      <g style="fill:#ffffff;" transform="translate(28.274 199.891838)scale(0.08 -0.08)">
       <use xlink:href="#DejaVuSans-36"/>
      </g>
     </g>
    </g>
    <g id="ytick_4">
     <g id="line2d_24">
      <path clip-path="url(#p7d59b811e5)" d="M 36.864 139.769266 
L 437.76 139.769266 
" style="fill:none;stroke:#cbcbcb;"/>
     </g>
     <g id="line2d_25"/>
     <g id="text_19">
      <!-- 8 -->
      <g style="fill:#ffffff;" transform="translate(28.274 142.808641)scale(0.08 -0.08)">
       <use xlink:href="#DejaVuSans-38"/>
      </g>
     </g>
    </g>
    <g id="ytick_5">
     <g id="line2d_26">
      <path clip-path="url(#p7d59b811e5)" d="M 36.864 82.686069 
L 437.76 82.686069 
" style="fill:none;stroke:#cbcbcb;"/>
     </g>
     <g id="line2d_27"/>
     <g id="text_20">
      <!-- 10 -->
      <g style="fill:#ffffff;" transform="translate(23.184 85.725444)scale(0.08 -0.08)">
       <use xlink:href="#DejaVuSans-31"/>
       <use x="63.623047" xlink:href="#DejaVuSans-30"/>
      </g>
     </g>
    </g>
    <g id="text_21">
     <!-- Total Hours -->
     <defs>
      <path d="M 0.484375 72.90625 
L 67.671875 72.90625 
L 67.671875 58.6875 
L 43.5 58.6875 
L 43.5 0 
L 24.703125 0 
L 24.703125 58.6875 
L 0.484375 58.6875 
z
" id="DejaVuSans-Bold-54"/>
      <path d="M 34.421875 43.5 
Q 28.609375 43.5 25.5625 39.328125 
Q 22.515625 35.15625 22.515625 27.296875 
Q 22.515625 19.4375 25.5625 15.25 
Q 28.609375 11.078125 34.421875 11.078125 
Q 40.140625 11.078125 43.15625 15.25 
Q 46.1875 19.4375 46.1875 27.296875 
Q 46.1875 35.15625 43.15625 39.328125 
Q 40.140625 43.5 34.421875 43.5 
z
M 34.421875 56 
Q 48.53125 56 56.46875 48.375 
Q 64.40625 40.765625 64.40625 27.296875 
Q 64.40625 13.8125 56.46875 6.1875 
Q 48.53125 -1.421875 34.421875 -1.421875 
Q 20.265625 -1.421875 12.28125 6.1875 
Q 4.296875 13.8125 4.296875 27.296875 
Q 4.296875 40.765625 12.28125 48.375 
Q 20.265625 56 34.421875 56 
z
" id="DejaVuSans-Bold-6f"/>
      <path d="M 8.40625 75.984375 
L 25.875 75.984375 
L 25.875 0 
L 8.40625 0 
z
" id="DejaVuSans-Bold-6c"/>
      <path id="DejaVuSans-Bold-20"/>
      <path d="M 9.1875 72.90625 
L 27.984375 72.90625 
L 27.984375 45.125 
L 55.71875 45.125 
L 55.71875 72.90625 
L 74.515625 72.90625 
L 74.515625 0 
L 55.71875 0 
L 55.71875 30.90625 
L 27.984375 30.90625 
L 27.984375 0 
L 9.1875 0 
z
" id="DejaVuSans-Bold-48"/>
      <path d="M 7.8125 21.296875 
L 7.8125 54.6875 
L 25.390625 54.6875 
L 25.390625 49.21875 
Q 25.390625 44.78125 25.34375 38.0625 
Q 25.296875 31.34375 25.296875 29.109375 
Q 25.296875 22.515625 25.640625 19.609375 
Q 25.984375 16.703125 26.8125 15.375 
Q 27.875 13.671875 29.609375 12.734375 
Q 31.34375 11.8125 33.59375 11.8125 
Q 39.0625 11.8125 42.1875 16.015625 
Q 45.3125 20.21875 45.3125 27.6875 
L 45.3125 54.6875 
L 62.796875 54.6875 
L 62.796875 0 
L 45.3125 0 
L 45.3125 7.90625 
Q 41.359375 3.125 36.9375 0.84375 
Q 32.515625 -1.421875 27.203125 -1.421875 
Q 17.71875 -1.421875 12.765625 4.390625 
Q 7.8125 10.203125 7.8125 21.296875 
z
" id="DejaVuSans-Bold-75"/>
      <path d="M 49.03125 39.796875 
Q 46.734375 40.875 44.453125 41.375 
Q 42.1875 41.890625 39.890625 41.890625 
Q 33.15625 41.890625 29.515625 37.5625 
Q 25.875 33.25 25.875 25.203125 
L 25.875 0 
L 8.40625 0 
L 8.40625 54.6875 
L 25.875 54.6875 
L 25.875 45.703125 
Q 29.25 51.078125 33.609375 53.53125 
Q 37.984375 56 44.09375 56 
Q 44.96875 56 45.984375 55.921875 
Q 47.015625 55.859375 48.96875 55.609375 
z
" id="DejaVuSans-Bold-72"/>
      <path d="M 51.125 52.984375 
L 51.125 39.703125 
Q 45.515625 42.046875 40.28125 43.21875 
Q 35.0625 44.390625 30.421875 44.390625 
Q 25.4375 44.390625 23.015625 43.140625 
Q 20.609375 41.890625 20.609375 39.3125 
Q 20.609375 37.203125 22.4375 36.078125 
Q 24.265625 34.96875 29 34.421875 
L 32.078125 33.984375 
Q 45.515625 32.28125 50.140625 28.375 
Q 54.78125 24.46875 54.78125 16.109375 
Q 54.78125 7.375 48.328125 2.96875 
Q 41.890625 -1.421875 29.109375 -1.421875 
Q 23.6875 -1.421875 17.890625 -0.5625 
Q 12.109375 0.296875 6 2 
L 6 15.28125 
Q 11.234375 12.75 16.71875 11.46875 
Q 22.21875 10.203125 27.875 10.203125 
Q 33.015625 10.203125 35.59375 11.609375 
Q 38.1875 13.03125 38.1875 15.828125 
Q 38.1875 18.171875 36.40625 19.3125 
Q 34.625 20.453125 29.296875 21.09375 
L 26.21875 21.484375 
Q 14.546875 22.953125 9.859375 26.90625 
Q 5.171875 30.859375 5.171875 38.921875 
Q 5.171875 47.609375 11.125 51.796875 
Q 17.09375 56 29.390625 56 
Q 34.234375 56 39.546875 55.265625 
Q 44.875 54.546875 51.125 52.984375 
z
" id="DejaVuSans-Bold-73"/>
     </defs>
     <g style="fill:#ffffff;" transform="translate(17.104313 214.115)rotate(-90)scale(0.1 -0.1)">
      <use xlink:href="#DejaVuSans-Bold-54"/>
      <use x="68.009766" xlink:href="#DejaVuSans-Bold-6f"/>
      <use x="136.710938" xlink:href="#DejaVuSans-Bold-74"/>
      <use x="184.513672" xlink:href="#DejaVuSans-Bold-61"/>
      <use x="251.994141" xlink:href="#DejaVuSans-Bold-6c"/>
      <use x="286.271484" xlink:href="#DejaVuSans-Bold-20"/>
      <use x="321.085938" xlink:href="#DejaVuSans-Bold-48"/>
      <use x="404.777344" xlink:href="#DejaVuSans-Bold-6f"/>
      <use x="473.478516" xlink:href="#DejaVuSans-Bold-75"/>
      <use x="544.669922" xlink:href="#DejaVuSans-Bold-72"/>
      <use x="593.986328" xlink:href="#DejaVuSans-Bold-73"/>
     </g>
    </g>
   </g>
   <g id="PathCollection_1">
    <defs>
     <path d="M 0 0.707107 
C 0.187527 0.707107 0.367398 0.632602 0.5 0.5 
C 0.632602 0.367398 0.707107 0.187527 0.707107 0 
C 0.707107 -0.187527 0.632602 -0.367398 0.5 -0.5 
C 0.367398 -0.632602 0.187527 -0.707107 0 -0.707107 
C -0.187527 -0.707107 -0.367398 -0.632602 -0.5 -0.5 
C -0.632602 -0.367398 -0.707107 -0.187527 -0.707107 0 
C -0.707107 0.187527 -0.632602 0.367398 -0.5 0.5 
C -0.367398 0.632602 -0.187527 0.707107 0 0.707107 
z
" id="m377614f9c3" style="stroke:#dcd6f7;stroke-opacity:0.8;stroke-width:0.5;"/>
    </defs>
    <g clip-path="url(#p7d59b811e5)">
     <use style="fill:#dcd6f7;fill-opacity:0.8;stroke:#dcd6f7;stroke-opacity:0.8;stroke-width:0.5;" x="42.938182" xlink:href="#m377614f9c3" y="207.127439"/>
     <use style="fill:#dcd6f7;fill-opacity:0.8;stroke:#dcd6f7;stroke-opacity:0.8;stroke-width:0.5;" x="55.086545" xlink:href="#m377614f9c3" y="76.121501"/>
     <use style="fill:#dcd6f7;fill-opacity:0.8;stroke:#dcd6f7;stroke-opacity:0.8;stroke-width:0.5;" x="61.160727" xlink:href="#m377614f9c3" y="136.915106"/>
     <use style="fill:#dcd6f7;fill-opacity:0.8;stroke:#dcd6f7;stroke-opacity:0.8;stroke-width:0.5;" x="67.234909" xlink:href="#m377614f9c3" y="123.215139"/>
     <use style="fill:#dcd6f7;fill-opacity:0.8;stroke:#dcd6f7;stroke-opacity:0.8;stroke-width:0.5;" x="73.309091" xlink:href="#m377614f9c3" y="198.850375"/>
     <use style="fill:#dcd6f7;fill-opacity:0.8;stroke:#dcd6f7;stroke-opacity:0.8;stroke-width:0.5;" x="79.383273" xlink:href="#m377614f9c3" y="215.689918"/>
     <use style="fill:#dcd6f7;fill-opacity:0.8;stroke:#dcd6f7;stroke-opacity:0.8;stroke-width:0.5;" x="85.457455" xlink:href="#m377614f9c3" y="181.44"/>
     <use style="fill:#dcd6f7;fill-opacity:0.8;stroke:#dcd6f7;stroke-opacity:0.8;stroke-width:0.5;" x="91.531636" xlink:href="#m377614f9c3" y="134.631778"/>
     <use style="fill:#dcd6f7;fill-opacity:0.8;stroke:#dcd6f7;stroke-opacity:0.8;stroke-width:0.5;" x="97.605818" xlink:href="#m377614f9c3" y="302.741794"/>
     <use style="fill:#dcd6f7;fill-opacity:0.8;stroke:#dcd6f7;stroke-opacity:0.8;stroke-width:0.5;" x="103.68" xlink:href="#m377614f9c3" y="163.458793"/>
     <use style="fill:#dcd6f7;fill-opacity:0.8;stroke:#dcd6f7;stroke-opacity:0.8;stroke-width:0.5;" x="109.754182" xlink:href="#m377614f9c3" y="181.154584"/>
     <use style="fill:#dcd6f7;fill-opacity:0.8;stroke:#dcd6f7;stroke-opacity:0.8;stroke-width:0.5;" x="115.828364" xlink:href="#m377614f9c3" y="215.975334"/>
     <use style="fill:#dcd6f7;fill-opacity:0.8;stroke:#dcd6f7;stroke-opacity:0.8;stroke-width:0.5;" x="127.976727" xlink:href="#m377614f9c3" y="188.5754"/>
     <use style="fill:#dcd6f7;fill-opacity:0.8;stroke:#dcd6f7;stroke-opacity:0.8;stroke-width:0.5;" x="134.050909" xlink:href="#m377614f9c3" y="239.664861"/>
     <use style="fill:#dcd6f7;fill-opacity:0.8;stroke:#dcd6f7;stroke-opacity:0.8;stroke-width:0.5;" x="146.199273" xlink:href="#m377614f9c3" y="183.723328"/>
     <use style="fill:#dcd6f7;fill-opacity:0.8;stroke:#dcd6f7;stroke-opacity:0.8;stroke-width:0.5;" x="152.273455" xlink:href="#m377614f9c3" y="139.769266"/>
     <use style="fill:#dcd6f7;fill-opacity:0.8;stroke:#dcd6f7;stroke-opacity:0.8;stroke-width:0.5;" x="158.347636" xlink:href="#m377614f9c3" y="148.04633"/>
     <use style="fill:#dcd6f7;fill-opacity:0.8;stroke:#dcd6f7;stroke-opacity:0.8;stroke-width:0.5;" x="164.421818" xlink:href="#m377614f9c3" y="174.590016"/>
     <use style="fill:#dcd6f7;fill-opacity:0.8;stroke:#dcd6f7;stroke-opacity:0.8;stroke-width:0.5;" x="170.496" xlink:href="#m377614f9c3" y="211.694095"/>
     <use style="fill:#dcd6f7;fill-opacity:0.8;stroke:#dcd6f7;stroke-opacity:0.8;stroke-width:0.5;" x="176.570182" xlink:href="#m377614f9c3" y="146.333834"/>
     <use style="fill:#dcd6f7;fill-opacity:0.8;stroke:#dcd6f7;stroke-opacity:0.8;stroke-width:0.5;" x="182.644364" xlink:href="#m377614f9c3" y="227.67739"/>
     <use style="fill:#dcd6f7;fill-opacity:0.8;stroke:#dcd6f7;stroke-opacity:0.8;stroke-width:0.5;" x="188.718545" xlink:href="#m377614f9c3" y="157.750473"/>
     <use style="fill:#dcd6f7;fill-opacity:0.8;stroke:#dcd6f7;stroke-opacity:0.8;stroke-width:0.5;" x="194.792727" xlink:href="#m377614f9c3" y="154.610897"/>
     <use style="fill:#dcd6f7;fill-opacity:0.8;stroke:#dcd6f7;stroke-opacity:0.8;stroke-width:0.5;" x="200.866909" xlink:href="#m377614f9c3" y="178.871256"/>
     <use style="fill:#dcd6f7;fill-opacity:0.8;stroke:#dcd6f7;stroke-opacity:0.8;stroke-width:0.5;" x="206.941091" xlink:href="#m377614f9c3" y="182.581664"/>
     <use style="fill:#dcd6f7;fill-opacity:0.8;stroke:#dcd6f7;stroke-opacity:0.8;stroke-width:0.5;" x="213.015273" xlink:href="#m377614f9c3" y="168.596281"/>
     <use style="fill:#dcd6f7;fill-opacity:0.8;stroke:#dcd6f7;stroke-opacity:0.8;stroke-width:0.5;" x="219.089455" xlink:href="#m377614f9c3" y="156.037977"/>
     <use style="fill:#dcd6f7;fill-opacity:0.8;stroke:#dcd6f7;stroke-opacity:0.8;stroke-width:0.5;" x="225.163636" xlink:href="#m377614f9c3" y="203.702447"/>
     <use style="fill:#dcd6f7;fill-opacity:0.8;stroke:#dcd6f7;stroke-opacity:0.8;stroke-width:0.5;" x="231.237818" xlink:href="#m377614f9c3" y="164.600457"/>
     <use style="fill:#dcd6f7;fill-opacity:0.8;stroke:#dcd6f7;stroke-opacity:0.8;stroke-width:0.5;" x="237.312" xlink:href="#m377614f9c3" y="229.960718"/>
     <use style="fill:#dcd6f7;fill-opacity:0.8;stroke:#dcd6f7;stroke-opacity:0.8;stroke-width:0.5;" x="243.386182" xlink:href="#m377614f9c3" y="66.988189"/>
     <use style="fill:#dcd6f7;fill-opacity:0.8;stroke:#dcd6f7;stroke-opacity:0.8;stroke-width:0.5;" x="249.460364" xlink:href="#m377614f9c3" y="164.885873"/>
     <use style="fill:#dcd6f7;fill-opacity:0.8;stroke:#dcd6f7;stroke-opacity:0.8;stroke-width:0.5;" x="255.534545" xlink:href="#m377614f9c3" y="142.908842"/>
     <use style="fill:#dcd6f7;fill-opacity:0.8;stroke:#dcd6f7;stroke-opacity:0.8;stroke-width:0.5;" x="261.608727" xlink:href="#m377614f9c3" y="191.144144"/>
     <use style="fill:#dcd6f7;fill-opacity:0.8;stroke:#dcd6f7;stroke-opacity:0.8;stroke-width:0.5;" x="267.682909" xlink:href="#m377614f9c3" y="139.769266"/>
     <use style="fill:#dcd6f7;fill-opacity:0.8;stroke:#dcd6f7;stroke-opacity:0.8;stroke-width:0.5;" x="273.757091" xlink:href="#m377614f9c3" y="183.152496"/>
     <use style="fill:#dcd6f7;fill-opacity:0.8;stroke:#dcd6f7;stroke-opacity:0.8;stroke-width:0.5;" x="279.831273" xlink:href="#m377614f9c3" y="152.327569"/>
     <use style="fill:#dcd6f7;fill-opacity:0.8;stroke:#dcd6f7;stroke-opacity:0.8;stroke-width:0.5;" x="285.905455" xlink:href="#m377614f9c3" y="112.369331"/>
     <use style="fill:#dcd6f7;fill-opacity:0.8;stroke:#dcd6f7;stroke-opacity:0.8;stroke-width:0.5;" x="291.979636" xlink:href="#m377614f9c3" y="173.162936"/>
     <use style="fill:#dcd6f7;fill-opacity:0.8;stroke:#dcd6f7;stroke-opacity:0.8;stroke-width:0.5;" x="298.053818" xlink:href="#m377614f9c3" y="108.088091"/>
     <use style="fill:#dcd6f7;fill-opacity:0.8;stroke:#dcd6f7;stroke-opacity:0.8;stroke-width:0.5;" x="304.128" xlink:href="#m377614f9c3" y="178.58584"/>
     <use style="fill:#dcd6f7;fill-opacity:0.8;stroke:#dcd6f7;stroke-opacity:0.8;stroke-width:0.5;" x="310.202182" xlink:href="#m377614f9c3" y="194.569135"/>
     <use style="fill:#dcd6f7;fill-opacity:0.8;stroke:#dcd6f7;stroke-opacity:0.8;stroke-width:0.5;" x="316.276364" xlink:href="#m377614f9c3" y="160.319217"/>
     <use style="fill:#dcd6f7;fill-opacity:0.8;stroke:#dcd6f7;stroke-opacity:0.8;stroke-width:0.5;" x="322.350545" xlink:href="#m377614f9c3" y="186.006656"/>
     <use style="fill:#dcd6f7;fill-opacity:0.8;stroke:#dcd6f7;stroke-opacity:0.8;stroke-width:0.5;" x="328.424727" xlink:href="#m377614f9c3" y="135.20261"/>
     <use style="fill:#dcd6f7;fill-opacity:0.8;stroke:#dcd6f7;stroke-opacity:0.8;stroke-width:0.5;" x="334.498909" xlink:href="#m377614f9c3" y="183.723328"/>
     <use style="fill:#dcd6f7;fill-opacity:0.8;stroke:#dcd6f7;stroke-opacity:0.8;stroke-width:0.5;" x="340.573091" xlink:href="#m377614f9c3" y="82.115237"/>
     <use style="fill:#dcd6f7;fill-opacity:0.8;stroke:#dcd6f7;stroke-opacity:0.8;stroke-width:0.5;" x="346.647273" xlink:href="#m377614f9c3" y="163.458793"/>
     <use style="fill:#dcd6f7;fill-opacity:0.8;stroke:#dcd6f7;stroke-opacity:0.8;stroke-width:0.5;" x="352.721455" xlink:href="#m377614f9c3" y="173.733768"/>
    </g>
   </g>
   <g id="line2d_28">
    <path clip-path="url(#p7d59b811e5)" d="M 42.938182 207.127439 
L 55.086545 76.121501 
L 61.160727 136.915106 
L 67.234909 123.215139 
L 73.309091 198.850375 
L 79.383273 215.689918 
L 85.457455 181.44 
L 91.531636 134.631778 
L 97.605818 302.741794 
L 103.68 163.458793 
L 109.754182 181.154584 
L 115.828364 215.975334 
L 127.976727 188.5754 
L 134.050909 239.664861 
L 146.199273 183.723328 
L 152.273455 139.769266 
L 158.347636 148.04633 
L 164.421818 174.590016 
L 170.496 211.694095 
L 176.570182 146.333834 
L 182.644364 227.67739 
L 188.718545 157.750473 
L 194.792727 154.610897 
L 200.866909 178.871256 
L 206.941091 182.581664 
L 213.015273 168.596281 
L 219.089455 156.037977 
L 225.163636 203.702447 
L 231.237818 164.600457 
L 237.312 229.960718 
L 243.386182 66.988189 
L 249.460364 164.885873 
L 255.534545 142.908842 
L 261.608727 191.144144 
L 267.682909 139.769266 
L 273.757091 183.152496 
L 279.831273 152.327569 
L 285.905455 112.369331 
L 291.979636 173.162936 
L 298.053818 108.088091 
L 304.128 178.58584 
L 310.202182 194.569135 
L 316.276364 160.319217 
L 322.350545 186.006656 
L 328.424727 135.20261 
L 334.498909 183.723328 
L 340.573091 82.115237 
L 346.647273 163.458793 
L 352.721455 173.733768 
" style="fill:none;opacity:0.3;stroke:#dcd6f7;stroke-width:1.5;"/>
   </g>
   <g id="line2d_29">
    <path clip-path="url(#p7d59b811e5)" d="M 42.938182 184.414702 
L 55.086545 183.257757 
L 61.160727 182.679284 
L 67.234909 182.100812 
L 73.309091 181.522339 
L 79.383273 180.943866 
L 85.457455 180.365393 
L 91.531636 179.786921 
L 97.605818 179.208448 
L 103.68 178.629975 
L 109.754182 178.051502 
L 115.828364 177.47303 
L 127.976727 176.316084 
L 134.050909 175.737612 
L 146.199273 174.580666 
L 152.273455 174.002193 
L 158.347636 173.423721 
L 164.421818 172.845248 
L 170.496 172.266775 
L 176.570182 171.688303 
L 182.644364 171.10983 
L 188.718545 170.531357 
L 194.792727 169.952884 
L 200.866909 169.374412 
L 206.941091 168.795939 
L 213.015273 168.217466 
L 219.089455 167.638994 
L 225.163636 167.060521 
L 231.237818 166.482048 
L 237.312 165.903575 
L 243.386182 165.325103 
L 249.460364 164.74663 
L 255.534545 164.168157 
L 261.608727 163.589684 
L 267.682909 163.011212 
L 273.757091 162.432739 
L 279.831273 161.854266 
L 285.905455 161.275794 
L 291.979636 160.697321 
L 298.053818 160.118848 
L 304.128 159.540375 
L 310.202182 158.961903 
L 316.276364 158.38343 
L 322.350545 157.804957 
L 328.424727 157.226485 
L 334.498909 156.648012 
L 340.573091 156.069539 
L 346.647273 155.491066 
L 352.721455 154.912594 
" style="fill:none;stroke:#a6b1e1;stroke-linecap:round;stroke-width:2;"/>
   </g>
  </g>
 </g>
 <defs>
  <clipPath id="p7d59b811e5">
   <rect height="279.936" width="400.896" x="36.864" y="41.472"/>
  </clipPath>
 </defs>
</svg>
