<?xml version="1.0" standalone="no"?>
<!DOCTYPE svg PUBLIC "-//W3C//DTD SVG 20010904//EN"
 "http://www.w3.org/TR/2001/REC-SVG-20010904/DTD/svg10.dtd">
<svg version="1.0" xmlns="http://www.w3.org/2000/svg"
 width="660.000000pt" height="660.000000pt" viewBox="0 0 660.000000 660.000000"
 preserveAspectRatio="xMidYMid meet">
<metadata>
Created by potrace 1.11, written by Peter Selinger 2001-2013
</metadata>
<g transform="translate(0.000000,660.000000) scale(0.100000,-0.100000)"
fill="#000000" stroke="none">
<path d="M5875 6376 c-95 -16 -214 -61 -271 -102 -112 -81 -189 -212 -269
-457 -109 -335 -180 -444 -479 -742 -189 -189 -313 -285 -601 -465 -309 -194
-396 -259 -766 -571 -221 -186 -229 -193 -331 -233 -285 -115 -609 -322 -1033
-662 -112 -89 -154 -117 -210 -137 -245 -88 -450 -176 -457 -197 -1 -5 -61
-24 -133 -41 -171 -40 -238 -61 -243 -76 -6 -20 56 -50 195 -95 103 -33 129
-44 116 -51 -10 -6 -26 -17 -35 -25 -13 -11 -39 -14 -100 -13 -96 2 -417 -30
-533 -54 -44 -9 -103 -27 -132 -40 -128 -58 -96 -131 89 -204 40 -15 84 -31
98 -34 24 -6 56 -53 42 -61 -4 -2 -90 -27 -192 -55 -339 -95 -513 -158 -579
-210 l-25 -19 27 -41 c71 -107 293 -222 588 -305 344 -97 622 -138 1742 -256
l368 -39 56 -48 c253 -219 359 -289 470 -314 l53 -12 17 -56 c20 -71 19 -155
-3 -190 -46 -69 -110 -90 -314 -100 -124 -6 -153 -11 -170 -26 -11 -10 -20
-21 -20 -25 0 -23 70 -33 285 -39 l230 -7 170 -56 c448 -149 625 -181 625
-114 0 13 -6 29 -13 35 -8 6 -101 34 -208 61 -285 74 -318 89 -278 126 20 18
41 19 365 19 296 0 346 2 354 15 16 25 11 38 -25 66 -54 41 -158 44 -350 10
-220 -39 -301 -44 -350 -19 l-39 20 35 11 c19 6 72 19 119 28 47 10 93 24 103
33 17 14 17 16 -5 33 -33 25 -96 22 -204 -9 -121 -35 -126 -32 -169 106 l-32
104 150 51 c146 49 151 52 159 83 l8 33 81 -41 c52 -26 100 -43 135 -46 48 -5
61 -2 115 27 71 37 83 32 75 -35 -6 -48 -54 -98 -113 -115 -21 -6 -100 -14
-176 -17 -112 -5 -143 -9 -160 -24 -44 -36 -12 -43 221 -50 217 -7 217 -7 347
-47 397 -122 583 -153 593 -99 5 23 -41 40 -234 87 -203 49 -247 69 -211 97
25 21 107 24 322 13 245 -13 318 -7 323 25 2 14 -10 28 -34 45 -32 21 -46 24
-123 23 -47 -1 -145 -11 -218 -22 -156 -25 -261 -27 -289 -7 -24 18 -20 20
103 42 96 17 124 32 99 53 -27 23 -82 23 -164 2 -94 -24 -126 -26 -139 -8 -14
17 -42 104 -36 110 2 3 45 13 94 23 87 18 89 19 101 54 12 34 18 223 8 247 -3
8 39 33 115 68 66 30 174 85 240 122 156 86 171 94 290 148 163 75 427 246
529 343 69 66 134 206 186 402 13 47 31 96 40 110 30 43 76 141 110 233 96
265 136 616 113 999 -4 75 -5 186 -2 246 6 106 9 117 79 298 175 453 255 756
276 1038 4 57 9 75 17 67 17 -17 73 -13 93 6 17 18 17 43 -2 225 -5 40 -1 73
11 111 24 78 9 320 -24 385 -51 101 -161 178 -306 217 -83 22 -281 28 -380 11z"/>
</g>
</svg>
