<?xml version="1.0" encoding="utf-8" standalone="no"?>
<!DOCTYPE svg PUBLIC "-//W3C//DTD SVG 1.1//EN"
  "http://www.w3.org/Graphics/SVG/1.1/DTD/svg11.dtd">
<!-- Created with matplotlib (http://matplotlib.org/) -->
<svg height="345pt" version="1.1" viewBox="0 0 460 345" width="460pt" xmlns="http://www.w3.org/2000/svg" xmlns:xlink="http://www.w3.org/1999/xlink">
 <defs>
  <style type="text/css">
*{stroke-linecap:butt;stroke-linejoin:round;}
  </style>
 </defs>
 <g id="figure_1">
  <g id="patch_1">
   <path d="M 0 345.6 
L 460.8 345.6 
L 460.8 0 
L 0 0 
z
" style="fill:#f0f0f0;"/>
  </g>
  <g id="axes_1">
   <g id="patch_2">
    <path d="M 36.864 276.48 
L 437.76 276.48 
L 437.76 41.472 
L 36.864 41.472 
z
" style="fill:#f0f0f0;"/>
   </g>
   <g id="matplotlib.axis_1">
    <g id="xtick_1">
     <g id="line2d_1">
      <path clip-path="url(#p26e0fede2d)" d="M 88.592516 276.48 
L 88.592516 41.472 
" style="fill:none;stroke:#cbcbcb;"/>
     </g>
     <g id="line2d_2"/>
     <g id="text_1">
      <!-- 04-09-2017 Mon -->
      <defs>
       <path d="M 31.78125 66.40625 
Q 24.171875 66.40625 20.328125 58.90625 
Q 16.5 51.421875 16.5 36.375 
Q 16.5 21.390625 20.328125 13.890625 
Q 24.171875 6.390625 31.78125 6.390625 
Q 39.453125 6.390625 43.28125 13.890625 
Q 47.125 21.390625 47.125 36.375 
Q 47.125 51.421875 43.28125 58.90625 
Q 39.453125 66.40625 31.78125 66.40625 
z
M 31.78125 74.21875 
Q 44.046875 74.21875 50.515625 64.515625 
Q 56.984375 54.828125 56.984375 36.375 
Q 56.984375 17.96875 50.515625 8.265625 
Q 44.046875 -1.421875 31.78125 -1.421875 
Q 19.53125 -1.421875 13.0625 8.265625 
Q 6.59375 17.96875 6.59375 36.375 
Q 6.59375 54.828125 13.0625 64.515625 
Q 19.53125 74.21875 31.78125 74.21875 
z
" id="DejaVuSans-30"/>
       <path d="M 37.796875 64.3125 
L 12.890625 25.390625 
L 37.796875 25.390625 
z
M 35.203125 72.90625 
L 47.609375 72.90625 
L 47.609375 25.390625 
L 58.015625 25.390625 
L 58.015625 17.1875 
L 47.609375 17.1875 
L 47.609375 0 
L 37.796875 0 
L 37.796875 17.1875 
L 4.890625 17.1875 
L 4.890625 26.703125 
z
" id="DejaVuSans-34"/>
       <path d="M 4.890625 31.390625 
L 31.203125 31.390625 
L 31.203125 23.390625 
L 4.890625 23.390625 
z
" id="DejaVuSans-2d"/>
       <path d="M 10.984375 1.515625 
L 10.984375 10.5 
Q 14.703125 8.734375 18.5 7.8125 
Q 22.3125 6.890625 25.984375 6.890625 
Q 35.75 6.890625 40.890625 13.453125 
Q 46.046875 20.015625 46.78125 33.40625 
Q 43.953125 29.203125 39.59375 26.953125 
Q 35.25 24.703125 29.984375 24.703125 
Q 19.046875 24.703125 12.671875 31.3125 
Q 6.296875 37.9375 6.296875 49.421875 
Q 6.296875 60.640625 12.9375 67.421875 
Q 19.578125 74.21875 30.609375 74.21875 
Q 43.265625 74.21875 49.921875 64.515625 
Q 56.59375 54.828125 56.59375 36.375 
Q 56.59375 19.140625 48.40625 8.859375 
Q 40.234375 -1.421875 26.421875 -1.421875 
Q 22.703125 -1.421875 18.890625 -0.6875 
Q 15.09375 0.046875 10.984375 1.515625 
z
M 30.609375 32.421875 
Q 37.25 32.421875 41.125 36.953125 
Q 45.015625 41.5 45.015625 49.421875 
Q 45.015625 57.28125 41.125 61.84375 
Q 37.25 66.40625 30.609375 66.40625 
Q 23.96875 66.40625 20.09375 61.84375 
Q 16.21875 57.28125 16.21875 49.421875 
Q 16.21875 41.5 20.09375 36.953125 
Q 23.96875 32.421875 30.609375 32.421875 
z
" id="DejaVuSans-39"/>
       <path d="M 19.1875 8.296875 
L 53.609375 8.296875 
L 53.609375 0 
L 7.328125 0 
L 7.328125 8.296875 
Q 12.9375 14.109375 22.625 23.890625 
Q 32.328125 33.6875 34.8125 36.53125 
Q 39.546875 41.84375 41.421875 45.53125 
Q 43.3125 49.21875 43.3125 52.78125 
Q 43.3125 58.59375 39.234375 62.25 
Q 35.15625 65.921875 28.609375 65.921875 
Q 23.96875 65.921875 18.8125 64.3125 
Q 13.671875 62.703125 7.8125 59.421875 
L 7.8125 69.390625 
Q 13.765625 71.78125 18.9375 73 
Q 24.125 74.21875 28.421875 74.21875 
Q 39.75 74.21875 46.484375 68.546875 
Q 53.21875 62.890625 53.21875 53.421875 
Q 53.21875 48.921875 51.53125 44.890625 
Q 49.859375 40.875 45.40625 35.40625 
Q 44.1875 33.984375 37.640625 27.21875 
Q 31.109375 20.453125 19.1875 8.296875 
z
" id="DejaVuSans-32"/>
       <path d="M 12.40625 8.296875 
L 28.515625 8.296875 
L 28.515625 63.921875 
L 10.984375 60.40625 
L 10.984375 69.390625 
L 28.421875 72.90625 
L 38.28125 72.90625 
L 38.28125 8.296875 
L 54.390625 8.296875 
L 54.390625 0 
L 12.40625 0 
z
" id="DejaVuSans-31"/>
       <path d="M 8.203125 72.90625 
L 55.078125 72.90625 
L 55.078125 68.703125 
L 28.609375 0 
L 18.3125 0 
L 43.21875 64.59375 
L 8.203125 64.59375 
z
" id="DejaVuSans-37"/>
       <path id="DejaVuSans-20"/>
       <path d="M 9.8125 72.90625 
L 24.515625 72.90625 
L 43.109375 23.296875 
L 61.8125 72.90625 
L 76.515625 72.90625 
L 76.515625 0 
L 66.890625 0 
L 66.890625 64.015625 
L 48.09375 14.015625 
L 38.1875 14.015625 
L 19.390625 64.015625 
L 19.390625 0 
L 9.8125 0 
z
" id="DejaVuSans-4d"/>
       <path d="M 30.609375 48.390625 
Q 23.390625 48.390625 19.1875 42.75 
Q 14.984375 37.109375 14.984375 27.296875 
Q 14.984375 17.484375 19.15625 11.84375 
Q 23.34375 6.203125 30.609375 6.203125 
Q 37.796875 6.203125 41.984375 11.859375 
Q 46.1875 17.53125 46.1875 27.296875 
Q 46.1875 37.015625 41.984375 42.703125 
Q 37.796875 48.390625 30.609375 48.390625 
z
M 30.609375 56 
Q 42.328125 56 49.015625 48.375 
Q 55.71875 40.765625 55.71875 27.296875 
Q 55.71875 13.875 49.015625 6.21875 
Q 42.328125 -1.421875 30.609375 -1.421875 
Q 18.84375 -1.421875 12.171875 6.21875 
Q 5.515625 13.875 5.515625 27.296875 
Q 5.515625 40.765625 12.171875 48.375 
Q 18.84375 56 30.609375 56 
z
" id="DejaVuSans-6f"/>
       <path d="M 54.890625 33.015625 
L 54.890625 0 
L 45.90625 0 
L 45.90625 32.71875 
Q 45.90625 40.484375 42.875 44.328125 
Q 39.84375 48.1875 33.796875 48.1875 
Q 26.515625 48.1875 22.3125 43.546875 
Q 18.109375 38.921875 18.109375 30.90625 
L 18.109375 0 
L 9.078125 0 
L 9.078125 54.6875 
L 18.109375 54.6875 
L 18.109375 46.1875 
Q 21.34375 51.125 25.703125 53.5625 
Q 30.078125 56 35.796875 56 
Q 45.21875 56 50.046875 50.171875 
Q 54.890625 44.34375 54.890625 33.015625 
z
" id="DejaVuSans-6e"/>
      </defs>
      <g transform="translate(30.687402 318.195602)rotate(-30)scale(0.08 -0.08)">
       <use xlink:href="#DejaVuSans-30"/>
       <use x="63.623047" xlink:href="#DejaVuSans-34"/>
       <use x="127.246094" xlink:href="#DejaVuSans-2d"/>
       <use x="163.330078" xlink:href="#DejaVuSans-30"/>
       <use x="226.953125" xlink:href="#DejaVuSans-39"/>
       <use x="290.576172" xlink:href="#DejaVuSans-2d"/>
       <use x="326.660156" xlink:href="#DejaVuSans-32"/>
       <use x="390.283203" xlink:href="#DejaVuSans-30"/>
       <use x="453.90625" xlink:href="#DejaVuSans-31"/>
       <use x="517.529297" xlink:href="#DejaVuSans-37"/>
       <use x="581.152344" xlink:href="#DejaVuSans-20"/>
       <use x="612.939453" xlink:href="#DejaVuSans-4d"/>
       <use x="699.21875" xlink:href="#DejaVuSans-6f"/>
       <use x="760.400391" xlink:href="#DejaVuSans-6e"/>
      </g>
     </g>
    </g>
    <g id="xtick_2">
     <g id="line2d_3">
      <path clip-path="url(#p26e0fede2d)" d="M 179.117419 276.48 
L 179.117419 41.472 
" style="fill:none;stroke:#cbcbcb;"/>
     </g>
     <g id="line2d_4"/>
     <g id="text_2">
      <!-- 11-09-2017 Mon -->
      <g transform="translate(121.212305 318.195602)rotate(-30)scale(0.08 -0.08)">
       <use xlink:href="#DejaVuSans-31"/>
       <use x="63.623047" xlink:href="#DejaVuSans-31"/>
       <use x="127.246094" xlink:href="#DejaVuSans-2d"/>
       <use x="163.330078" xlink:href="#DejaVuSans-30"/>
       <use x="226.953125" xlink:href="#DejaVuSans-39"/>
       <use x="290.576172" xlink:href="#DejaVuSans-2d"/>
       <use x="326.660156" xlink:href="#DejaVuSans-32"/>
       <use x="390.283203" xlink:href="#DejaVuSans-30"/>
       <use x="453.90625" xlink:href="#DejaVuSans-31"/>
       <use x="517.529297" xlink:href="#DejaVuSans-37"/>
       <use x="581.152344" xlink:href="#DejaVuSans-20"/>
       <use x="612.939453" xlink:href="#DejaVuSans-4d"/>
       <use x="699.21875" xlink:href="#DejaVuSans-6f"/>
       <use x="760.400391" xlink:href="#DejaVuSans-6e"/>
      </g>
     </g>
    </g>
    <g id="xtick_3">
     <g id="line2d_5">
      <path clip-path="url(#p26e0fede2d)" d="M 269.642323 276.48 
L 269.642323 41.472 
" style="fill:none;stroke:#cbcbcb;"/>
     </g>
     <g id="line2d_6"/>
     <g id="text_3">
      <!-- 18-09-2017 Mon -->
      <defs>
       <path d="M 31.78125 34.625 
Q 24.75 34.625 20.71875 30.859375 
Q 16.703125 27.09375 16.703125 20.515625 
Q 16.703125 13.921875 20.71875 10.15625 
Q 24.75 6.390625 31.78125 6.390625 
Q 38.8125 6.390625 42.859375 10.171875 
Q 46.921875 13.96875 46.921875 20.515625 
Q 46.921875 27.09375 42.890625 30.859375 
Q 38.875 34.625 31.78125 34.625 
z
M 21.921875 38.8125 
Q 15.578125 40.375 12.03125 44.71875 
Q 8.5 49.078125 8.5 55.328125 
Q 8.5 64.0625 14.71875 69.140625 
Q 20.953125 74.21875 31.78125 74.21875 
Q 42.671875 74.21875 48.875 69.140625 
Q 55.078125 64.0625 55.078125 55.328125 
Q 55.078125 49.078125 51.53125 44.71875 
Q 48 40.375 41.703125 38.8125 
Q 48.828125 37.15625 52.796875 32.3125 
Q 56.78125 27.484375 56.78125 20.515625 
Q 56.78125 9.90625 50.3125 4.234375 
Q 43.84375 -1.421875 31.78125 -1.421875 
Q 19.734375 -1.421875 13.25 4.234375 
Q 6.78125 9.90625 6.78125 20.515625 
Q 6.78125 27.484375 10.78125 32.3125 
Q 14.796875 37.15625 21.921875 38.8125 
z
M 18.3125 54.390625 
Q 18.3125 48.734375 21.84375 45.5625 
Q 25.390625 42.390625 31.78125 42.390625 
Q 38.140625 42.390625 41.71875 45.5625 
Q 45.3125 48.734375 45.3125 54.390625 
Q 45.3125 60.0625 41.71875 63.234375 
Q 38.140625 66.40625 31.78125 66.40625 
Q 25.390625 66.40625 21.84375 63.234375 
Q 18.3125 60.0625 18.3125 54.390625 
z
" id="DejaVuSans-38"/>
      </defs>
      <g transform="translate(211.737208 318.195602)rotate(-30)scale(0.08 -0.08)">
       <use xlink:href="#DejaVuSans-31"/>
       <use x="63.623047" xlink:href="#DejaVuSans-38"/>
       <use x="127.246094" xlink:href="#DejaVuSans-2d"/>
       <use x="163.330078" xlink:href="#DejaVuSans-30"/>
       <use x="226.953125" xlink:href="#DejaVuSans-39"/>
       <use x="290.576172" xlink:href="#DejaVuSans-2d"/>
       <use x="326.660156" xlink:href="#DejaVuSans-32"/>
       <use x="390.283203" xlink:href="#DejaVuSans-30"/>
       <use x="453.90625" xlink:href="#DejaVuSans-31"/>
       <use x="517.529297" xlink:href="#DejaVuSans-37"/>
       <use x="581.152344" xlink:href="#DejaVuSans-20"/>
       <use x="612.939453" xlink:href="#DejaVuSans-4d"/>
       <use x="699.21875" xlink:href="#DejaVuSans-6f"/>
       <use x="760.400391" xlink:href="#DejaVuSans-6e"/>
      </g>
     </g>
    </g>
    <g id="xtick_4">
     <g id="line2d_7">
      <path clip-path="url(#p26e0fede2d)" d="M 360.167226 276.48 
L 360.167226 41.472 
" style="fill:none;stroke:#cbcbcb;"/>
     </g>
     <g id="line2d_8"/>
     <g id="text_4">
      <!-- 25-09-2017 Mon -->
      <defs>
       <path d="M 10.796875 72.90625 
L 49.515625 72.90625 
L 49.515625 64.59375 
L 19.828125 64.59375 
L 19.828125 46.734375 
Q 21.96875 47.46875 24.109375 47.828125 
Q 26.265625 48.1875 28.421875 48.1875 
Q 40.625 48.1875 47.75 41.5 
Q 54.890625 34.8125 54.890625 23.390625 
Q 54.890625 11.625 47.5625 5.09375 
Q 40.234375 -1.421875 26.90625 -1.421875 
Q 22.3125 -1.421875 17.546875 -0.640625 
Q 12.796875 0.140625 7.71875 1.703125 
L 7.71875 11.625 
Q 12.109375 9.234375 16.796875 8.0625 
Q 21.484375 6.890625 26.703125 6.890625 
Q 35.15625 6.890625 40.078125 11.328125 
Q 45.015625 15.765625 45.015625 23.390625 
Q 45.015625 31 40.078125 35.4375 
Q 35.15625 39.890625 26.703125 39.890625 
Q 22.75 39.890625 18.8125 39.015625 
Q 14.890625 38.140625 10.796875 36.28125 
z
" id="DejaVuSans-35"/>
      </defs>
      <g transform="translate(302.262112 318.195602)rotate(-30)scale(0.08 -0.08)">
       <use xlink:href="#DejaVuSans-32"/>
       <use x="63.623047" xlink:href="#DejaVuSans-35"/>
       <use x="127.246094" xlink:href="#DejaVuSans-2d"/>
       <use x="163.330078" xlink:href="#DejaVuSans-30"/>
       <use x="226.953125" xlink:href="#DejaVuSans-39"/>
       <use x="290.576172" xlink:href="#DejaVuSans-2d"/>
       <use x="326.660156" xlink:href="#DejaVuSans-32"/>
       <use x="390.283203" xlink:href="#DejaVuSans-30"/>
       <use x="453.90625" xlink:href="#DejaVuSans-31"/>
       <use x="517.529297" xlink:href="#DejaVuSans-37"/>
       <use x="581.152344" xlink:href="#DejaVuSans-20"/>
       <use x="612.939453" xlink:href="#DejaVuSans-4d"/>
       <use x="699.21875" xlink:href="#DejaVuSans-6f"/>
       <use x="760.400391" xlink:href="#DejaVuSans-6e"/>
      </g>
     </g>
    </g>
    <g id="xtick_5">
     <g id="line2d_9"/>
     <g id="text_5">
      <!-- 01 -->
      <g transform="translate(44.706129 285.95875)scale(0.08 -0.08)">
       <use xlink:href="#DejaVuSans-30"/>
       <use x="63.623047" xlink:href="#DejaVuSans-31"/>
      </g>
     </g>
    </g>
    <g id="xtick_6">
     <g id="line2d_10"/>
     <g id="text_6">
      <!-- 08 -->
      <g transform="translate(135.231032 285.95875)scale(0.08 -0.08)">
       <use xlink:href="#DejaVuSans-30"/>
       <use x="63.623047" xlink:href="#DejaVuSans-38"/>
      </g>
     </g>
    </g>
    <g id="xtick_7">
     <g id="line2d_11"/>
     <g id="text_7">
      <!-- 15 -->
      <g transform="translate(225.755935 285.95875)scale(0.08 -0.08)">
       <use xlink:href="#DejaVuSans-31"/>
       <use x="63.623047" xlink:href="#DejaVuSans-35"/>
      </g>
     </g>
    </g>
    <g id="xtick_8">
     <g id="line2d_12"/>
     <g id="text_8">
      <!-- 22 -->
      <g transform="translate(316.280839 285.95875)scale(0.08 -0.08)">
       <use xlink:href="#DejaVuSans-32"/>
       <use x="63.623047" xlink:href="#DejaVuSans-32"/>
      </g>
     </g>
    </g>
    <g id="xtick_9">
     <g id="line2d_13"/>
     <g id="text_9">
      <!-- 29 -->
      <g transform="translate(406.805742 285.95875)scale(0.08 -0.08)">
       <use xlink:href="#DejaVuSans-32"/>
       <use x="63.623047" xlink:href="#DejaVuSans-39"/>
      </g>
     </g>
    </g>
    <g id="xtick_10">
     <g id="line2d_14"/>
     <g id="text_10">
      <!-- 01 -->
      <g transform="translate(432.67 285.95875)scale(0.08 -0.08)">
       <use xlink:href="#DejaVuSans-30"/>
       <use x="63.623047" xlink:href="#DejaVuSans-31"/>
      </g>
     </g>
    </g>
    <g id="text_11">
     <!-- Date -->
     <defs>
      <path d="M 27.984375 58.6875 
L 27.984375 14.203125 
L 34.71875 14.203125 
Q 46.234375 14.203125 52.3125 19.921875 
Q 58.40625 25.640625 58.40625 36.53125 
Q 58.40625 47.359375 52.34375 53.015625 
Q 46.296875 58.6875 34.71875 58.6875 
z
M 9.1875 72.90625 
L 29 72.90625 
Q 45.609375 72.90625 53.734375 70.53125 
Q 61.859375 68.171875 67.671875 62.5 
Q 72.796875 57.5625 75.28125 51.109375 
Q 77.78125 44.671875 77.78125 36.53125 
Q 77.78125 28.265625 75.28125 21.796875 
Q 72.796875 15.328125 67.671875 10.40625 
Q 61.8125 4.734375 53.609375 2.359375 
Q 45.40625 0 29 0 
L 9.1875 0 
z
" id="DejaVuSans-Bold-44"/>
      <path d="M 32.90625 24.609375 
Q 27.4375 24.609375 24.671875 22.75 
Q 21.921875 20.90625 21.921875 17.28125 
Q 21.921875 13.96875 24.140625 12.078125 
Q 26.375 10.203125 30.328125 10.203125 
Q 35.25 10.203125 38.625 13.734375 
Q 42 17.28125 42 22.609375 
L 42 24.609375 
z
M 59.625 31.203125 
L 59.625 0 
L 42 0 
L 42 8.109375 
Q 38.484375 3.125 34.078125 0.84375 
Q 29.6875 -1.421875 23.390625 -1.421875 
Q 14.890625 -1.421875 9.59375 3.53125 
Q 4.296875 8.5 4.296875 16.40625 
Q 4.296875 26.03125 10.90625 30.515625 
Q 17.53125 35.015625 31.6875 35.015625 
L 42 35.015625 
L 42 36.375 
Q 42 40.53125 38.71875 42.453125 
Q 35.453125 44.390625 28.515625 44.390625 
Q 22.90625 44.390625 18.0625 43.265625 
Q 13.234375 42.140625 9.078125 39.890625 
L 9.078125 53.21875 
Q 14.703125 54.59375 20.359375 55.296875 
Q 26.03125 56 31.6875 56 
Q 46.484375 56 53.046875 50.171875 
Q 59.625 44.34375 59.625 31.203125 
z
" id="DejaVuSans-Bold-61"/>
      <path d="M 27.484375 70.21875 
L 27.484375 54.6875 
L 45.515625 54.6875 
L 45.515625 42.1875 
L 27.484375 42.1875 
L 27.484375 19 
Q 27.484375 15.1875 29 13.84375 
Q 30.515625 12.5 35.015625 12.5 
L 44 12.5 
L 44 0 
L 29 0 
Q 18.65625 0 14.328125 4.3125 
Q 10.015625 8.640625 10.015625 19 
L 10.015625 42.1875 
L 1.3125 42.1875 
L 1.3125 54.6875 
L 10.015625 54.6875 
L 10.015625 70.21875 
z
" id="DejaVuSans-Bold-74"/>
      <path d="M 62.984375 27.484375 
L 62.984375 22.515625 
L 22.125 22.515625 
Q 22.75 16.359375 26.5625 13.28125 
Q 30.375 10.203125 37.203125 10.203125 
Q 42.71875 10.203125 48.5 11.84375 
Q 54.296875 13.484375 60.40625 16.796875 
L 60.40625 3.328125 
Q 54.203125 0.984375 48 -0.21875 
Q 41.796875 -1.421875 35.59375 -1.421875 
Q 20.75 -1.421875 12.515625 6.125 
Q 4.296875 13.671875 4.296875 27.296875 
Q 4.296875 40.671875 12.375 48.328125 
Q 20.453125 56 34.625 56 
Q 47.515625 56 55.25 48.234375 
Q 62.984375 40.484375 62.984375 27.484375 
z
M 45.015625 33.296875 
Q 45.015625 38.28125 42.109375 41.328125 
Q 39.203125 44.390625 34.515625 44.390625 
Q 29.4375 44.390625 26.265625 41.53125 
Q 23.09375 38.671875 22.3125 33.296875 
z
" id="DejaVuSans-Bold-65"/>
     </defs>
     <g style="fill:#5c5f6d;" transform="translate(224.00575 331.234889)scale(0.1 -0.1)">
      <use xlink:href="#DejaVuSans-Bold-44"/>
      <use x="83.007812" xlink:href="#DejaVuSans-Bold-61"/>
      <use x="150.488281" xlink:href="#DejaVuSans-Bold-74"/>
      <use x="198.291016" xlink:href="#DejaVuSans-Bold-65"/>
     </g>
    </g>
   </g>
   <g id="matplotlib.axis_2">
    <g id="ytick_1">
     <g id="line2d_15">
      <path clip-path="url(#p26e0fede2d)" d="M 36.864 273.122743 
L 437.76 273.122743 
" style="fill:none;stroke:#cbcbcb;"/>
     </g>
     <g id="line2d_16"/>
     <g id="text_12">
      <!-- 2 -->
      <g transform="translate(28.274 276.162118)scale(0.08 -0.08)">
       <use xlink:href="#DejaVuSans-32"/>
      </g>
     </g>
    </g>
    <g id="ytick_2">
     <g id="line2d_17">
      <path clip-path="url(#p26e0fede2d)" d="M 36.864 246.264686 
L 437.76 246.264686 
" style="fill:none;stroke:#cbcbcb;"/>
     </g>
     <g id="line2d_18"/>
     <g id="text_13">
      <!-- 3 -->
      <defs>
       <path d="M 40.578125 39.3125 
Q 47.65625 37.796875 51.625 33 
Q 55.609375 28.21875 55.609375 21.1875 
Q 55.609375 10.40625 48.1875 4.484375 
Q 40.765625 -1.421875 27.09375 -1.421875 
Q 22.515625 -1.421875 17.65625 -0.515625 
Q 12.796875 0.390625 7.625 2.203125 
L 7.625 11.71875 
Q 11.71875 9.328125 16.59375 8.109375 
Q 21.484375 6.890625 26.8125 6.890625 
Q 36.078125 6.890625 40.9375 10.546875 
Q 45.796875 14.203125 45.796875 21.1875 
Q 45.796875 27.640625 41.28125 31.265625 
Q 36.765625 34.90625 28.71875 34.90625 
L 20.21875 34.90625 
L 20.21875 43.015625 
L 29.109375 43.015625 
Q 36.375 43.015625 40.234375 45.921875 
Q 44.09375 48.828125 44.09375 54.296875 
Q 44.09375 59.90625 40.109375 62.90625 
Q 36.140625 65.921875 28.71875 65.921875 
Q 24.65625 65.921875 20.015625 65.03125 
Q 15.375 64.15625 9.8125 62.3125 
L 9.8125 71.09375 
Q 15.4375 72.65625 20.34375 73.4375 
Q 25.25 74.21875 29.59375 74.21875 
Q 40.828125 74.21875 47.359375 69.109375 
Q 53.90625 64.015625 53.90625 55.328125 
Q 53.90625 49.265625 50.4375 45.09375 
Q 46.96875 40.921875 40.578125 39.3125 
z
" id="DejaVuSans-33"/>
      </defs>
      <g transform="translate(28.274 249.304061)scale(0.08 -0.08)">
       <use xlink:href="#DejaVuSans-33"/>
      </g>
     </g>
    </g>
    <g id="ytick_3">
     <g id="line2d_19">
      <path clip-path="url(#p26e0fede2d)" d="M 36.864 219.406629 
L 437.76 219.406629 
" style="fill:none;stroke:#cbcbcb;"/>
     </g>
     <g id="line2d_20"/>
     <g id="text_14">
      <!-- 4 -->
      <g transform="translate(28.274 222.446004)scale(0.08 -0.08)">
       <use xlink:href="#DejaVuSans-34"/>
      </g>
     </g>
    </g>
    <g id="ytick_4">
     <g id="line2d_21">
      <path clip-path="url(#p26e0fede2d)" d="M 36.864 192.548571 
L 437.76 192.548571 
" style="fill:none;stroke:#cbcbcb;"/>
     </g>
     <g id="line2d_22"/>
     <g id="text_15">
      <!-- 5 -->
      <g transform="translate(28.274 195.587946)scale(0.08 -0.08)">
       <use xlink:href="#DejaVuSans-35"/>
      </g>
     </g>
    </g>
    <g id="ytick_5">
     <g id="line2d_23">
      <path clip-path="url(#p26e0fede2d)" d="M 36.864 165.690514 
L 437.76 165.690514 
" style="fill:none;stroke:#cbcbcb;"/>
     </g>
     <g id="line2d_24"/>
     <g id="text_16">
      <!-- 6 -->
      <defs>
       <path d="M 33.015625 40.375 
Q 26.375 40.375 22.484375 35.828125 
Q 18.609375 31.296875 18.609375 23.390625 
Q 18.609375 15.53125 22.484375 10.953125 
Q 26.375 6.390625 33.015625 6.390625 
Q 39.65625 6.390625 43.53125 10.953125 
Q 47.40625 15.53125 47.40625 23.390625 
Q 47.40625 31.296875 43.53125 35.828125 
Q 39.65625 40.375 33.015625 40.375 
z
M 52.59375 71.296875 
L 52.59375 62.3125 
Q 48.875 64.0625 45.09375 64.984375 
Q 41.3125 65.921875 37.59375 65.921875 
Q 27.828125 65.921875 22.671875 59.328125 
Q 17.53125 52.734375 16.796875 39.40625 
Q 19.671875 43.65625 24.015625 45.921875 
Q 28.375 48.1875 33.59375 48.1875 
Q 44.578125 48.1875 50.953125 41.515625 
Q 57.328125 34.859375 57.328125 23.390625 
Q 57.328125 12.15625 50.6875 5.359375 
Q 44.046875 -1.421875 33.015625 -1.421875 
Q 20.359375 -1.421875 13.671875 8.265625 
Q 6.984375 17.96875 6.984375 36.375 
Q 6.984375 53.65625 15.1875 63.9375 
Q 23.390625 74.21875 37.203125 74.21875 
Q 40.921875 74.21875 44.703125 73.484375 
Q 48.484375 72.75 52.59375 71.296875 
z
" id="DejaVuSans-36"/>
      </defs>
      <g transform="translate(28.274 168.729889)scale(0.08 -0.08)">
       <use xlink:href="#DejaVuSans-36"/>
      </g>
     </g>
    </g>
    <g id="ytick_6">
     <g id="line2d_25">
      <path clip-path="url(#p26e0fede2d)" d="M 36.864 138.832457 
L 437.76 138.832457 
" style="fill:none;stroke:#cbcbcb;"/>
     </g>
     <g id="line2d_26"/>
     <g id="text_17">
      <!-- 7 -->
      <g transform="translate(28.274 141.871832)scale(0.08 -0.08)">
       <use xlink:href="#DejaVuSans-37"/>
      </g>
     </g>
    </g>
    <g id="ytick_7">
     <g id="line2d_27">
      <path clip-path="url(#p26e0fede2d)" d="M 36.864 111.9744 
L 437.76 111.9744 
" style="fill:none;stroke:#cbcbcb;"/>
     </g>
     <g id="line2d_28"/>
     <g id="text_18">
      <!-- 8 -->
      <g transform="translate(28.274 115.013775)scale(0.08 -0.08)">
       <use xlink:href="#DejaVuSans-38"/>
      </g>
     </g>
    </g>
    <g id="ytick_8">
     <g id="line2d_29">
      <path clip-path="url(#p26e0fede2d)" d="M 36.864 85.116343 
L 437.76 85.116343 
" style="fill:none;stroke:#cbcbcb;"/>
     </g>
     <g id="line2d_30"/>
     <g id="text_19">
      <!-- 9 -->
      <g transform="translate(28.274 88.155718)scale(0.08 -0.08)">
       <use xlink:href="#DejaVuSans-39"/>
      </g>
     </g>
    </g>
    <g id="ytick_9">
     <g id="line2d_31">
      <path clip-path="url(#p26e0fede2d)" d="M 36.864 58.258286 
L 437.76 58.258286 
" style="fill:none;stroke:#cbcbcb;"/>
     </g>
     <g id="line2d_32"/>
     <g id="text_20">
      <!-- 10 -->
      <g transform="translate(23.184 61.297661)scale(0.08 -0.08)">
       <use xlink:href="#DejaVuSans-31"/>
       <use x="63.623047" xlink:href="#DejaVuSans-30"/>
      </g>
     </g>
    </g>
    <g id="text_21">
     <!-- Mood -->
     <defs>
      <path d="M 9.1875 72.90625 
L 33.109375 72.90625 
L 49.703125 33.890625 
L 66.40625 72.90625 
L 90.28125 72.90625 
L 90.28125 0 
L 72.515625 0 
L 72.515625 53.328125 
L 55.71875 14.015625 
L 43.796875 14.015625 
L 27 53.328125 
L 27 0 
L 9.1875 0 
z
" id="DejaVuSans-Bold-4d"/>
      <path d="M 34.421875 43.5 
Q 28.609375 43.5 25.5625 39.328125 
Q 22.515625 35.15625 22.515625 27.296875 
Q 22.515625 19.4375 25.5625 15.25 
Q 28.609375 11.078125 34.421875 11.078125 
Q 40.140625 11.078125 43.15625 15.25 
Q 46.1875 19.4375 46.1875 27.296875 
Q 46.1875 35.15625 43.15625 39.328125 
Q 40.140625 43.5 34.421875 43.5 
z
M 34.421875 56 
Q 48.53125 56 56.46875 48.375 
Q 64.40625 40.765625 64.40625 27.296875 
Q 64.40625 13.8125 56.46875 6.1875 
Q 48.53125 -1.421875 34.421875 -1.421875 
Q 20.265625 -1.421875 12.28125 6.1875 
Q 4.296875 13.8125 4.296875 27.296875 
Q 4.296875 40.765625 12.28125 48.375 
Q 20.265625 56 34.421875 56 
z
" id="DejaVuSans-Bold-6f"/>
      <path d="M 45.609375 46.6875 
L 45.609375 75.984375 
L 63.1875 75.984375 
L 63.1875 0 
L 45.609375 0 
L 45.609375 7.90625 
Q 42 3.078125 37.640625 0.828125 
Q 33.296875 -1.421875 27.59375 -1.421875 
Q 17.484375 -1.421875 10.984375 6.609375 
Q 4.5 14.65625 4.5 27.296875 
Q 4.5 39.9375 10.984375 47.96875 
Q 17.484375 56 27.59375 56 
Q 33.25 56 37.625 53.734375 
Q 42 51.46875 45.609375 46.6875 
z
M 34.078125 11.28125 
Q 39.703125 11.28125 42.65625 15.375 
Q 45.609375 19.484375 45.609375 27.296875 
Q 45.609375 35.109375 42.65625 39.203125 
Q 39.703125 43.3125 34.078125 43.3125 
Q 28.515625 43.3125 25.5625 39.203125 
Q 22.609375 35.109375 22.609375 27.296875 
Q 22.609375 19.484375 25.5625 15.375 
Q 28.515625 11.28125 34.078125 11.28125 
z
" id="DejaVuSans-Bold-64"/>
     </defs>
     <g style="fill:#5c5f6d;" transform="translate(17.104313 174.401)rotate(-90)scale(0.1 -0.1)">
      <use xlink:href="#DejaVuSans-Bold-4d"/>
      <use x="99.511719" xlink:href="#DejaVuSans-Bold-6f"/>
      <use x="168.212891" xlink:href="#DejaVuSans-Bold-6f"/>
      <use x="236.914062" xlink:href="#DejaVuSans-Bold-64"/>
     </g>
    </g>
   </g>
   <g id="PathCollection_1">
    <defs>
     <path d="M 0 2.236068 
C 0.593012 2.236068 1.161816 2.000462 1.581139 1.581139 
C 2.000462 1.161816 2.236068 0.593012 2.236068 0 
C 2.236068 -0.593012 2.000462 -1.161816 1.581139 -1.581139 
C 1.161816 -2.000462 0.593012 -2.236068 0 -2.236068 
C -0.593012 -2.236068 -1.161816 -2.000462 -1.581139 -1.581139 
C -2.000462 -1.161816 -2.236068 -0.593012 -2.236068 0 
C -2.236068 0.593012 -2.000462 1.161816 -1.581139 1.581139 
C -1.161816 2.000462 -0.593012 2.236068 0 2.236068 
z
" id="m2921517cae" style="stroke:#4e4c67;stroke-opacity:0.8;stroke-width:0.5;"/>
    </defs>
    <g clip-path="url(#p26e0fede2d)">
     <use style="fill:#4e4c67;fill-opacity:0.8;stroke:#4e4c67;stroke-opacity:0.8;stroke-width:0.5;" x="49.796129" xlink:href="#m2921517cae" y="259.693714"/>
     <use style="fill:#4e4c67;fill-opacity:0.8;stroke:#4e4c67;stroke-opacity:0.8;stroke-width:0.5;" x="62.728258" xlink:href="#m2921517cae" y="259.693714"/>
     <use style="fill:#4e4c67;fill-opacity:0.8;stroke:#4e4c67;stroke-opacity:0.8;stroke-width:0.5;" x="75.660387" xlink:href="#m2921517cae" y="192.548571"/>
     <use style="fill:#4e4c67;fill-opacity:0.8;stroke:#4e4c67;stroke-opacity:0.8;stroke-width:0.5;" x="88.592516" xlink:href="#m2921517cae" y="125.403429"/>
     <use style="fill:#4e4c67;fill-opacity:0.8;stroke:#4e4c67;stroke-opacity:0.8;stroke-width:0.5;" x="101.524645" xlink:href="#m2921517cae" y="192.548571"/>
     <use style="fill:#4e4c67;fill-opacity:0.8;stroke:#4e4c67;stroke-opacity:0.8;stroke-width:0.5;" x="114.456774" xlink:href="#m2921517cae" y="192.548571"/>
     <use style="fill:#4e4c67;fill-opacity:0.8;stroke:#4e4c67;stroke-opacity:0.8;stroke-width:0.5;" x="127.388903" xlink:href="#m2921517cae" y="125.403429"/>
     <use style="fill:#4e4c67;fill-opacity:0.8;stroke:#4e4c67;stroke-opacity:0.8;stroke-width:0.5;" x="140.321032" xlink:href="#m2921517cae" y="125.403429"/>
     <use style="fill:#4e4c67;fill-opacity:0.8;stroke:#4e4c67;stroke-opacity:0.8;stroke-width:0.5;" x="153.253161" xlink:href="#m2921517cae" y="125.403429"/>
     <use style="fill:#4e4c67;fill-opacity:0.8;stroke:#4e4c67;stroke-opacity:0.8;stroke-width:0.5;" x="166.18529" xlink:href="#m2921517cae" y="125.403429"/>
     <use style="fill:#4e4c67;fill-opacity:0.8;stroke:#4e4c67;stroke-opacity:0.8;stroke-width:0.5;" x="179.117419" xlink:href="#m2921517cae" y="125.403429"/>
     <use style="fill:#4e4c67;fill-opacity:0.8;stroke:#4e4c67;stroke-opacity:0.8;stroke-width:0.5;" x="192.049548" xlink:href="#m2921517cae" y="58.258286"/>
     <use style="fill:#4e4c67;fill-opacity:0.8;stroke:#4e4c67;stroke-opacity:0.8;stroke-width:0.5;" x="204.981677" xlink:href="#m2921517cae" y="125.403429"/>
     <use style="fill:#4e4c67;fill-opacity:0.8;stroke:#4e4c67;stroke-opacity:0.8;stroke-width:0.5;" x="217.913806" xlink:href="#m2921517cae" y="192.548571"/>
     <use style="fill:#4e4c67;fill-opacity:0.8;stroke:#4e4c67;stroke-opacity:0.8;stroke-width:0.5;" x="230.845935" xlink:href="#m2921517cae" y="125.403429"/>
     <use style="fill:#4e4c67;fill-opacity:0.8;stroke:#4e4c67;stroke-opacity:0.8;stroke-width:0.5;" x="243.778065" xlink:href="#m2921517cae" y="125.403429"/>
     <use style="fill:#4e4c67;fill-opacity:0.8;stroke:#4e4c67;stroke-opacity:0.8;stroke-width:0.5;" x="256.710194" xlink:href="#m2921517cae" y="125.403429"/>
     <use style="fill:#4e4c67;fill-opacity:0.8;stroke:#4e4c67;stroke-opacity:0.8;stroke-width:0.5;" x="269.642323" xlink:href="#m2921517cae" y="125.403429"/>
     <use style="fill:#4e4c67;fill-opacity:0.8;stroke:#4e4c67;stroke-opacity:0.8;stroke-width:0.5;" x="282.574452" xlink:href="#m2921517cae" y="125.403429"/>
     <use style="fill:#4e4c67;fill-opacity:0.8;stroke:#4e4c67;stroke-opacity:0.8;stroke-width:0.5;" x="295.506581" xlink:href="#m2921517cae" y="125.403429"/>
     <use style="fill:#4e4c67;fill-opacity:0.8;stroke:#4e4c67;stroke-opacity:0.8;stroke-width:0.5;" x="308.43871" xlink:href="#m2921517cae" y="125.403429"/>
     <use style="fill:#4e4c67;fill-opacity:0.8;stroke:#4e4c67;stroke-opacity:0.8;stroke-width:0.5;" x="321.370839" xlink:href="#m2921517cae" y="259.693714"/>
     <use style="fill:#4e4c67;fill-opacity:0.8;stroke:#4e4c67;stroke-opacity:0.8;stroke-width:0.5;" x="334.302968" xlink:href="#m2921517cae" y="192.548571"/>
     <use style="fill:#4e4c67;fill-opacity:0.8;stroke:#4e4c67;stroke-opacity:0.8;stroke-width:0.5;" x="347.235097" xlink:href="#m2921517cae" y="58.258286"/>
     <use style="fill:#4e4c67;fill-opacity:0.8;stroke:#4e4c67;stroke-opacity:0.8;stroke-width:0.5;" x="360.167226" xlink:href="#m2921517cae" y="125.403429"/>
     <use style="fill:#4e4c67;fill-opacity:0.8;stroke:#4e4c67;stroke-opacity:0.8;stroke-width:0.5;" x="373.099355" xlink:href="#m2921517cae" y="259.693714"/>
     <use style="fill:#4e4c67;fill-opacity:0.8;stroke:#4e4c67;stroke-opacity:0.8;stroke-width:0.5;" x="386.031484" xlink:href="#m2921517cae" y="58.258286"/>
     <use style="fill:#4e4c67;fill-opacity:0.8;stroke:#4e4c67;stroke-opacity:0.8;stroke-width:0.5;" x="398.963613" xlink:href="#m2921517cae" y="259.693714"/>
     <use style="fill:#4e4c67;fill-opacity:0.8;stroke:#4e4c67;stroke-opacity:0.8;stroke-width:0.5;" x="411.895742" xlink:href="#m2921517cae" y="125.403429"/>
    </g>
   </g>
   <g id="line2d_33">
    <path clip-path="url(#p26e0fede2d)" style="fill:none;stroke:#008fd5;stroke-width:4;"/>
   </g>
   <g id="line2d_34">
    <path clip-path="url(#p26e0fede2d)" d="M 49.796129 259.693714 
L 62.728258 259.693714 
L 75.660387 192.548571 
L 88.592516 125.403429 
L 101.524645 192.548571 
L 114.456774 192.548571 
L 127.388903 125.403429 
L 140.321032 125.403429 
L 153.253161 125.403429 
L 166.18529 125.403429 
L 179.117419 125.403429 
L 192.049548 58.258286 
L 204.981677 125.403429 
L 217.913806 192.548571 
L 230.845935 125.403429 
L 243.778065 125.403429 
L 256.710194 125.403429 
L 269.642323 125.403429 
L 282.574452 125.403429 
L 295.506581 125.403429 
L 308.43871 125.403429 
L 321.370839 259.693714 
L 334.302968 192.548571 
L 347.235097 58.258286 
L 360.167226 125.403429 
L 373.099355 259.693714 
L 386.031484 58.258286 
L 398.963613 259.693714 
L 411.895742 125.403429 
" style="fill:none;opacity:0.3;stroke:#dcd6f7;stroke-width:4;"/>
   </g>
   <g id="line2d_35">
    <path clip-path="url(#p26e0fede2d)" d="M 49.796129 168.932004 
L 62.728258 167.807405 
L 75.660387 166.682807 
L 88.592516 165.558209 
L 101.524645 164.43361 
L 114.456774 163.309012 
L 127.388903 162.184413 
L 140.321032 161.059815 
L 153.253161 159.935216 
L 166.18529 158.810618 
L 179.117419 157.686019 
L 192.049548 156.561421 
L 204.981677 155.436823 
L 217.913806 154.312224 
L 230.845935 153.187626 
L 243.778065 152.063027 
L 256.710194 150.938429 
L 269.642323 149.81383 
L 282.574452 148.689232 
L 295.506581 147.564633 
L 308.43871 146.440035 
L 321.370839 145.315436 
L 334.302968 144.190838 
L 347.235097 143.06624 
L 360.167226 141.941641 
L 373.099355 140.817043 
L 386.031484 139.692444 
L 398.963613 138.567846 
L 411.895742 137.443247 
" style="fill:none;stroke:#a6b1e1;stroke-linecap:round;stroke-width:4;"/>
   </g>
   <g id="patch_3">
    <path d="M 36.864 276.48 
L 36.864 41.472 
" style="fill:none;stroke:#f0f0f0;stroke-linecap:square;stroke-linejoin:miter;stroke-width:3;"/>
   </g>
   <g id="patch_4">
    <path d="M 437.76 276.48 
L 437.76 41.472 
" style="fill:none;stroke:#f0f0f0;stroke-linecap:square;stroke-linejoin:miter;stroke-width:3;"/>
   </g>
   <g id="patch_5">
    <path d="M 36.864 276.48 
L 437.76 276.48 
" style="fill:none;stroke:#f0f0f0;stroke-linecap:square;stroke-linejoin:miter;stroke-width:3;"/>
   </g>
   <g id="patch_6">
    <path d="M 36.864 41.472 
L 437.76 41.472 
" style="fill:none;stroke:#f0f0f0;stroke-linecap:square;stroke-linejoin:miter;stroke-width:3;"/>
   </g>
   <g id="text_22">
    <!-- Mood -->
    <g style="fill:#5c5f6d;" transform="translate(209.547 35.472)scale(0.18 -0.18)">
     <use xlink:href="#DejaVuSans-Bold-4d"/>
     <use x="99.511719" xlink:href="#DejaVuSans-Bold-6f"/>
     <use x="168.212891" xlink:href="#DejaVuSans-Bold-6f"/>
     <use x="236.914062" xlink:href="#DejaVuSans-Bold-64"/>
    </g>
   </g>
  </g>
 </g>
 <defs>
  <clipPath id="p26e0fede2d">
   <rect height="235.008" width="400.896" x="36.864" y="41.472"/>
  </clipPath>
 </defs>
</svg>
