<?xml version="1.0" encoding="utf-8" standalone="no"?>
<!DOCTYPE svg PUBLIC "-//W3C//DTD SVG 1.1//EN"
  "http://www.w3.org/Graphics/SVG/1.1/DTD/svg11.dtd">
<!-- Created with matplotlib (http://matplotlib.org/) -->
<svg height="345pt" version="1.1" viewBox="0 0 460 345" width="460pt" xmlns="http://www.w3.org/2000/svg" xmlns:xlink="http://www.w3.org/1999/xlink">
 <defs>
  <style type="text/css">
*{stroke-linecap:butt;stroke-linejoin:round;}
  </style>
 </defs>
 <g id="figure_1">
  <g id="patch_1">
   <path d="M 0 345.6 
L 460.8 345.6 
L 460.8 0 
L 0 0 
z
" style="fill:#474e5d;"/>
  </g>
  <g id="axes_1">
   <g id="patch_2">
    <path d="M 36.864 321.408 
L 437.76 321.408 
L 437.76 41.472 
L 36.864 41.472 
z
" style="fill:#474e5d;"/>
   </g>
   <g id="matplotlib.axis_1">
    <g id="xtick_1">
     <g id="line2d_1">
      <path clip-path="url(#pe8446a8f14)" d="M 71.038741 321.408 
L 71.038741 41.472 
" style="fill:none;stroke:#cbcbcb;"/>
     </g>
     <g id="line2d_2"/>
     <g id="text_1">
      <!--  -->
      <g style="fill:#ffffff;" transform="translate(71.038741 330.98675)scale(0.08 -0.08)"/>
      <!-- 03 -->
      <defs>
       <path d="M 31.78125 66.40625 
Q 24.171875 66.40625 20.328125 58.90625 
Q 16.5 51.421875 16.5 36.375 
Q 16.5 21.390625 20.328125 13.890625 
Q 24.171875 6.390625 31.78125 6.390625 
Q 39.453125 6.390625 43.28125 13.890625 
Q 47.125 21.390625 47.125 36.375 
Q 47.125 51.421875 43.28125 58.90625 
Q 39.453125 66.40625 31.78125 66.40625 
z
M 31.78125 74.21875 
Q 44.046875 74.21875 50.515625 64.515625 
Q 56.984375 54.828125 56.984375 36.375 
Q 56.984375 17.96875 50.515625 8.265625 
Q 44.046875 -1.421875 31.78125 -1.421875 
Q 19.53125 -1.421875 13.0625 8.265625 
Q 6.59375 17.96875 6.59375 36.375 
Q 6.59375 54.828125 13.0625 64.515625 
Q 19.53125 74.21875 31.78125 74.21875 
z
" id="DejaVuSans-30"/>
       <path d="M 40.578125 39.3125 
Q 47.65625 37.796875 51.625 33 
Q 55.609375 28.21875 55.609375 21.1875 
Q 55.609375 10.40625 48.1875 4.484375 
Q 40.765625 -1.421875 27.09375 -1.421875 
Q 22.515625 -1.421875 17.65625 -0.515625 
Q 12.796875 0.390625 7.625 2.203125 
L 7.625 11.71875 
Q 11.71875 9.328125 16.59375 8.109375 
Q 21.484375 6.890625 26.8125 6.890625 
Q 36.078125 6.890625 40.9375 10.546875 
Q 45.796875 14.203125 45.796875 21.1875 
Q 45.796875 27.640625 41.28125 31.265625 
Q 36.765625 34.90625 28.71875 34.90625 
L 20.21875 34.90625 
L 20.21875 43.015625 
L 29.109375 43.015625 
Q 36.375 43.015625 40.234375 45.921875 
Q 44.09375 48.828125 44.09375 54.296875 
Q 44.09375 59.90625 40.109375 62.90625 
Q 36.140625 65.921875 28.71875 65.921875 
Q 24.65625 65.921875 20.015625 65.03125 
Q 15.375 64.15625 9.8125 62.3125 
L 9.8125 71.09375 
Q 15.4375 72.65625 20.34375 73.4375 
Q 25.25 74.21875 29.59375 74.21875 
Q 40.828125 74.21875 47.359375 69.109375 
Q 53.90625 64.015625 53.90625 55.328125 
Q 53.90625 49.265625 50.4375 45.09375 
Q 46.96875 40.921875 40.578125 39.3125 
z
" id="DejaVuSans-33"/>
      </defs>
      <g style="fill:#ffffff;" transform="translate(65.948741 339.945)scale(0.08 -0.08)">
       <use xlink:href="#DejaVuSans-30"/>
       <use x="63.623047" xlink:href="#DejaVuSans-33"/>
      </g>
     </g>
    </g>
    <g id="xtick_2">
     <g id="line2d_3">
      <path clip-path="url(#pe8446a8f14)" d="M 111.785548 321.408 
L 111.785548 41.472 
" style="fill:none;stroke:#cbcbcb;"/>
     </g>
     <g id="line2d_4"/>
     <g id="text_2">
      <!--  -->
      <g style="fill:#ffffff;" transform="translate(111.785548 330.98675)scale(0.08 -0.08)"/>
      <!-- 04 -->
      <defs>
       <path d="M 37.796875 64.3125 
L 12.890625 25.390625 
L 37.796875 25.390625 
z
M 35.203125 72.90625 
L 47.609375 72.90625 
L 47.609375 25.390625 
L 58.015625 25.390625 
L 58.015625 17.1875 
L 47.609375 17.1875 
L 47.609375 0 
L 37.796875 0 
L 37.796875 17.1875 
L 4.890625 17.1875 
L 4.890625 26.703125 
z
" id="DejaVuSans-34"/>
      </defs>
      <g style="fill:#ffffff;" transform="translate(106.695548 339.945)scale(0.08 -0.08)">
       <use xlink:href="#DejaVuSans-30"/>
       <use x="63.623047" xlink:href="#DejaVuSans-34"/>
      </g>
     </g>
    </g>
    <g id="xtick_3">
     <g id="line2d_5">
      <path clip-path="url(#pe8446a8f14)" d="M 151.217941 321.408 
L 151.217941 41.472 
" style="fill:none;stroke:#cbcbcb;"/>
     </g>
     <g id="line2d_6"/>
     <g id="text_3">
      <!--  -->
      <g style="fill:#ffffff;" transform="translate(151.217941 330.98675)scale(0.08 -0.08)"/>
      <!-- 05 -->
      <defs>
       <path d="M 10.796875 72.90625 
L 49.515625 72.90625 
L 49.515625 64.59375 
L 19.828125 64.59375 
L 19.828125 46.734375 
Q 21.96875 47.46875 24.109375 47.828125 
Q 26.265625 48.1875 28.421875 48.1875 
Q 40.625 48.1875 47.75 41.5 
Q 54.890625 34.8125 54.890625 23.390625 
Q 54.890625 11.625 47.5625 5.09375 
Q 40.234375 -1.421875 26.90625 -1.421875 
Q 22.3125 -1.421875 17.546875 -0.640625 
Q 12.796875 0.140625 7.71875 1.703125 
L 7.71875 11.625 
Q 12.109375 9.234375 16.796875 8.0625 
Q 21.484375 6.890625 26.703125 6.890625 
Q 35.15625 6.890625 40.078125 11.328125 
Q 45.015625 15.765625 45.015625 23.390625 
Q 45.015625 31 40.078125 35.4375 
Q 35.15625 39.890625 26.703125 39.890625 
Q 22.75 39.890625 18.8125 39.015625 
Q 14.890625 38.140625 10.796875 36.28125 
z
" id="DejaVuSans-35"/>
      </defs>
      <g style="fill:#ffffff;" transform="translate(146.127941 339.945)scale(0.08 -0.08)">
       <use xlink:href="#DejaVuSans-30"/>
       <use x="63.623047" xlink:href="#DejaVuSans-35"/>
      </g>
     </g>
    </g>
    <g id="xtick_4">
     <g id="line2d_7">
      <path clip-path="url(#pe8446a8f14)" d="M 191.964748 321.408 
L 191.964748 41.472 
" style="fill:none;stroke:#cbcbcb;"/>
     </g>
     <g id="line2d_8"/>
     <g id="text_4">
      <!--  -->
      <g style="fill:#ffffff;" transform="translate(191.964748 330.98675)scale(0.08 -0.08)"/>
      <!-- 06 -->
      <defs>
       <path d="M 33.015625 40.375 
Q 26.375 40.375 22.484375 35.828125 
Q 18.609375 31.296875 18.609375 23.390625 
Q 18.609375 15.53125 22.484375 10.953125 
Q 26.375 6.390625 33.015625 6.390625 
Q 39.65625 6.390625 43.53125 10.953125 
Q 47.40625 15.53125 47.40625 23.390625 
Q 47.40625 31.296875 43.53125 35.828125 
Q 39.65625 40.375 33.015625 40.375 
z
M 52.59375 71.296875 
L 52.59375 62.3125 
Q 48.875 64.0625 45.09375 64.984375 
Q 41.3125 65.921875 37.59375 65.921875 
Q 27.828125 65.921875 22.671875 59.328125 
Q 17.53125 52.734375 16.796875 39.40625 
Q 19.671875 43.65625 24.015625 45.921875 
Q 28.375 48.1875 33.59375 48.1875 
Q 44.578125 48.1875 50.953125 41.515625 
Q 57.328125 34.859375 57.328125 23.390625 
Q 57.328125 12.15625 50.6875 5.359375 
Q 44.046875 -1.421875 33.015625 -1.421875 
Q 20.359375 -1.421875 13.671875 8.265625 
Q 6.984375 17.96875 6.984375 36.375 
Q 6.984375 53.65625 15.1875 63.9375 
Q 23.390625 74.21875 37.203125 74.21875 
Q 40.921875 74.21875 44.703125 73.484375 
Q 48.484375 72.75 52.59375 71.296875 
z
" id="DejaVuSans-36"/>
      </defs>
      <g style="fill:#ffffff;" transform="translate(186.874748 339.945)scale(0.08 -0.08)">
       <use xlink:href="#DejaVuSans-30"/>
       <use x="63.623047" xlink:href="#DejaVuSans-36"/>
      </g>
     </g>
    </g>
    <g id="xtick_5">
     <g id="line2d_9">
      <path clip-path="url(#pe8446a8f14)" d="M 231.397141 321.408 
L 231.397141 41.472 
" style="fill:none;stroke:#cbcbcb;"/>
     </g>
     <g id="line2d_10"/>
     <g id="text_5">
      <!--  -->
      <g style="fill:#ffffff;" transform="translate(231.397141 330.98675)scale(0.08 -0.08)"/>
      <!-- 07 -->
      <defs>
       <path d="M 8.203125 72.90625 
L 55.078125 72.90625 
L 55.078125 68.703125 
L 28.609375 0 
L 18.3125 0 
L 43.21875 64.59375 
L 8.203125 64.59375 
z
" id="DejaVuSans-37"/>
      </defs>
      <g style="fill:#ffffff;" transform="translate(226.307141 339.945)scale(0.08 -0.08)">
       <use xlink:href="#DejaVuSans-30"/>
       <use x="63.623047" xlink:href="#DejaVuSans-37"/>
      </g>
     </g>
    </g>
    <g id="xtick_6">
     <g id="line2d_11">
      <path clip-path="url(#pe8446a8f14)" d="M 272.143948 321.408 
L 272.143948 41.472 
" style="fill:none;stroke:#cbcbcb;"/>
     </g>
     <g id="line2d_12"/>
     <g id="text_6">
      <!--  -->
      <g style="fill:#ffffff;" transform="translate(272.143948 330.98675)scale(0.08 -0.08)"/>
      <!-- 08 -->
      <defs>
       <path d="M 31.78125 34.625 
Q 24.75 34.625 20.71875 30.859375 
Q 16.703125 27.09375 16.703125 20.515625 
Q 16.703125 13.921875 20.71875 10.15625 
Q 24.75 6.390625 31.78125 6.390625 
Q 38.8125 6.390625 42.859375 10.171875 
Q 46.921875 13.96875 46.921875 20.515625 
Q 46.921875 27.09375 42.890625 30.859375 
Q 38.875 34.625 31.78125 34.625 
z
M 21.921875 38.8125 
Q 15.578125 40.375 12.03125 44.71875 
Q 8.5 49.078125 8.5 55.328125 
Q 8.5 64.0625 14.71875 69.140625 
Q 20.953125 74.21875 31.78125 74.21875 
Q 42.671875 74.21875 48.875 69.140625 
Q 55.078125 64.0625 55.078125 55.328125 
Q 55.078125 49.078125 51.53125 44.71875 
Q 48 40.375 41.703125 38.8125 
Q 48.828125 37.15625 52.796875 32.3125 
Q 56.78125 27.484375 56.78125 20.515625 
Q 56.78125 9.90625 50.3125 4.234375 
Q 43.84375 -1.421875 31.78125 -1.421875 
Q 19.734375 -1.421875 13.25 4.234375 
Q 6.78125 9.90625 6.78125 20.515625 
Q 6.78125 27.484375 10.78125 32.3125 
Q 14.796875 37.15625 21.921875 38.8125 
z
M 18.3125 54.390625 
Q 18.3125 48.734375 21.84375 45.5625 
Q 25.390625 42.390625 31.78125 42.390625 
Q 38.140625 42.390625 41.71875 45.5625 
Q 45.3125 48.734375 45.3125 54.390625 
Q 45.3125 60.0625 41.71875 63.234375 
Q 38.140625 66.40625 31.78125 66.40625 
Q 25.390625 66.40625 21.84375 63.234375 
Q 18.3125 60.0625 18.3125 54.390625 
z
" id="DejaVuSans-38"/>
      </defs>
      <g style="fill:#ffffff;" transform="translate(267.053948 339.945)scale(0.08 -0.08)">
       <use xlink:href="#DejaVuSans-30"/>
       <use x="63.623047" xlink:href="#DejaVuSans-38"/>
      </g>
     </g>
    </g>
    <g id="xtick_7">
     <g id="line2d_13">
      <path clip-path="url(#pe8446a8f14)" d="M 312.890754 321.408 
L 312.890754 41.472 
" style="fill:none;stroke:#cbcbcb;"/>
     </g>
     <g id="line2d_14"/>
     <g id="text_7">
      <!--  -->
      <g style="fill:#ffffff;" transform="translate(312.890754 330.98675)scale(0.08 -0.08)"/>
      <!-- 09 -->
      <defs>
       <path d="M 10.984375 1.515625 
L 10.984375 10.5 
Q 14.703125 8.734375 18.5 7.8125 
Q 22.3125 6.890625 25.984375 6.890625 
Q 35.75 6.890625 40.890625 13.453125 
Q 46.046875 20.015625 46.78125 33.40625 
Q 43.953125 29.203125 39.59375 26.953125 
Q 35.25 24.703125 29.984375 24.703125 
Q 19.046875 24.703125 12.671875 31.3125 
Q 6.296875 37.9375 6.296875 49.421875 
Q 6.296875 60.640625 12.9375 67.421875 
Q 19.578125 74.21875 30.609375 74.21875 
Q 43.265625 74.21875 49.921875 64.515625 
Q 56.59375 54.828125 56.59375 36.375 
Q 56.59375 19.140625 48.40625 8.859375 
Q 40.234375 -1.421875 26.421875 -1.421875 
Q 22.703125 -1.421875 18.890625 -0.6875 
Q 15.09375 0.046875 10.984375 1.515625 
z
M 30.609375 32.421875 
Q 37.25 32.421875 41.125 36.953125 
Q 45.015625 41.5 45.015625 49.421875 
Q 45.015625 57.28125 41.125 61.84375 
Q 37.25 66.40625 30.609375 66.40625 
Q 23.96875 66.40625 20.09375 61.84375 
Q 16.21875 57.28125 16.21875 49.421875 
Q 16.21875 41.5 20.09375 36.953125 
Q 23.96875 32.421875 30.609375 32.421875 
z
" id="DejaVuSans-39"/>
      </defs>
      <g style="fill:#ffffff;" transform="translate(307.800754 339.945)scale(0.08 -0.08)">
       <use xlink:href="#DejaVuSans-30"/>
       <use x="63.623047" xlink:href="#DejaVuSans-39"/>
      </g>
     </g>
    </g>
    <g id="xtick_8">
     <g id="line2d_15">
      <path clip-path="url(#pe8446a8f14)" d="M 352.323148 321.408 
L 352.323148 41.472 
" style="fill:none;stroke:#cbcbcb;"/>
     </g>
     <g id="line2d_16"/>
     <g id="text_8">
      <!--  -->
      <g style="fill:#ffffff;" transform="translate(352.323148 330.98675)scale(0.08 -0.08)"/>
      <!-- 10 -->
      <defs>
       <path d="M 12.40625 8.296875 
L 28.515625 8.296875 
L 28.515625 63.921875 
L 10.984375 60.40625 
L 10.984375 69.390625 
L 28.421875 72.90625 
L 38.28125 72.90625 
L 38.28125 8.296875 
L 54.390625 8.296875 
L 54.390625 0 
L 12.40625 0 
z
" id="DejaVuSans-31"/>
      </defs>
      <g style="fill:#ffffff;" transform="translate(347.233148 339.945)scale(0.08 -0.08)">
       <use xlink:href="#DejaVuSans-31"/>
       <use x="63.623047" xlink:href="#DejaVuSans-30"/>
      </g>
     </g>
    </g>
    <g id="xtick_9">
     <g id="line2d_17">
      <path clip-path="url(#pe8446a8f14)" d="M 393.069954 321.408 
L 393.069954 41.472 
" style="fill:none;stroke:#cbcbcb;"/>
     </g>
     <g id="line2d_18"/>
     <g id="text_9">
      <!--  -->
      <g style="fill:#ffffff;" transform="translate(393.069954 330.98675)scale(0.08 -0.08)"/>
      <!-- 11 -->
      <g style="fill:#ffffff;" transform="translate(387.979954 339.945)scale(0.08 -0.08)">
       <use xlink:href="#DejaVuSans-31"/>
       <use x="63.623047" xlink:href="#DejaVuSans-31"/>
      </g>
     </g>
    </g>
    <g id="xtick_10">
     <g id="line2d_19">
      <path clip-path="url(#pe8446a8f14)" d="M 432.502348 321.408 
L 432.502348 41.472 
" style="fill:none;stroke:#cbcbcb;"/>
     </g>
     <g id="line2d_20"/>
     <g id="text_10">
      <!--  -->
      <g style="fill:#ffffff;" transform="translate(432.502348 330.98675)scale(0.08 -0.08)"/>
      <!-- 12 -->
      <defs>
       <path d="M 19.1875 8.296875 
L 53.609375 8.296875 
L 53.609375 0 
L 7.328125 0 
L 7.328125 8.296875 
Q 12.9375 14.109375 22.625 23.890625 
Q 32.328125 33.6875 34.8125 36.53125 
Q 39.546875 41.84375 41.421875 45.53125 
Q 43.3125 49.21875 43.3125 52.78125 
Q 43.3125 58.59375 39.234375 62.25 
Q 35.15625 65.921875 28.609375 65.921875 
Q 23.96875 65.921875 18.8125 64.3125 
Q 13.671875 62.703125 7.8125 59.421875 
L 7.8125 69.390625 
Q 13.765625 71.78125 18.9375 73 
Q 24.125 74.21875 28.421875 74.21875 
Q 39.75 74.21875 46.484375 68.546875 
Q 53.21875 62.890625 53.21875 53.421875 
Q 53.21875 48.921875 51.53125 44.890625 
Q 49.859375 40.875 45.40625 35.40625 
Q 44.1875 33.984375 37.640625 27.21875 
Q 31.109375 20.453125 19.1875 8.296875 
z
" id="DejaVuSans-32"/>
      </defs>
      <g style="fill:#ffffff;" transform="translate(427.412348 339.945)scale(0.08 -0.08)">
       <use xlink:href="#DejaVuSans-31"/>
       <use x="63.623047" xlink:href="#DejaVuSans-32"/>
      </g>
     </g>
    </g>
    <g id="xtick_11">
     <g id="line2d_21"/>
    </g>
    <g id="xtick_12">
     <g id="line2d_22"/>
    </g>
    <g id="xtick_13">
     <g id="line2d_23"/>
    </g>
    <g id="xtick_14">
     <g id="line2d_24"/>
    </g>
    <g id="xtick_15">
     <g id="line2d_25"/>
    </g>
    <g id="xtick_16">
     <g id="line2d_26"/>
    </g>
    <g id="xtick_17">
     <g id="line2d_27"/>
    </g>
    <g id="xtick_18">
     <g id="line2d_28"/>
    </g>
    <g id="xtick_19">
     <g id="line2d_29"/>
    </g>
    <g id="xtick_20">
     <g id="line2d_30"/>
    </g>
    <g id="xtick_21">
     <g id="line2d_31"/>
    </g>
    <g id="xtick_22">
     <g id="line2d_32"/>
    </g>
    <g id="xtick_23">
     <g id="line2d_33"/>
    </g>
    <g id="xtick_24">
     <g id="line2d_34"/>
    </g>
    <g id="xtick_25">
     <g id="line2d_35"/>
    </g>
    <g id="xtick_26">
     <g id="line2d_36"/>
    </g>
    <g id="xtick_27">
     <g id="line2d_37"/>
    </g>
    <g id="xtick_28">
     <g id="line2d_38"/>
    </g>
    <g id="xtick_29">
     <g id="line2d_39"/>
    </g>
    <g id="xtick_30">
     <g id="line2d_40"/>
    </g>
    <g id="xtick_31">
     <g id="line2d_41"/>
    </g>
    <g id="xtick_32">
     <g id="line2d_42"/>
    </g>
    <g id="xtick_33">
     <g id="line2d_43"/>
    </g>
    <g id="xtick_34">
     <g id="line2d_44"/>
    </g>
    <g id="xtick_35">
     <g id="line2d_45"/>
    </g>
    <g id="xtick_36">
     <g id="line2d_46"/>
    </g>
    <g id="xtick_37">
     <g id="line2d_47"/>
    </g>
    <g id="xtick_38">
     <g id="line2d_48"/>
    </g>
    <g id="xtick_39">
     <g id="line2d_49"/>
    </g>
    <g id="xtick_40">
     <g id="line2d_50"/>
    </g>
    <g id="xtick_41">
     <g id="line2d_51"/>
    </g>
    <g id="xtick_42">
     <g id="line2d_52"/>
    </g>
    <g id="xtick_43">
     <g id="line2d_53"/>
    </g>
    <g id="xtick_44">
     <g id="line2d_54"/>
    </g>
    <g id="xtick_45">
     <g id="line2d_55"/>
    </g>
    <g id="xtick_46">
     <g id="line2d_56"/>
    </g>
    <g id="xtick_47">
     <g id="line2d_57"/>
    </g>
    <g id="xtick_48">
     <g id="line2d_58"/>
    </g>
    <g id="xtick_49">
     <g id="line2d_59"/>
    </g>
    <g id="xtick_50">
     <g id="line2d_60"/>
    </g>
    <g id="text_11">
     <!-- Date -->
     <defs>
      <path d="M 27.984375 58.6875 
L 27.984375 14.203125 
L 34.71875 14.203125 
Q 46.234375 14.203125 52.3125 19.921875 
Q 58.40625 25.640625 58.40625 36.53125 
Q 58.40625 47.359375 52.34375 53.015625 
Q 46.296875 58.6875 34.71875 58.6875 
z
M 9.1875 72.90625 
L 29 72.90625 
Q 45.609375 72.90625 53.734375 70.53125 
Q 61.859375 68.171875 67.671875 62.5 
Q 72.796875 57.5625 75.28125 51.109375 
Q 77.78125 44.671875 77.78125 36.53125 
Q 77.78125 28.265625 75.28125 21.796875 
Q 72.796875 15.328125 67.671875 10.40625 
Q 61.8125 4.734375 53.609375 2.359375 
Q 45.40625 0 29 0 
L 9.1875 0 
z
" id="DejaVuSans-Bold-44"/>
      <path d="M 32.90625 24.609375 
Q 27.4375 24.609375 24.671875 22.75 
Q 21.921875 20.90625 21.921875 17.28125 
Q 21.921875 13.96875 24.140625 12.078125 
Q 26.375 10.203125 30.328125 10.203125 
Q 35.25 10.203125 38.625 13.734375 
Q 42 17.28125 42 22.609375 
L 42 24.609375 
z
M 59.625 31.203125 
L 59.625 0 
L 42 0 
L 42 8.109375 
Q 38.484375 3.125 34.078125 0.84375 
Q 29.6875 -1.421875 23.390625 -1.421875 
Q 14.890625 -1.421875 9.59375 3.53125 
Q 4.296875 8.5 4.296875 16.40625 
Q 4.296875 26.03125 10.90625 30.515625 
Q 17.53125 35.015625 31.6875 35.015625 
L 42 35.015625 
L 42 36.375 
Q 42 40.53125 38.71875 42.453125 
Q 35.453125 44.390625 28.515625 44.390625 
Q 22.90625 44.390625 18.0625 43.265625 
Q 13.234375 42.140625 9.078125 39.890625 
L 9.078125 53.21875 
Q 14.703125 54.59375 20.359375 55.296875 
Q 26.03125 56 31.6875 56 
Q 46.484375 56 53.046875 50.171875 
Q 59.625 44.34375 59.625 31.203125 
z
" id="DejaVuSans-Bold-61"/>
      <path d="M 27.484375 70.21875 
L 27.484375 54.6875 
L 45.515625 54.6875 
L 45.515625 42.1875 
L 27.484375 42.1875 
L 27.484375 19 
Q 27.484375 15.1875 29 13.84375 
Q 30.515625 12.5 35.015625 12.5 
L 44 12.5 
L 44 0 
L 29 0 
Q 18.65625 0 14.328125 4.3125 
Q 10.015625 8.640625 10.015625 19 
L 10.015625 42.1875 
L 1.3125 42.1875 
L 1.3125 54.6875 
L 10.015625 54.6875 
L 10.015625 70.21875 
z
" id="DejaVuSans-Bold-74"/>
      <path d="M 62.984375 27.484375 
L 62.984375 22.515625 
L 22.125 22.515625 
Q 22.75 16.359375 26.5625 13.28125 
Q 30.375 10.203125 37.203125 10.203125 
Q 42.71875 10.203125 48.5 11.84375 
Q 54.296875 13.484375 60.40625 16.796875 
L 60.40625 3.328125 
Q 54.203125 0.984375 48 -0.21875 
Q 41.796875 -1.421875 35.59375 -1.421875 
Q 20.75 -1.421875 12.515625 6.125 
Q 4.296875 13.671875 4.296875 27.296875 
Q 4.296875 40.671875 12.375 48.328125 
Q 20.453125 56 34.625 56 
Q 47.515625 56 55.25 48.234375 
Q 62.984375 40.484375 62.984375 27.484375 
z
M 45.015625 33.296875 
Q 45.015625 38.28125 42.109375 41.328125 
Q 39.203125 44.390625 34.515625 44.390625 
Q 29.4375 44.390625 26.265625 41.53125 
Q 23.09375 38.671875 22.3125 33.296875 
z
" id="DejaVuSans-Bold-65"/>
     </defs>
     <g style="fill:#ffffff;" transform="translate(224.00575 353.207187)scale(0.1 -0.1)">
      <use xlink:href="#DejaVuSans-Bold-44"/>
      <use x="83.007812" xlink:href="#DejaVuSans-Bold-61"/>
      <use x="150.488281" xlink:href="#DejaVuSans-Bold-74"/>
      <use x="198.291016" xlink:href="#DejaVuSans-Bold-65"/>
     </g>
    </g>
   </g>
   <g id="matplotlib.axis_2">
    <g id="ytick_1">
     <g id="line2d_61">
      <path clip-path="url(#pe8446a8f14)" d="M 36.864 308.683636 
L 437.76 308.683636 
" style="fill:none;stroke:#cbcbcb;"/>
     </g>
     <g id="line2d_62"/>
     <g id="text_12">
      <!-- 0 -->
      <g style="fill:#ffffff;" transform="translate(28.274 311.723011)scale(0.08 -0.08)">
       <use xlink:href="#DejaVuSans-30"/>
      </g>
     </g>
    </g>
    <g id="ytick_2">
     <g id="line2d_63">
      <path clip-path="url(#pe8446a8f14)" d="M 36.864 261.556364 
L 437.76 261.556364 
" style="fill:none;stroke:#cbcbcb;"/>
     </g>
     <g id="line2d_64"/>
     <g id="text_13">
      <!-- 5 -->
      <g style="fill:#ffffff;" transform="translate(28.274 264.595739)scale(0.08 -0.08)">
       <use xlink:href="#DejaVuSans-35"/>
      </g>
     </g>
    </g>
    <g id="ytick_3">
     <g id="line2d_65">
      <path clip-path="url(#pe8446a8f14)" d="M 36.864 214.429091 
L 437.76 214.429091 
" style="fill:none;stroke:#cbcbcb;"/>
     </g>
     <g id="line2d_66"/>
     <g id="text_14">
      <!-- 10 -->
      <g style="fill:#ffffff;" transform="translate(23.184 217.468466)scale(0.08 -0.08)">
       <use xlink:href="#DejaVuSans-31"/>
       <use x="63.623047" xlink:href="#DejaVuSans-30"/>
      </g>
     </g>
    </g>
    <g id="ytick_4">
     <g id="line2d_67">
      <path clip-path="url(#pe8446a8f14)" d="M 36.864 167.301818 
L 437.76 167.301818 
" style="fill:none;stroke:#cbcbcb;"/>
     </g>
     <g id="line2d_68"/>
     <g id="text_15">
      <!-- 15 -->
      <g style="fill:#ffffff;" transform="translate(23.184 170.341193)scale(0.08 -0.08)">
       <use xlink:href="#DejaVuSans-31"/>
       <use x="63.623047" xlink:href="#DejaVuSans-35"/>
      </g>
     </g>
    </g>
    <g id="ytick_5">
     <g id="line2d_69">
      <path clip-path="url(#pe8446a8f14)" d="M 36.864 120.174545 
L 437.76 120.174545 
" style="fill:none;stroke:#cbcbcb;"/>
     </g>
     <g id="line2d_70"/>
     <g id="text_16">
      <!-- 20 -->
      <g style="fill:#ffffff;" transform="translate(23.184 123.21392)scale(0.08 -0.08)">
       <use xlink:href="#DejaVuSans-32"/>
       <use x="63.623047" xlink:href="#DejaVuSans-30"/>
      </g>
     </g>
    </g>
    <g id="ytick_6">
     <g id="line2d_71">
      <path clip-path="url(#pe8446a8f14)" d="M 36.864 73.047273 
L 437.76 73.047273 
" style="fill:none;stroke:#cbcbcb;"/>
     </g>
     <g id="line2d_72"/>
     <g id="text_17">
      <!-- 25 -->
      <g style="fill:#ffffff;" transform="translate(23.184 76.086648)scale(0.08 -0.08)">
       <use xlink:href="#DejaVuSans-32"/>
       <use x="63.623047" xlink:href="#DejaVuSans-35"/>
      </g>
     </g>
    </g>
    <g id="text_18">
     <!-- Pomo Total -->
     <defs>
      <path d="M 9.1875 72.90625 
L 40.375 72.90625 
Q 54.296875 72.90625 61.734375 66.71875 
Q 69.1875 60.546875 69.1875 49.125 
Q 69.1875 37.640625 61.734375 31.46875 
Q 54.296875 25.296875 40.375 25.296875 
L 27.984375 25.296875 
L 27.984375 0 
L 9.1875 0 
z
M 27.984375 59.28125 
L 27.984375 38.921875 
L 38.375 38.921875 
Q 43.84375 38.921875 46.828125 41.578125 
Q 49.8125 44.234375 49.8125 49.125 
Q 49.8125 54 46.828125 56.640625 
Q 43.84375 59.28125 38.375 59.28125 
z
" id="DejaVuSans-Bold-50"/>
      <path d="M 34.421875 43.5 
Q 28.609375 43.5 25.5625 39.328125 
Q 22.515625 35.15625 22.515625 27.296875 
Q 22.515625 19.4375 25.5625 15.25 
Q 28.609375 11.078125 34.421875 11.078125 
Q 40.140625 11.078125 43.15625 15.25 
Q 46.1875 19.4375 46.1875 27.296875 
Q 46.1875 35.15625 43.15625 39.328125 
Q 40.140625 43.5 34.421875 43.5 
z
M 34.421875 56 
Q 48.53125 56 56.46875 48.375 
Q 64.40625 40.765625 64.40625 27.296875 
Q 64.40625 13.8125 56.46875 6.1875 
Q 48.53125 -1.421875 34.421875 -1.421875 
Q 20.265625 -1.421875 12.28125 6.1875 
Q 4.296875 13.8125 4.296875 27.296875 
Q 4.296875 40.765625 12.28125 48.375 
Q 20.265625 56 34.421875 56 
z
" id="DejaVuSans-Bold-6f"/>
      <path d="M 59.078125 45.609375 
Q 62.40625 50.6875 66.96875 53.34375 
Q 71.53125 56 77 56 
Q 86.421875 56 91.359375 50.1875 
Q 96.296875 44.390625 96.296875 33.296875 
L 96.296875 0 
L 78.71875 0 
L 78.71875 28.515625 
Q 78.765625 29.15625 78.78125 29.828125 
Q 78.8125 30.515625 78.8125 31.78125 
Q 78.8125 37.59375 77.09375 40.203125 
Q 75.390625 42.828125 71.578125 42.828125 
Q 66.609375 42.828125 63.890625 38.71875 
Q 61.1875 34.625 61.078125 26.859375 
L 61.078125 0 
L 43.5 0 
L 43.5 28.515625 
Q 43.5 37.59375 41.9375 40.203125 
Q 40.375 42.828125 36.375 42.828125 
Q 31.34375 42.828125 28.609375 38.703125 
Q 25.875 34.578125 25.875 26.90625 
L 25.875 0 
L 8.296875 0 
L 8.296875 54.6875 
L 25.875 54.6875 
L 25.875 46.6875 
Q 29.109375 51.3125 33.28125 53.65625 
Q 37.453125 56 42.484375 56 
Q 48.140625 56 52.484375 53.265625 
Q 56.84375 50.53125 59.078125 45.609375 
z
" id="DejaVuSans-Bold-6d"/>
      <path id="DejaVuSans-Bold-20"/>
      <path d="M 0.484375 72.90625 
L 67.671875 72.90625 
L 67.671875 58.6875 
L 43.5 58.6875 
L 43.5 0 
L 24.703125 0 
L 24.703125 58.6875 
L 0.484375 58.6875 
z
" id="DejaVuSans-Bold-54"/>
      <path d="M 8.40625 75.984375 
L 25.875 75.984375 
L 25.875 0 
L 8.40625 0 
z
" id="DejaVuSans-Bold-6c"/>
     </defs>
     <g style="fill:#ffffff;" transform="translate(17.104313 213.24)rotate(-90)scale(0.1 -0.1)">
      <use xlink:href="#DejaVuSans-Bold-50"/>
      <use x="73.291016" xlink:href="#DejaVuSans-Bold-6f"/>
      <use x="141.992188" xlink:href="#DejaVuSans-Bold-6d"/>
      <use x="246.191406" xlink:href="#DejaVuSans-Bold-6f"/>
      <use x="314.892578" xlink:href="#DejaVuSans-Bold-20"/>
      <use x="349.707031" xlink:href="#DejaVuSans-Bold-54"/>
      <use x="417.716797" xlink:href="#DejaVuSans-Bold-6f"/>
      <use x="486.417969" xlink:href="#DejaVuSans-Bold-74"/>
      <use x="534.220703" xlink:href="#DejaVuSans-Bold-61"/>
      <use x="601.701172" xlink:href="#DejaVuSans-Bold-6c"/>
     </g>
    </g>
   </g>
   <g id="PathCollection_1">
    <defs>
     <path d="M 0 0.707107 
C 0.187527 0.707107 0.367398 0.632602 0.5 0.5 
C 0.632602 0.367398 0.707107 0.187527 0.707107 0 
C 0.707107 -0.187527 0.632602 -0.367398 0.5 -0.5 
C 0.367398 -0.632602 0.187527 -0.707107 0 -0.707107 
C -0.187527 -0.707107 -0.367398 -0.632602 -0.5 -0.5 
C -0.632602 -0.367398 -0.707107 -0.187527 -0.707107 0 
C -0.707107 0.187527 -0.632602 0.367398 -0.5 0.5 
C -0.367398 0.632602 -0.187527 0.707107 0 0.707107 
z
" id="m5c78008313" style="stroke:#dcd6f7;stroke-opacity:0.8;stroke-width:0.5;"/>
    </defs>
    <g clip-path="url(#pe8446a8f14)">
     <use style="fill:#dcd6f7;fill-opacity:0.8;stroke:#dcd6f7;stroke-opacity:0.8;stroke-width:0.5;" x="124.929679" xlink:href="#m5c78008313" y="242.705455"/>
     <use style="fill:#dcd6f7;fill-opacity:0.8;stroke:#dcd6f7;stroke-opacity:0.8;stroke-width:0.5;" x="126.244092" xlink:href="#m5c78008313" y="186.152727"/>
     <use style="fill:#dcd6f7;fill-opacity:0.8;stroke:#dcd6f7;stroke-opacity:0.8;stroke-width:0.5;" x="127.558505" xlink:href="#m5c78008313" y="233.28"/>
     <use style="fill:#dcd6f7;fill-opacity:0.8;stroke:#dcd6f7;stroke-opacity:0.8;stroke-width:0.5;" x="128.872918" xlink:href="#m5c78008313" y="261.556364"/>
     <use style="fill:#dcd6f7;fill-opacity:0.8;stroke:#dcd6f7;stroke-opacity:0.8;stroke-width:0.5;" x="132.816157" xlink:href="#m5c78008313" y="167.301818"/>
     <use style="fill:#dcd6f7;fill-opacity:0.8;stroke:#dcd6f7;stroke-opacity:0.8;stroke-width:0.5;" x="134.13057" xlink:href="#m5c78008313" y="186.152727"/>
     <use style="fill:#dcd6f7;fill-opacity:0.8;stroke:#dcd6f7;stroke-opacity:0.8;stroke-width:0.5;" x="135.444984" xlink:href="#m5c78008313" y="139.025455"/>
     <use style="fill:#dcd6f7;fill-opacity:0.8;stroke:#dcd6f7;stroke-opacity:0.8;stroke-width:0.5;" x="136.759397" xlink:href="#m5c78008313" y="205.003636"/>
     <use style="fill:#dcd6f7;fill-opacity:0.8;stroke:#dcd6f7;stroke-opacity:0.8;stroke-width:0.5;" x="138.07381" xlink:href="#m5c78008313" y="214.429091"/>
     <use style="fill:#dcd6f7;fill-opacity:0.8;stroke:#dcd6f7;stroke-opacity:0.8;stroke-width:0.5;" x="143.331462" xlink:href="#m5c78008313" y="167.301818"/>
     <use style="fill:#dcd6f7;fill-opacity:0.8;stroke:#dcd6f7;stroke-opacity:0.8;stroke-width:0.5;" x="144.645875" xlink:href="#m5c78008313" y="148.450909"/>
     <use style="fill:#dcd6f7;fill-opacity:0.8;stroke:#dcd6f7;stroke-opacity:0.8;stroke-width:0.5;" x="145.960289" xlink:href="#m5c78008313" y="195.578182"/>
     <use style="fill:#dcd6f7;fill-opacity:0.8;stroke:#dcd6f7;stroke-opacity:0.8;stroke-width:0.5;" x="147.274702" xlink:href="#m5c78008313" y="280.407273"/>
     <use style="fill:#dcd6f7;fill-opacity:0.8;stroke:#dcd6f7;stroke-opacity:0.8;stroke-width:0.5;" x="161.733246" xlink:href="#m5c78008313" y="242.705455"/>
     <use style="fill:#dcd6f7;fill-opacity:0.8;stroke:#dcd6f7;stroke-opacity:0.8;stroke-width:0.5;" x="163.047659" xlink:href="#m5c78008313" y="186.152727"/>
     <use style="fill:#dcd6f7;fill-opacity:0.8;stroke:#dcd6f7;stroke-opacity:0.8;stroke-width:0.5;" x="164.362072" xlink:href="#m5c78008313" y="242.705455"/>
     <use style="fill:#dcd6f7;fill-opacity:0.8;stroke:#dcd6f7;stroke-opacity:0.8;stroke-width:0.5;" x="165.676485" xlink:href="#m5c78008313" y="223.854545"/>
     <use style="fill:#dcd6f7;fill-opacity:0.8;stroke:#dcd6f7;stroke-opacity:0.8;stroke-width:0.5;" x="169.619725" xlink:href="#m5c78008313" y="195.578182"/>
     <use style="fill:#dcd6f7;fill-opacity:0.8;stroke:#dcd6f7;stroke-opacity:0.8;stroke-width:0.5;" x="170.934138" xlink:href="#m5c78008313" y="252.130909"/>
     <use style="fill:#dcd6f7;fill-opacity:0.8;stroke:#dcd6f7;stroke-opacity:0.8;stroke-width:0.5;" x="173.562964" xlink:href="#m5c78008313" y="205.003636"/>
     <use style="fill:#dcd6f7;fill-opacity:0.8;stroke:#dcd6f7;stroke-opacity:0.8;stroke-width:0.5;" x="174.877377" xlink:href="#m5c78008313" y="186.152727"/>
     <use style="fill:#dcd6f7;fill-opacity:0.8;stroke:#dcd6f7;stroke-opacity:0.8;stroke-width:0.5;" x="177.506203" xlink:href="#m5c78008313" y="308.683636"/>
     <use style="fill:#dcd6f7;fill-opacity:0.8;stroke:#dcd6f7;stroke-opacity:0.8;stroke-width:0.5;" x="178.820616" xlink:href="#m5c78008313" y="176.727273"/>
     <use style="fill:#dcd6f7;fill-opacity:0.8;stroke:#dcd6f7;stroke-opacity:0.8;stroke-width:0.5;" x="180.13503" xlink:href="#m5c78008313" y="148.450909"/>
     <use style="fill:#dcd6f7;fill-opacity:0.8;stroke:#dcd6f7;stroke-opacity:0.8;stroke-width:0.5;" x="181.449443" xlink:href="#m5c78008313" y="73.047273"/>
     <use style="fill:#dcd6f7;fill-opacity:0.8;stroke:#dcd6f7;stroke-opacity:0.8;stroke-width:0.5;" x="182.763856" xlink:href="#m5c78008313" y="252.130909"/>
     <use style="fill:#dcd6f7;fill-opacity:0.8;stroke:#dcd6f7;stroke-opacity:0.8;stroke-width:0.5;" x="188.021508" xlink:href="#m5c78008313" y="129.6"/>
     <use style="fill:#dcd6f7;fill-opacity:0.8;stroke:#dcd6f7;stroke-opacity:0.8;stroke-width:0.5;" x="189.335921" xlink:href="#m5c78008313" y="186.152727"/>
     <use style="fill:#dcd6f7;fill-opacity:0.8;stroke:#dcd6f7;stroke-opacity:0.8;stroke-width:0.5;" x="190.650334" xlink:href="#m5c78008313" y="176.727273"/>
     <use style="fill:#dcd6f7;fill-opacity:0.8;stroke:#dcd6f7;stroke-opacity:0.8;stroke-width:0.5;" x="191.964748" xlink:href="#m5c78008313" y="299.258182"/>
     <use style="fill:#dcd6f7;fill-opacity:0.8;stroke:#dcd6f7;stroke-opacity:0.8;stroke-width:0.5;" x="193.279161" xlink:href="#m5c78008313" y="270.981818"/>
     <use style="fill:#dcd6f7;fill-opacity:0.8;stroke:#dcd6f7;stroke-opacity:0.8;stroke-width:0.5;" x="197.2224" xlink:href="#m5c78008313" y="91.898182"/>
     <use style="fill:#dcd6f7;fill-opacity:0.8;stroke:#dcd6f7;stroke-opacity:0.8;stroke-width:0.5;" x="198.536813" xlink:href="#m5c78008313" y="157.876364"/>
     <use style="fill:#dcd6f7;fill-opacity:0.8;stroke:#dcd6f7;stroke-opacity:0.8;stroke-width:0.5;" x="199.851226" xlink:href="#m5c78008313" y="167.301818"/>
     <use style="fill:#dcd6f7;fill-opacity:0.8;stroke:#dcd6f7;stroke-opacity:0.8;stroke-width:0.5;" x="201.165639" xlink:href="#m5c78008313" y="167.301818"/>
     <use style="fill:#dcd6f7;fill-opacity:0.8;stroke:#dcd6f7;stroke-opacity:0.8;stroke-width:0.5;" x="202.480052" xlink:href="#m5c78008313" y="299.258182"/>
     <use style="fill:#dcd6f7;fill-opacity:0.8;stroke:#dcd6f7;stroke-opacity:0.8;stroke-width:0.5;" x="206.423292" xlink:href="#m5c78008313" y="54.196364"/>
     <use style="fill:#dcd6f7;fill-opacity:0.8;stroke:#dcd6f7;stroke-opacity:0.8;stroke-width:0.5;" x="207.737705" xlink:href="#m5c78008313" y="223.854545"/>
     <use style="fill:#dcd6f7;fill-opacity:0.8;stroke:#dcd6f7;stroke-opacity:0.8;stroke-width:0.5;" x="209.052118" xlink:href="#m5c78008313" y="223.854545"/>
     <use style="fill:#dcd6f7;fill-opacity:0.8;stroke:#dcd6f7;stroke-opacity:0.8;stroke-width:0.5;" x="210.366531" xlink:href="#m5c78008313" y="157.876364"/>
     <use style="fill:#dcd6f7;fill-opacity:0.8;stroke:#dcd6f7;stroke-opacity:0.8;stroke-width:0.5;" x="211.680944" xlink:href="#m5c78008313" y="205.003636"/>
     <use style="fill:#dcd6f7;fill-opacity:0.8;stroke:#dcd6f7;stroke-opacity:0.8;stroke-width:0.5;" x="212.995357" xlink:href="#m5c78008313" y="167.301818"/>
     <use style="fill:#dcd6f7;fill-opacity:0.8;stroke:#dcd6f7;stroke-opacity:0.8;stroke-width:0.5;" x="215.624184" xlink:href="#m5c78008313" y="167.301818"/>
     <use style="fill:#dcd6f7;fill-opacity:0.8;stroke:#dcd6f7;stroke-opacity:0.8;stroke-width:0.5;" x="218.25301" xlink:href="#m5c78008313" y="157.876364"/>
     <use style="fill:#dcd6f7;fill-opacity:0.8;stroke:#dcd6f7;stroke-opacity:0.8;stroke-width:0.5;" x="219.567423" xlink:href="#m5c78008313" y="233.28"/>
     <use style="fill:#dcd6f7;fill-opacity:0.8;stroke:#dcd6f7;stroke-opacity:0.8;stroke-width:0.5;" x="224.825075" xlink:href="#m5c78008313" y="214.429091"/>
     <use style="fill:#dcd6f7;fill-opacity:0.8;stroke:#dcd6f7;stroke-opacity:0.8;stroke-width:0.5;" x="226.139489" xlink:href="#m5c78008313" y="242.705455"/>
     <use style="fill:#dcd6f7;fill-opacity:0.8;stroke:#dcd6f7;stroke-opacity:0.8;stroke-width:0.5;" x="227.453902" xlink:href="#m5c78008313" y="308.683636"/>
     <use style="fill:#dcd6f7;fill-opacity:0.8;stroke:#dcd6f7;stroke-opacity:0.8;stroke-width:0.5;" x="230.082728" xlink:href="#m5c78008313" y="289.832727"/>
     <use style="fill:#dcd6f7;fill-opacity:0.8;stroke:#dcd6f7;stroke-opacity:0.8;stroke-width:0.5;" x="234.025967" xlink:href="#m5c78008313" y="186.152727"/>
     <use style="fill:#dcd6f7;fill-opacity:0.8;stroke:#dcd6f7;stroke-opacity:0.8;stroke-width:0.5;" x="235.34038" xlink:href="#m5c78008313" y="176.727273"/>
     <use style="fill:#dcd6f7;fill-opacity:0.8;stroke:#dcd6f7;stroke-opacity:0.8;stroke-width:0.5;" x="236.654793" xlink:href="#m5c78008313" y="148.450909"/>
     <use style="fill:#dcd6f7;fill-opacity:0.8;stroke:#dcd6f7;stroke-opacity:0.8;stroke-width:0.5;" x="237.969207" xlink:href="#m5c78008313" y="214.429091"/>
     <use style="fill:#dcd6f7;fill-opacity:0.8;stroke:#dcd6f7;stroke-opacity:0.8;stroke-width:0.5;" x="239.28362" xlink:href="#m5c78008313" y="186.152727"/>
     <use style="fill:#dcd6f7;fill-opacity:0.8;stroke:#dcd6f7;stroke-opacity:0.8;stroke-width:0.5;" x="243.226859" xlink:href="#m5c78008313" y="176.727273"/>
     <use style="fill:#dcd6f7;fill-opacity:0.8;stroke:#dcd6f7;stroke-opacity:0.8;stroke-width:0.5;" x="244.541272" xlink:href="#m5c78008313" y="157.876364"/>
     <use style="fill:#dcd6f7;fill-opacity:0.8;stroke:#dcd6f7;stroke-opacity:0.8;stroke-width:0.5;" x="245.855685" xlink:href="#m5c78008313" y="214.429091"/>
     <use style="fill:#dcd6f7;fill-opacity:0.8;stroke:#dcd6f7;stroke-opacity:0.8;stroke-width:0.5;" x="247.170098" xlink:href="#m5c78008313" y="205.003636"/>
     <use style="fill:#dcd6f7;fill-opacity:0.8;stroke:#dcd6f7;stroke-opacity:0.8;stroke-width:0.5;" x="248.484511" xlink:href="#m5c78008313" y="223.854545"/>
     <use style="fill:#dcd6f7;fill-opacity:0.8;stroke:#dcd6f7;stroke-opacity:0.8;stroke-width:0.5;" x="252.427751" xlink:href="#m5c78008313" y="148.450909"/>
     <use style="fill:#dcd6f7;fill-opacity:0.8;stroke:#dcd6f7;stroke-opacity:0.8;stroke-width:0.5;" x="253.742164" xlink:href="#m5c78008313" y="186.152727"/>
     <use style="fill:#dcd6f7;fill-opacity:0.8;stroke:#dcd6f7;stroke-opacity:0.8;stroke-width:0.5;" x="255.056577" xlink:href="#m5c78008313" y="176.727273"/>
     <use style="fill:#dcd6f7;fill-opacity:0.8;stroke:#dcd6f7;stroke-opacity:0.8;stroke-width:0.5;" x="256.37099" xlink:href="#m5c78008313" y="195.578182"/>
     <use style="fill:#dcd6f7;fill-opacity:0.8;stroke:#dcd6f7;stroke-opacity:0.8;stroke-width:0.5;" x="257.685403" xlink:href="#m5c78008313" y="186.152727"/>
     <use style="fill:#dcd6f7;fill-opacity:0.8;stroke:#dcd6f7;stroke-opacity:0.8;stroke-width:0.5;" x="261.628643" xlink:href="#m5c78008313" y="167.301818"/>
     <use style="fill:#dcd6f7;fill-opacity:0.8;stroke:#dcd6f7;stroke-opacity:0.8;stroke-width:0.5;" x="262.943056" xlink:href="#m5c78008313" y="157.876364"/>
     <use style="fill:#dcd6f7;fill-opacity:0.8;stroke:#dcd6f7;stroke-opacity:0.8;stroke-width:0.5;" x="264.257469" xlink:href="#m5c78008313" y="157.876364"/>
     <use style="fill:#dcd6f7;fill-opacity:0.8;stroke:#dcd6f7;stroke-opacity:0.8;stroke-width:0.5;" x="265.571882" xlink:href="#m5c78008313" y="129.6"/>
     <use style="fill:#dcd6f7;fill-opacity:0.8;stroke:#dcd6f7;stroke-opacity:0.8;stroke-width:0.5;" x="266.886295" xlink:href="#m5c78008313" y="205.003636"/>
     <use style="fill:#dcd6f7;fill-opacity:0.8;stroke:#dcd6f7;stroke-opacity:0.8;stroke-width:0.5;" x="270.829534" xlink:href="#m5c78008313" y="176.727273"/>
     <use style="fill:#dcd6f7;fill-opacity:0.8;stroke:#dcd6f7;stroke-opacity:0.8;stroke-width:0.5;" x="272.143948" xlink:href="#m5c78008313" y="148.450909"/>
     <use style="fill:#dcd6f7;fill-opacity:0.8;stroke:#dcd6f7;stroke-opacity:0.8;stroke-width:0.5;" x="273.458361" xlink:href="#m5c78008313" y="157.876364"/>
     <use style="fill:#dcd6f7;fill-opacity:0.8;stroke:#dcd6f7;stroke-opacity:0.8;stroke-width:0.5;" x="274.772774" xlink:href="#m5c78008313" y="148.450909"/>
     <use style="fill:#dcd6f7;fill-opacity:0.8;stroke:#dcd6f7;stroke-opacity:0.8;stroke-width:0.5;" x="276.087187" xlink:href="#m5c78008313" y="167.301818"/>
     <use style="fill:#dcd6f7;fill-opacity:0.8;stroke:#dcd6f7;stroke-opacity:0.8;stroke-width:0.5;" x="280.030426" xlink:href="#m5c78008313" y="101.323636"/>
     <use style="fill:#dcd6f7;fill-opacity:0.8;stroke:#dcd6f7;stroke-opacity:0.8;stroke-width:0.5;" x="281.344839" xlink:href="#m5c78008313" y="167.301818"/>
     <use style="fill:#dcd6f7;fill-opacity:0.8;stroke:#dcd6f7;stroke-opacity:0.8;stroke-width:0.5;" x="282.659252" xlink:href="#m5c78008313" y="167.301818"/>
     <use style="fill:#dcd6f7;fill-opacity:0.8;stroke:#dcd6f7;stroke-opacity:0.8;stroke-width:0.5;" x="283.973666" xlink:href="#m5c78008313" y="242.705455"/>
     <use style="fill:#dcd6f7;fill-opacity:0.8;stroke:#dcd6f7;stroke-opacity:0.8;stroke-width:0.5;" x="285.288079" xlink:href="#m5c78008313" y="252.130909"/>
     <use style="fill:#dcd6f7;fill-opacity:0.8;stroke:#dcd6f7;stroke-opacity:0.8;stroke-width:0.5;" x="287.916905" xlink:href="#m5c78008313" y="195.578182"/>
     <use style="fill:#dcd6f7;fill-opacity:0.8;stroke:#dcd6f7;stroke-opacity:0.8;stroke-width:0.5;" x="289.231318" xlink:href="#m5c78008313" y="73.047273"/>
     <use style="fill:#dcd6f7;fill-opacity:0.8;stroke:#dcd6f7;stroke-opacity:0.8;stroke-width:0.5;" x="290.545731" xlink:href="#m5c78008313" y="186.152727"/>
     <use style="fill:#dcd6f7;fill-opacity:0.8;stroke:#dcd6f7;stroke-opacity:0.8;stroke-width:0.5;" x="291.860144" xlink:href="#m5c78008313" y="129.6"/>
     <use style="fill:#dcd6f7;fill-opacity:0.8;stroke:#dcd6f7;stroke-opacity:0.8;stroke-width:0.5;" x="293.174557" xlink:href="#m5c78008313" y="186.152727"/>
     <use style="fill:#dcd6f7;fill-opacity:0.8;stroke:#dcd6f7;stroke-opacity:0.8;stroke-width:0.5;" x="294.48897" xlink:href="#m5c78008313" y="223.854545"/>
     <use style="fill:#dcd6f7;fill-opacity:0.8;stroke:#dcd6f7;stroke-opacity:0.8;stroke-width:0.5;" x="298.43221" xlink:href="#m5c78008313" y="110.749091"/>
     <use style="fill:#dcd6f7;fill-opacity:0.8;stroke:#dcd6f7;stroke-opacity:0.8;stroke-width:0.5;" x="299.746623" xlink:href="#m5c78008313" y="176.727273"/>
     <use style="fill:#dcd6f7;fill-opacity:0.8;stroke:#dcd6f7;stroke-opacity:0.8;stroke-width:0.5;" x="301.061036" xlink:href="#m5c78008313" y="82.472727"/>
     <use style="fill:#dcd6f7;fill-opacity:0.8;stroke:#dcd6f7;stroke-opacity:0.8;stroke-width:0.5;" x="302.375449" xlink:href="#m5c78008313" y="167.301818"/>
     <use style="fill:#dcd6f7;fill-opacity:0.8;stroke:#dcd6f7;stroke-opacity:0.8;stroke-width:0.5;" x="303.689862" xlink:href="#m5c78008313" y="195.578182"/>
     <use style="fill:#dcd6f7;fill-opacity:0.8;stroke:#dcd6f7;stroke-opacity:0.8;stroke-width:0.5;" x="307.633102" xlink:href="#m5c78008313" y="110.749091"/>
     <use style="fill:#dcd6f7;fill-opacity:0.8;stroke:#dcd6f7;stroke-opacity:0.8;stroke-width:0.5;" x="308.947515" xlink:href="#m5c78008313" y="157.876364"/>
     <use style="fill:#dcd6f7;fill-opacity:0.8;stroke:#dcd6f7;stroke-opacity:0.8;stroke-width:0.5;" x="310.261928" xlink:href="#m5c78008313" y="176.727273"/>
     <use style="fill:#dcd6f7;fill-opacity:0.8;stroke:#dcd6f7;stroke-opacity:0.8;stroke-width:0.5;" x="311.576341" xlink:href="#m5c78008313" y="176.727273"/>
     <use style="fill:#dcd6f7;fill-opacity:0.8;stroke:#dcd6f7;stroke-opacity:0.8;stroke-width:0.5;" x="316.833993" xlink:href="#m5c78008313" y="195.578182"/>
     <use style="fill:#dcd6f7;fill-opacity:0.8;stroke:#dcd6f7;stroke-opacity:0.8;stroke-width:0.5;" x="318.148407" xlink:href="#m5c78008313" y="214.429091"/>
     <use style="fill:#dcd6f7;fill-opacity:0.8;stroke:#dcd6f7;stroke-opacity:0.8;stroke-width:0.5;" x="319.46282" xlink:href="#m5c78008313" y="233.28"/>
     <use style="fill:#dcd6f7;fill-opacity:0.8;stroke:#dcd6f7;stroke-opacity:0.8;stroke-width:0.5;" x="326.034885" xlink:href="#m5c78008313" y="195.578182"/>
     <use style="fill:#dcd6f7;fill-opacity:0.8;stroke:#dcd6f7;stroke-opacity:0.8;stroke-width:0.5;" x="327.349298" xlink:href="#m5c78008313" y="186.152727"/>
     <use style="fill:#dcd6f7;fill-opacity:0.8;stroke:#dcd6f7;stroke-opacity:0.8;stroke-width:0.5;" x="328.663711" xlink:href="#m5c78008313" y="139.025455"/>
     <use style="fill:#dcd6f7;fill-opacity:0.8;stroke:#dcd6f7;stroke-opacity:0.8;stroke-width:0.5;" x="329.978125" xlink:href="#m5c78008313" y="195.578182"/>
     <use style="fill:#dcd6f7;fill-opacity:0.8;stroke:#dcd6f7;stroke-opacity:0.8;stroke-width:0.5;" x="331.292538" xlink:href="#m5c78008313" y="270.981818"/>
     <use style="fill:#dcd6f7;fill-opacity:0.8;stroke:#dcd6f7;stroke-opacity:0.8;stroke-width:0.5;" x="335.235777" xlink:href="#m5c78008313" y="176.727273"/>
     <use style="fill:#dcd6f7;fill-opacity:0.8;stroke:#dcd6f7;stroke-opacity:0.8;stroke-width:0.5;" x="337.864603" xlink:href="#m5c78008313" y="186.152727"/>
     <use style="fill:#dcd6f7;fill-opacity:0.8;stroke:#dcd6f7;stroke-opacity:0.8;stroke-width:0.5;" x="339.179016" xlink:href="#m5c78008313" y="223.854545"/>
     <use style="fill:#dcd6f7;fill-opacity:0.8;stroke:#dcd6f7;stroke-opacity:0.8;stroke-width:0.5;" x="344.436669" xlink:href="#m5c78008313" y="242.705455"/>
     <use style="fill:#dcd6f7;fill-opacity:0.8;stroke:#dcd6f7;stroke-opacity:0.8;stroke-width:0.5;" x="345.751082" xlink:href="#m5c78008313" y="289.832727"/>
     <use style="fill:#dcd6f7;fill-opacity:0.8;stroke:#dcd6f7;stroke-opacity:0.8;stroke-width:0.5;" x="348.379908" xlink:href="#m5c78008313" y="252.130909"/>
     <use style="fill:#dcd6f7;fill-opacity:0.8;stroke:#dcd6f7;stroke-opacity:0.8;stroke-width:0.5;" x="356.266387" xlink:href="#m5c78008313" y="280.407273"/>
     <use style="fill:#dcd6f7;fill-opacity:0.8;stroke:#dcd6f7;stroke-opacity:0.8;stroke-width:0.5;" x="357.5808" xlink:href="#m5c78008313" y="214.429091"/>
     <use style="fill:#dcd6f7;fill-opacity:0.8;stroke:#dcd6f7;stroke-opacity:0.8;stroke-width:0.5;" x="358.895213" xlink:href="#m5c78008313" y="280.407273"/>
     <use style="fill:#dcd6f7;fill-opacity:0.8;stroke:#dcd6f7;stroke-opacity:0.8;stroke-width:0.5;" x="362.838452" xlink:href="#m5c78008313" y="129.6"/>
     <use style="fill:#dcd6f7;fill-opacity:0.8;stroke:#dcd6f7;stroke-opacity:0.8;stroke-width:0.5;" x="364.152866" xlink:href="#m5c78008313" y="148.450909"/>
     <use style="fill:#dcd6f7;fill-opacity:0.8;stroke:#dcd6f7;stroke-opacity:0.8;stroke-width:0.5;" x="365.467279" xlink:href="#m5c78008313" y="186.152727"/>
     <use style="fill:#dcd6f7;fill-opacity:0.8;stroke:#dcd6f7;stroke-opacity:0.8;stroke-width:0.5;" x="366.781692" xlink:href="#m5c78008313" y="205.003636"/>
     <use style="fill:#dcd6f7;fill-opacity:0.8;stroke:#dcd6f7;stroke-opacity:0.8;stroke-width:0.5;" x="373.353757" xlink:href="#m5c78008313" y="205.003636"/>
     <use style="fill:#dcd6f7;fill-opacity:0.8;stroke:#dcd6f7;stroke-opacity:0.8;stroke-width:0.5;" x="374.66817" xlink:href="#m5c78008313" y="242.705455"/>
     <use style="fill:#dcd6f7;fill-opacity:0.8;stroke:#dcd6f7;stroke-opacity:0.8;stroke-width:0.5;" x="375.982584" xlink:href="#m5c78008313" y="205.003636"/>
     <use style="fill:#dcd6f7;fill-opacity:0.8;stroke:#dcd6f7;stroke-opacity:0.8;stroke-width:0.5;" x="381.240236" xlink:href="#m5c78008313" y="186.152727"/>
     <use style="fill:#dcd6f7;fill-opacity:0.8;stroke:#dcd6f7;stroke-opacity:0.8;stroke-width:0.5;" x="382.554649" xlink:href="#m5c78008313" y="214.429091"/>
     <use style="fill:#dcd6f7;fill-opacity:0.8;stroke:#dcd6f7;stroke-opacity:0.8;stroke-width:0.5;" x="383.869062" xlink:href="#m5c78008313" y="233.28"/>
     <use style="fill:#dcd6f7;fill-opacity:0.8;stroke:#dcd6f7;stroke-opacity:0.8;stroke-width:0.5;" x="385.183475" xlink:href="#m5c78008313" y="214.429091"/>
     <use style="fill:#dcd6f7;fill-opacity:0.8;stroke:#dcd6f7;stroke-opacity:0.8;stroke-width:0.5;" x="390.441128" xlink:href="#m5c78008313" y="205.003636"/>
     <use style="fill:#dcd6f7;fill-opacity:0.8;stroke:#dcd6f7;stroke-opacity:0.8;stroke-width:0.5;" x="391.755541" xlink:href="#m5c78008313" y="205.003636"/>
     <use style="fill:#dcd6f7;fill-opacity:0.8;stroke:#dcd6f7;stroke-opacity:0.8;stroke-width:0.5;" x="393.069954" xlink:href="#m5c78008313" y="186.152727"/>
     <use style="fill:#dcd6f7;fill-opacity:0.8;stroke:#dcd6f7;stroke-opacity:0.8;stroke-width:0.5;" x="394.384367" xlink:href="#m5c78008313" y="252.130909"/>
     <use style="fill:#dcd6f7;fill-opacity:0.8;stroke:#dcd6f7;stroke-opacity:0.8;stroke-width:0.5;" x="399.64202" xlink:href="#m5c78008313" y="120.174545"/>
     <use style="fill:#dcd6f7;fill-opacity:0.8;stroke:#dcd6f7;stroke-opacity:0.8;stroke-width:0.5;" x="400.956433" xlink:href="#m5c78008313" y="195.578182"/>
     <use style="fill:#dcd6f7;fill-opacity:0.8;stroke:#dcd6f7;stroke-opacity:0.8;stroke-width:0.5;" x="402.270846" xlink:href="#m5c78008313" y="205.003636"/>
     <use style="fill:#dcd6f7;fill-opacity:0.8;stroke:#dcd6f7;stroke-opacity:0.8;stroke-width:0.5;" x="403.585259" xlink:href="#m5c78008313" y="242.705455"/>
     <use style="fill:#dcd6f7;fill-opacity:0.8;stroke:#dcd6f7;stroke-opacity:0.8;stroke-width:0.5;" x="408.842911" xlink:href="#m5c78008313" y="120.174545"/>
     <use style="fill:#dcd6f7;fill-opacity:0.8;stroke:#dcd6f7;stroke-opacity:0.8;stroke-width:0.5;" x="410.157325" xlink:href="#m5c78008313" y="148.450909"/>
     <use style="fill:#dcd6f7;fill-opacity:0.8;stroke:#dcd6f7;stroke-opacity:0.8;stroke-width:0.5;" x="411.471738" xlink:href="#m5c78008313" y="167.301818"/>
     <use style="fill:#dcd6f7;fill-opacity:0.8;stroke:#dcd6f7;stroke-opacity:0.8;stroke-width:0.5;" x="412.786151" xlink:href="#m5c78008313" y="167.301818"/>
     <use style="fill:#dcd6f7;fill-opacity:0.8;stroke:#dcd6f7;stroke-opacity:0.8;stroke-width:0.5;" x="418.043803" xlink:href="#m5c78008313" y="148.450909"/>
     <use style="fill:#dcd6f7;fill-opacity:0.8;stroke:#dcd6f7;stroke-opacity:0.8;stroke-width:0.5;" x="419.358216" xlink:href="#m5c78008313" y="223.854545"/>
     <use style="fill:#dcd6f7;fill-opacity:0.8;stroke:#dcd6f7;stroke-opacity:0.8;stroke-width:0.5;" x="420.67263" xlink:href="#m5c78008313" y="167.301818"/>
     <use style="fill:#dcd6f7;fill-opacity:0.8;stroke:#dcd6f7;stroke-opacity:0.8;stroke-width:0.5;" x="421.987043" xlink:href="#m5c78008313" y="176.727273"/>
     <use style="fill:#dcd6f7;fill-opacity:0.8;stroke:#dcd6f7;stroke-opacity:0.8;stroke-width:0.5;" x="423.301456" xlink:href="#m5c78008313" y="186.152727"/>
     <use style="fill:#dcd6f7;fill-opacity:0.8;stroke:#dcd6f7;stroke-opacity:0.8;stroke-width:0.5;" x="427.244695" xlink:href="#m5c78008313" y="120.174545"/>
     <use style="fill:#dcd6f7;fill-opacity:0.8;stroke:#dcd6f7;stroke-opacity:0.8;stroke-width:0.5;" x="428.559108" xlink:href="#m5c78008313" y="139.025455"/>
     <use style="fill:#dcd6f7;fill-opacity:0.8;stroke:#dcd6f7;stroke-opacity:0.8;stroke-width:0.5;" x="429.873521" xlink:href="#m5c78008313" y="101.323636"/>
     <use style="fill:#dcd6f7;fill-opacity:0.8;stroke:#dcd6f7;stroke-opacity:0.8;stroke-width:0.5;" x="431.187934" xlink:href="#m5c78008313" y="280.407273"/>
    </g>
   </g>
   <g id="line2d_73">
    <path clip-path="url(#pe8446a8f14)" d="M 124.929679 242.705455 
L 126.244092 186.152727 
L 127.558505 233.28 
L 128.872918 261.556364 
L 132.816157 167.301818 
L 134.13057 186.152727 
L 135.444984 139.025455 
L 136.759397 205.003636 
L 138.07381 214.429091 
L 143.331462 167.301818 
L 144.645875 148.450909 
L 145.960289 195.578182 
L 147.274702 280.407273 
L 161.733246 242.705455 
L 163.047659 186.152727 
L 164.362072 242.705455 
L 165.676485 223.854545 
L 169.619725 195.578182 
L 170.934138 252.130909 
L 173.562964 205.003636 
L 174.877377 186.152727 
L 177.506203 308.683636 
L 178.820616 176.727273 
L 180.13503 148.450909 
L 181.449443 73.047273 
L 182.763856 252.130909 
L 188.021508 129.6 
L 189.335921 186.152727 
L 190.650334 176.727273 
L 191.964748 299.258182 
L 193.279161 270.981818 
L 197.2224 91.898182 
L 198.536813 157.876364 
L 199.851226 167.301818 
L 201.165639 167.301818 
L 202.480052 299.258182 
L 206.423292 54.196364 
L 207.737705 223.854545 
L 209.052118 223.854545 
L 210.366531 157.876364 
L 211.680944 205.003636 
L 212.995357 167.301818 
L 215.624184 167.301818 
L 218.25301 157.876364 
L 219.567423 233.28 
L 224.825075 214.429091 
L 226.139489 242.705455 
L 227.453902 308.683636 
L 230.082728 289.832727 
L 234.025967 186.152727 
L 235.34038 176.727273 
L 236.654793 148.450909 
L 237.969207 214.429091 
L 239.28362 186.152727 
L 243.226859 176.727273 
L 244.541272 157.876364 
L 245.855685 214.429091 
L 247.170098 205.003636 
L 248.484511 223.854545 
L 252.427751 148.450909 
L 253.742164 186.152727 
L 255.056577 176.727273 
L 256.37099 195.578182 
L 257.685403 186.152727 
L 261.628643 167.301818 
L 262.943056 157.876364 
L 264.257469 157.876364 
L 265.571882 129.6 
L 266.886295 205.003636 
L 270.829534 176.727273 
L 272.143948 148.450909 
L 273.458361 157.876364 
L 274.772774 148.450909 
L 276.087187 167.301818 
L 280.030426 101.323636 
L 281.344839 167.301818 
L 282.659252 167.301818 
L 283.973666 242.705455 
L 285.288079 252.130909 
L 287.916905 195.578182 
L 289.231318 73.047273 
L 290.545731 186.152727 
L 291.860144 129.6 
L 293.174557 186.152727 
L 294.48897 223.854545 
L 298.43221 110.749091 
L 299.746623 176.727273 
L 301.061036 82.472727 
L 302.375449 167.301818 
L 303.689862 195.578182 
L 307.633102 110.749091 
L 308.947515 157.876364 
L 310.261928 176.727273 
L 311.576341 176.727273 
L 316.833993 195.578182 
L 319.46282 233.28 
L 326.034885 195.578182 
L 327.349298 186.152727 
L 328.663711 139.025455 
L 329.978125 195.578182 
L 331.292538 270.981818 
L 335.235777 176.727273 
L 337.864603 186.152727 
L 339.179016 223.854545 
L 344.436669 242.705455 
L 345.751082 289.832727 
L 348.379908 252.130909 
L 356.266387 280.407273 
L 357.5808 214.429091 
L 358.895213 280.407273 
L 362.838452 129.6 
L 364.152866 148.450909 
L 365.467279 186.152727 
L 366.781692 205.003636 
L 373.353757 205.003636 
L 374.66817 242.705455 
L 375.982584 205.003636 
L 381.240236 186.152727 
L 382.554649 214.429091 
L 383.869062 233.28 
L 385.183475 214.429091 
L 390.441128 205.003636 
L 391.755541 205.003636 
L 393.069954 186.152727 
L 394.384367 252.130909 
L 399.64202 120.174545 
L 400.956433 195.578182 
L 402.270846 205.003636 
L 403.585259 242.705455 
L 408.842911 120.174545 
L 410.157325 148.450909 
L 411.471738 167.301818 
L 412.786151 167.301818 
L 418.043803 148.450909 
L 419.358216 223.854545 
L 420.67263 167.301818 
L 423.301456 186.152727 
L 427.244695 120.174545 
L 428.559108 139.025455 
L 429.873521 101.323636 
L 431.187934 280.407273 
L 431.187934 280.407273 
" style="fill:none;opacity:0.3;stroke:#dcd6f7;stroke-width:1.5;"/>
   </g>
   <g id="line2d_74">
    <path clip-path="url(#pe8446a8f14)" d="M 124.929679 197.941714 
L 431.187934 183.711175 
L 431.187934 183.711175 
" style="fill:none;stroke:#a6b1e1;stroke-linecap:round;stroke-width:2;"/>
   </g>
  </g>
 </g>
 <defs>
  <clipPath id="pe8446a8f14">
   <rect height="279.936" width="400.896" x="36.864" y="41.472"/>
  </clipPath>
 </defs>
</svg>
