<?xml version="1.0" encoding="utf-8" standalone="no"?>
<!DOCTYPE svg PUBLIC "-//W3C//DTD SVG 1.1//EN"
  "http://www.w3.org/Graphics/SVG/1.1/DTD/svg11.dtd">
<!-- Created with matplotlib (http://matplotlib.org/) -->
<svg height="345pt" version="1.1" viewBox="0 0 460 345" width="460pt" xmlns="http://www.w3.org/2000/svg" xmlns:xlink="http://www.w3.org/1999/xlink">
 <defs>
  <style type="text/css">
*{stroke-linecap:butt;stroke-linejoin:round;}
  </style>
 </defs>
 <g id="figure_1">
  <g id="patch_1">
   <path d="M 0 345.6 
L 460.8 345.6 
L 460.8 0 
L 0 0 
z
" style="fill:#f0f0f0;"/>
  </g>
  <g id="axes_1">
   <g id="patch_2">
    <path d="M 36.864 276.48 
L 437.76 276.48 
L 437.76 41.472 
L 36.864 41.472 
z
" style="fill:#f0f0f0;"/>
   </g>
   <g id="matplotlib.axis_1">
    <g id="xtick_1">
     <g id="line2d_1">
      <path clip-path="url(#pe7d514b249)" d="M 88.592516 276.48 
L 88.592516 41.472 
" style="fill:none;stroke:#cbcbcb;"/>
     </g>
     <g id="line2d_2"/>
     <g id="text_1">
      <!-- 04-09-2017 Mon -->
      <defs>
       <path d="M 31.78125 66.40625 
Q 24.171875 66.40625 20.328125 58.90625 
Q 16.5 51.421875 16.5 36.375 
Q 16.5 21.390625 20.328125 13.890625 
Q 24.171875 6.390625 31.78125 6.390625 
Q 39.453125 6.390625 43.28125 13.890625 
Q 47.125 21.390625 47.125 36.375 
Q 47.125 51.421875 43.28125 58.90625 
Q 39.453125 66.40625 31.78125 66.40625 
z
M 31.78125 74.21875 
Q 44.046875 74.21875 50.515625 64.515625 
Q 56.984375 54.828125 56.984375 36.375 
Q 56.984375 17.96875 50.515625 8.265625 
Q 44.046875 -1.421875 31.78125 -1.421875 
Q 19.53125 -1.421875 13.0625 8.265625 
Q 6.59375 17.96875 6.59375 36.375 
Q 6.59375 54.828125 13.0625 64.515625 
Q 19.53125 74.21875 31.78125 74.21875 
z
" id="DejaVuSans-30"/>
       <path d="M 37.796875 64.3125 
L 12.890625 25.390625 
L 37.796875 25.390625 
z
M 35.203125 72.90625 
L 47.609375 72.90625 
L 47.609375 25.390625 
L 58.015625 25.390625 
L 58.015625 17.1875 
L 47.609375 17.1875 
L 47.609375 0 
L 37.796875 0 
L 37.796875 17.1875 
L 4.890625 17.1875 
L 4.890625 26.703125 
z
" id="DejaVuSans-34"/>
       <path d="M 4.890625 31.390625 
L 31.203125 31.390625 
L 31.203125 23.390625 
L 4.890625 23.390625 
z
" id="DejaVuSans-2d"/>
       <path d="M 10.984375 1.515625 
L 10.984375 10.5 
Q 14.703125 8.734375 18.5 7.8125 
Q 22.3125 6.890625 25.984375 6.890625 
Q 35.75 6.890625 40.890625 13.453125 
Q 46.046875 20.015625 46.78125 33.40625 
Q 43.953125 29.203125 39.59375 26.953125 
Q 35.25 24.703125 29.984375 24.703125 
Q 19.046875 24.703125 12.671875 31.3125 
Q 6.296875 37.9375 6.296875 49.421875 
Q 6.296875 60.640625 12.9375 67.421875 
Q 19.578125 74.21875 30.609375 74.21875 
Q 43.265625 74.21875 49.921875 64.515625 
Q 56.59375 54.828125 56.59375 36.375 
Q 56.59375 19.140625 48.40625 8.859375 
Q 40.234375 -1.421875 26.421875 -1.421875 
Q 22.703125 -1.421875 18.890625 -0.6875 
Q 15.09375 0.046875 10.984375 1.515625 
z
M 30.609375 32.421875 
Q 37.25 32.421875 41.125 36.953125 
Q 45.015625 41.5 45.015625 49.421875 
Q 45.015625 57.28125 41.125 61.84375 
Q 37.25 66.40625 30.609375 66.40625 
Q 23.96875 66.40625 20.09375 61.84375 
Q 16.21875 57.28125 16.21875 49.421875 
Q 16.21875 41.5 20.09375 36.953125 
Q 23.96875 32.421875 30.609375 32.421875 
z
" id="DejaVuSans-39"/>
       <path d="M 19.1875 8.296875 
L 53.609375 8.296875 
L 53.609375 0 
L 7.328125 0 
L 7.328125 8.296875 
Q 12.9375 14.109375 22.625 23.890625 
Q 32.328125 33.6875 34.8125 36.53125 
Q 39.546875 41.84375 41.421875 45.53125 
Q 43.3125 49.21875 43.3125 52.78125 
Q 43.3125 58.59375 39.234375 62.25 
Q 35.15625 65.921875 28.609375 65.921875 
Q 23.96875 65.921875 18.8125 64.3125 
Q 13.671875 62.703125 7.8125 59.421875 
L 7.8125 69.390625 
Q 13.765625 71.78125 18.9375 73 
Q 24.125 74.21875 28.421875 74.21875 
Q 39.75 74.21875 46.484375 68.546875 
Q 53.21875 62.890625 53.21875 53.421875 
Q 53.21875 48.921875 51.53125 44.890625 
Q 49.859375 40.875 45.40625 35.40625 
Q 44.1875 33.984375 37.640625 27.21875 
Q 31.109375 20.453125 19.1875 8.296875 
z
" id="DejaVuSans-32"/>
       <path d="M 12.40625 8.296875 
L 28.515625 8.296875 
L 28.515625 63.921875 
L 10.984375 60.40625 
L 10.984375 69.390625 
L 28.421875 72.90625 
L 38.28125 72.90625 
L 38.28125 8.296875 
L 54.390625 8.296875 
L 54.390625 0 
L 12.40625 0 
z
" id="DejaVuSans-31"/>
       <path d="M 8.203125 72.90625 
L 55.078125 72.90625 
L 55.078125 68.703125 
L 28.609375 0 
L 18.3125 0 
L 43.21875 64.59375 
L 8.203125 64.59375 
z
" id="DejaVuSans-37"/>
       <path id="DejaVuSans-20"/>
       <path d="M 9.8125 72.90625 
L 24.515625 72.90625 
L 43.109375 23.296875 
L 61.8125 72.90625 
L 76.515625 72.90625 
L 76.515625 0 
L 66.890625 0 
L 66.890625 64.015625 
L 48.09375 14.015625 
L 38.1875 14.015625 
L 19.390625 64.015625 
L 19.390625 0 
L 9.8125 0 
z
" id="DejaVuSans-4d"/>
       <path d="M 30.609375 48.390625 
Q 23.390625 48.390625 19.1875 42.75 
Q 14.984375 37.109375 14.984375 27.296875 
Q 14.984375 17.484375 19.15625 11.84375 
Q 23.34375 6.203125 30.609375 6.203125 
Q 37.796875 6.203125 41.984375 11.859375 
Q 46.1875 17.53125 46.1875 27.296875 
Q 46.1875 37.015625 41.984375 42.703125 
Q 37.796875 48.390625 30.609375 48.390625 
z
M 30.609375 56 
Q 42.328125 56 49.015625 48.375 
Q 55.71875 40.765625 55.71875 27.296875 
Q 55.71875 13.875 49.015625 6.21875 
Q 42.328125 -1.421875 30.609375 -1.421875 
Q 18.84375 -1.421875 12.171875 6.21875 
Q 5.515625 13.875 5.515625 27.296875 
Q 5.515625 40.765625 12.171875 48.375 
Q 18.84375 56 30.609375 56 
z
" id="DejaVuSans-6f"/>
       <path d="M 54.890625 33.015625 
L 54.890625 0 
L 45.90625 0 
L 45.90625 32.71875 
Q 45.90625 40.484375 42.875 44.328125 
Q 39.84375 48.1875 33.796875 48.1875 
Q 26.515625 48.1875 22.3125 43.546875 
Q 18.109375 38.921875 18.109375 30.90625 
L 18.109375 0 
L 9.078125 0 
L 9.078125 54.6875 
L 18.109375 54.6875 
L 18.109375 46.1875 
Q 21.34375 51.125 25.703125 53.5625 
Q 30.078125 56 35.796875 56 
Q 45.21875 56 50.046875 50.171875 
Q 54.890625 44.34375 54.890625 33.015625 
z
" id="DejaVuSans-6e"/>
      </defs>
      <g transform="translate(30.687402 318.195602)rotate(-30)scale(0.08 -0.08)">
       <use xlink:href="#DejaVuSans-30"/>
       <use x="63.623047" xlink:href="#DejaVuSans-34"/>
       <use x="127.246094" xlink:href="#DejaVuSans-2d"/>
       <use x="163.330078" xlink:href="#DejaVuSans-30"/>
       <use x="226.953125" xlink:href="#DejaVuSans-39"/>
       <use x="290.576172" xlink:href="#DejaVuSans-2d"/>
       <use x="326.660156" xlink:href="#DejaVuSans-32"/>
       <use x="390.283203" xlink:href="#DejaVuSans-30"/>
       <use x="453.90625" xlink:href="#DejaVuSans-31"/>
       <use x="517.529297" xlink:href="#DejaVuSans-37"/>
       <use x="581.152344" xlink:href="#DejaVuSans-20"/>
       <use x="612.939453" xlink:href="#DejaVuSans-4d"/>
       <use x="699.21875" xlink:href="#DejaVuSans-6f"/>
       <use x="760.400391" xlink:href="#DejaVuSans-6e"/>
      </g>
     </g>
    </g>
    <g id="xtick_2">
     <g id="line2d_3">
      <path clip-path="url(#pe7d514b249)" d="M 179.117419 276.48 
L 179.117419 41.472 
" style="fill:none;stroke:#cbcbcb;"/>
     </g>
     <g id="line2d_4"/>
     <g id="text_2">
      <!-- 11-09-2017 Mon -->
      <g transform="translate(121.212305 318.195602)rotate(-30)scale(0.08 -0.08)">
       <use xlink:href="#DejaVuSans-31"/>
       <use x="63.623047" xlink:href="#DejaVuSans-31"/>
       <use x="127.246094" xlink:href="#DejaVuSans-2d"/>
       <use x="163.330078" xlink:href="#DejaVuSans-30"/>
       <use x="226.953125" xlink:href="#DejaVuSans-39"/>
       <use x="290.576172" xlink:href="#DejaVuSans-2d"/>
       <use x="326.660156" xlink:href="#DejaVuSans-32"/>
       <use x="390.283203" xlink:href="#DejaVuSans-30"/>
       <use x="453.90625" xlink:href="#DejaVuSans-31"/>
       <use x="517.529297" xlink:href="#DejaVuSans-37"/>
       <use x="581.152344" xlink:href="#DejaVuSans-20"/>
       <use x="612.939453" xlink:href="#DejaVuSans-4d"/>
       <use x="699.21875" xlink:href="#DejaVuSans-6f"/>
       <use x="760.400391" xlink:href="#DejaVuSans-6e"/>
      </g>
     </g>
    </g>
    <g id="xtick_3">
     <g id="line2d_5">
      <path clip-path="url(#pe7d514b249)" d="M 269.642323 276.48 
L 269.642323 41.472 
" style="fill:none;stroke:#cbcbcb;"/>
     </g>
     <g id="line2d_6"/>
     <g id="text_3">
      <!-- 18-09-2017 Mon -->
      <defs>
       <path d="M 31.78125 34.625 
Q 24.75 34.625 20.71875 30.859375 
Q 16.703125 27.09375 16.703125 20.515625 
Q 16.703125 13.921875 20.71875 10.15625 
Q 24.75 6.390625 31.78125 6.390625 
Q 38.8125 6.390625 42.859375 10.171875 
Q 46.921875 13.96875 46.921875 20.515625 
Q 46.921875 27.09375 42.890625 30.859375 
Q 38.875 34.625 31.78125 34.625 
z
M 21.921875 38.8125 
Q 15.578125 40.375 12.03125 44.71875 
Q 8.5 49.078125 8.5 55.328125 
Q 8.5 64.0625 14.71875 69.140625 
Q 20.953125 74.21875 31.78125 74.21875 
Q 42.671875 74.21875 48.875 69.140625 
Q 55.078125 64.0625 55.078125 55.328125 
Q 55.078125 49.078125 51.53125 44.71875 
Q 48 40.375 41.703125 38.8125 
Q 48.828125 37.15625 52.796875 32.3125 
Q 56.78125 27.484375 56.78125 20.515625 
Q 56.78125 9.90625 50.3125 4.234375 
Q 43.84375 -1.421875 31.78125 -1.421875 
Q 19.734375 -1.421875 13.25 4.234375 
Q 6.78125 9.90625 6.78125 20.515625 
Q 6.78125 27.484375 10.78125 32.3125 
Q 14.796875 37.15625 21.921875 38.8125 
z
M 18.3125 54.390625 
Q 18.3125 48.734375 21.84375 45.5625 
Q 25.390625 42.390625 31.78125 42.390625 
Q 38.140625 42.390625 41.71875 45.5625 
Q 45.3125 48.734375 45.3125 54.390625 
Q 45.3125 60.0625 41.71875 63.234375 
Q 38.140625 66.40625 31.78125 66.40625 
Q 25.390625 66.40625 21.84375 63.234375 
Q 18.3125 60.0625 18.3125 54.390625 
z
" id="DejaVuSans-38"/>
      </defs>
      <g transform="translate(211.737208 318.195602)rotate(-30)scale(0.08 -0.08)">
       <use xlink:href="#DejaVuSans-31"/>
       <use x="63.623047" xlink:href="#DejaVuSans-38"/>
       <use x="127.246094" xlink:href="#DejaVuSans-2d"/>
       <use x="163.330078" xlink:href="#DejaVuSans-30"/>
       <use x="226.953125" xlink:href="#DejaVuSans-39"/>
       <use x="290.576172" xlink:href="#DejaVuSans-2d"/>
       <use x="326.660156" xlink:href="#DejaVuSans-32"/>
       <use x="390.283203" xlink:href="#DejaVuSans-30"/>
       <use x="453.90625" xlink:href="#DejaVuSans-31"/>
       <use x="517.529297" xlink:href="#DejaVuSans-37"/>
       <use x="581.152344" xlink:href="#DejaVuSans-20"/>
       <use x="612.939453" xlink:href="#DejaVuSans-4d"/>
       <use x="699.21875" xlink:href="#DejaVuSans-6f"/>
       <use x="760.400391" xlink:href="#DejaVuSans-6e"/>
      </g>
     </g>
    </g>
    <g id="xtick_4">
     <g id="line2d_7">
      <path clip-path="url(#pe7d514b249)" d="M 360.167226 276.48 
L 360.167226 41.472 
" style="fill:none;stroke:#cbcbcb;"/>
     </g>
     <g id="line2d_8"/>
     <g id="text_4">
      <!-- 25-09-2017 Mon -->
      <defs>
       <path d="M 10.796875 72.90625 
L 49.515625 72.90625 
L 49.515625 64.59375 
L 19.828125 64.59375 
L 19.828125 46.734375 
Q 21.96875 47.46875 24.109375 47.828125 
Q 26.265625 48.1875 28.421875 48.1875 
Q 40.625 48.1875 47.75 41.5 
Q 54.890625 34.8125 54.890625 23.390625 
Q 54.890625 11.625 47.5625 5.09375 
Q 40.234375 -1.421875 26.90625 -1.421875 
Q 22.3125 -1.421875 17.546875 -0.640625 
Q 12.796875 0.140625 7.71875 1.703125 
L 7.71875 11.625 
Q 12.109375 9.234375 16.796875 8.0625 
Q 21.484375 6.890625 26.703125 6.890625 
Q 35.15625 6.890625 40.078125 11.328125 
Q 45.015625 15.765625 45.015625 23.390625 
Q 45.015625 31 40.078125 35.4375 
Q 35.15625 39.890625 26.703125 39.890625 
Q 22.75 39.890625 18.8125 39.015625 
Q 14.890625 38.140625 10.796875 36.28125 
z
" id="DejaVuSans-35"/>
      </defs>
      <g transform="translate(302.262112 318.195602)rotate(-30)scale(0.08 -0.08)">
       <use xlink:href="#DejaVuSans-32"/>
       <use x="63.623047" xlink:href="#DejaVuSans-35"/>
       <use x="127.246094" xlink:href="#DejaVuSans-2d"/>
       <use x="163.330078" xlink:href="#DejaVuSans-30"/>
       <use x="226.953125" xlink:href="#DejaVuSans-39"/>
       <use x="290.576172" xlink:href="#DejaVuSans-2d"/>
       <use x="326.660156" xlink:href="#DejaVuSans-32"/>
       <use x="390.283203" xlink:href="#DejaVuSans-30"/>
       <use x="453.90625" xlink:href="#DejaVuSans-31"/>
       <use x="517.529297" xlink:href="#DejaVuSans-37"/>
       <use x="581.152344" xlink:href="#DejaVuSans-20"/>
       <use x="612.939453" xlink:href="#DejaVuSans-4d"/>
       <use x="699.21875" xlink:href="#DejaVuSans-6f"/>
       <use x="760.400391" xlink:href="#DejaVuSans-6e"/>
      </g>
     </g>
    </g>
    <g id="xtick_5">
     <g id="line2d_9"/>
     <g id="text_5">
      <!-- 01 -->
      <g transform="translate(44.706129 285.95875)scale(0.08 -0.08)">
       <use xlink:href="#DejaVuSans-30"/>
       <use x="63.623047" xlink:href="#DejaVuSans-31"/>
      </g>
     </g>
    </g>
    <g id="xtick_6">
     <g id="line2d_10"/>
     <g id="text_6">
      <!-- 08 -->
      <g transform="translate(135.231032 285.95875)scale(0.08 -0.08)">
       <use xlink:href="#DejaVuSans-30"/>
       <use x="63.623047" xlink:href="#DejaVuSans-38"/>
      </g>
     </g>
    </g>
    <g id="xtick_7">
     <g id="line2d_11"/>
     <g id="text_7">
      <!-- 15 -->
      <g transform="translate(225.755935 285.95875)scale(0.08 -0.08)">
       <use xlink:href="#DejaVuSans-31"/>
       <use x="63.623047" xlink:href="#DejaVuSans-35"/>
      </g>
     </g>
    </g>
    <g id="xtick_8">
     <g id="line2d_12"/>
     <g id="text_8">
      <!-- 22 -->
      <g transform="translate(316.280839 285.95875)scale(0.08 -0.08)">
       <use xlink:href="#DejaVuSans-32"/>
       <use x="63.623047" xlink:href="#DejaVuSans-32"/>
      </g>
     </g>
    </g>
    <g id="xtick_9">
     <g id="line2d_13"/>
     <g id="text_9">
      <!-- 29 -->
      <g transform="translate(406.805742 285.95875)scale(0.08 -0.08)">
       <use xlink:href="#DejaVuSans-32"/>
       <use x="63.623047" xlink:href="#DejaVuSans-39"/>
      </g>
     </g>
    </g>
    <g id="xtick_10">
     <g id="line2d_14"/>
     <g id="text_10">
      <!-- 01 -->
      <g transform="translate(432.67 285.95875)scale(0.08 -0.08)">
       <use xlink:href="#DejaVuSans-30"/>
       <use x="63.623047" xlink:href="#DejaVuSans-31"/>
      </g>
     </g>
    </g>
    <g id="text_11">
     <!-- Date -->
     <defs>
      <path d="M 27.984375 58.6875 
L 27.984375 14.203125 
L 34.71875 14.203125 
Q 46.234375 14.203125 52.3125 19.921875 
Q 58.40625 25.640625 58.40625 36.53125 
Q 58.40625 47.359375 52.34375 53.015625 
Q 46.296875 58.6875 34.71875 58.6875 
z
M 9.1875 72.90625 
L 29 72.90625 
Q 45.609375 72.90625 53.734375 70.53125 
Q 61.859375 68.171875 67.671875 62.5 
Q 72.796875 57.5625 75.28125 51.109375 
Q 77.78125 44.671875 77.78125 36.53125 
Q 77.78125 28.265625 75.28125 21.796875 
Q 72.796875 15.328125 67.671875 10.40625 
Q 61.8125 4.734375 53.609375 2.359375 
Q 45.40625 0 29 0 
L 9.1875 0 
z
" id="DejaVuSans-Bold-44"/>
      <path d="M 32.90625 24.609375 
Q 27.4375 24.609375 24.671875 22.75 
Q 21.921875 20.90625 21.921875 17.28125 
Q 21.921875 13.96875 24.140625 12.078125 
Q 26.375 10.203125 30.328125 10.203125 
Q 35.25 10.203125 38.625 13.734375 
Q 42 17.28125 42 22.609375 
L 42 24.609375 
z
M 59.625 31.203125 
L 59.625 0 
L 42 0 
L 42 8.109375 
Q 38.484375 3.125 34.078125 0.84375 
Q 29.6875 -1.421875 23.390625 -1.421875 
Q 14.890625 -1.421875 9.59375 3.53125 
Q 4.296875 8.5 4.296875 16.40625 
Q 4.296875 26.03125 10.90625 30.515625 
Q 17.53125 35.015625 31.6875 35.015625 
L 42 35.015625 
L 42 36.375 
Q 42 40.53125 38.71875 42.453125 
Q 35.453125 44.390625 28.515625 44.390625 
Q 22.90625 44.390625 18.0625 43.265625 
Q 13.234375 42.140625 9.078125 39.890625 
L 9.078125 53.21875 
Q 14.703125 54.59375 20.359375 55.296875 
Q 26.03125 56 31.6875 56 
Q 46.484375 56 53.046875 50.171875 
Q 59.625 44.34375 59.625 31.203125 
z
" id="DejaVuSans-Bold-61"/>
      <path d="M 27.484375 70.21875 
L 27.484375 54.6875 
L 45.515625 54.6875 
L 45.515625 42.1875 
L 27.484375 42.1875 
L 27.484375 19 
Q 27.484375 15.1875 29 13.84375 
Q 30.515625 12.5 35.015625 12.5 
L 44 12.5 
L 44 0 
L 29 0 
Q 18.65625 0 14.328125 4.3125 
Q 10.015625 8.640625 10.015625 19 
L 10.015625 42.1875 
L 1.3125 42.1875 
L 1.3125 54.6875 
L 10.015625 54.6875 
L 10.015625 70.21875 
z
" id="DejaVuSans-Bold-74"/>
      <path d="M 62.984375 27.484375 
L 62.984375 22.515625 
L 22.125 22.515625 
Q 22.75 16.359375 26.5625 13.28125 
Q 30.375 10.203125 37.203125 10.203125 
Q 42.71875 10.203125 48.5 11.84375 
Q 54.296875 13.484375 60.40625 16.796875 
L 60.40625 3.328125 
Q 54.203125 0.984375 48 -0.21875 
Q 41.796875 -1.421875 35.59375 -1.421875 
Q 20.75 -1.421875 12.515625 6.125 
Q 4.296875 13.671875 4.296875 27.296875 
Q 4.296875 40.671875 12.375 48.328125 
Q 20.453125 56 34.625 56 
Q 47.515625 56 55.25 48.234375 
Q 62.984375 40.484375 62.984375 27.484375 
z
M 45.015625 33.296875 
Q 45.015625 38.28125 42.109375 41.328125 
Q 39.203125 44.390625 34.515625 44.390625 
Q 29.4375 44.390625 26.265625 41.53125 
Q 23.09375 38.671875 22.3125 33.296875 
z
" id="DejaVuSans-Bold-65"/>
     </defs>
     <g style="fill:#5c5f6d;" transform="translate(224.00575 331.234889)scale(0.1 -0.1)">
      <use xlink:href="#DejaVuSans-Bold-44"/>
      <use x="83.007812" xlink:href="#DejaVuSans-Bold-61"/>
      <use x="150.488281" xlink:href="#DejaVuSans-Bold-74"/>
      <use x="198.291016" xlink:href="#DejaVuSans-Bold-65"/>
     </g>
    </g>
   </g>
   <g id="matplotlib.axis_2">
    <g id="ytick_1">
     <g id="line2d_15">
      <path clip-path="url(#pe7d514b249)" d="M 36.864 251.100474 
L 437.76 251.100474 
" style="fill:none;stroke:#cbcbcb;"/>
     </g>
     <g id="line2d_16"/>
     <g id="text_12">
      <!-- 4 -->
      <g transform="translate(28.274 254.139849)scale(0.08 -0.08)">
       <use xlink:href="#DejaVuSans-34"/>
      </g>
     </g>
    </g>
    <g id="ytick_2">
     <g id="line2d_17">
      <path clip-path="url(#pe7d514b249)" d="M 36.864 223.2262 
L 437.76 223.2262 
" style="fill:none;stroke:#cbcbcb;"/>
     </g>
     <g id="line2d_18"/>
     <g id="text_13">
      <!-- 5 -->
      <g transform="translate(28.274 226.265575)scale(0.08 -0.08)">
       <use xlink:href="#DejaVuSans-35"/>
      </g>
     </g>
    </g>
    <g id="ytick_3">
     <g id="line2d_19">
      <path clip-path="url(#pe7d514b249)" d="M 36.864 195.351927 
L 437.76 195.351927 
" style="fill:none;stroke:#cbcbcb;"/>
     </g>
     <g id="line2d_20"/>
     <g id="text_14">
      <!-- 6 -->
      <defs>
       <path d="M 33.015625 40.375 
Q 26.375 40.375 22.484375 35.828125 
Q 18.609375 31.296875 18.609375 23.390625 
Q 18.609375 15.53125 22.484375 10.953125 
Q 26.375 6.390625 33.015625 6.390625 
Q 39.65625 6.390625 43.53125 10.953125 
Q 47.40625 15.53125 47.40625 23.390625 
Q 47.40625 31.296875 43.53125 35.828125 
Q 39.65625 40.375 33.015625 40.375 
z
M 52.59375 71.296875 
L 52.59375 62.3125 
Q 48.875 64.0625 45.09375 64.984375 
Q 41.3125 65.921875 37.59375 65.921875 
Q 27.828125 65.921875 22.671875 59.328125 
Q 17.53125 52.734375 16.796875 39.40625 
Q 19.671875 43.65625 24.015625 45.921875 
Q 28.375 48.1875 33.59375 48.1875 
Q 44.578125 48.1875 50.953125 41.515625 
Q 57.328125 34.859375 57.328125 23.390625 
Q 57.328125 12.15625 50.6875 5.359375 
Q 44.046875 -1.421875 33.015625 -1.421875 
Q 20.359375 -1.421875 13.671875 8.265625 
Q 6.984375 17.96875 6.984375 36.375 
Q 6.984375 53.65625 15.1875 63.9375 
Q 23.390625 74.21875 37.203125 74.21875 
Q 40.921875 74.21875 44.703125 73.484375 
Q 48.484375 72.75 52.59375 71.296875 
z
" id="DejaVuSans-36"/>
      </defs>
      <g transform="translate(28.274 198.391302)scale(0.08 -0.08)">
       <use xlink:href="#DejaVuSans-36"/>
      </g>
     </g>
    </g>
    <g id="ytick_4">
     <g id="line2d_21">
      <path clip-path="url(#pe7d514b249)" d="M 36.864 167.477653 
L 437.76 167.477653 
" style="fill:none;stroke:#cbcbcb;"/>
     </g>
     <g id="line2d_22"/>
     <g id="text_15">
      <!-- 7 -->
      <g transform="translate(28.274 170.517028)scale(0.08 -0.08)">
       <use xlink:href="#DejaVuSans-37"/>
      </g>
     </g>
    </g>
    <g id="ytick_5">
     <g id="line2d_23">
      <path clip-path="url(#pe7d514b249)" d="M 36.864 139.60338 
L 437.76 139.60338 
" style="fill:none;stroke:#cbcbcb;"/>
     </g>
     <g id="line2d_24"/>
     <g id="text_16">
      <!-- 8 -->
      <g transform="translate(28.274 142.642755)scale(0.08 -0.08)">
       <use xlink:href="#DejaVuSans-38"/>
      </g>
     </g>
    </g>
    <g id="ytick_6">
     <g id="line2d_25">
      <path clip-path="url(#pe7d514b249)" d="M 36.864 111.729106 
L 437.76 111.729106 
" style="fill:none;stroke:#cbcbcb;"/>
     </g>
     <g id="line2d_26"/>
     <g id="text_17">
      <!-- 9 -->
      <g transform="translate(28.274 114.768481)scale(0.08 -0.08)">
       <use xlink:href="#DejaVuSans-39"/>
      </g>
     </g>
    </g>
    <g id="ytick_7">
     <g id="line2d_27">
      <path clip-path="url(#pe7d514b249)" d="M 36.864 83.854833 
L 437.76 83.854833 
" style="fill:none;stroke:#cbcbcb;"/>
     </g>
     <g id="line2d_28"/>
     <g id="text_18">
      <!-- 10 -->
      <g transform="translate(23.184 86.894208)scale(0.08 -0.08)">
       <use xlink:href="#DejaVuSans-31"/>
       <use x="63.623047" xlink:href="#DejaVuSans-30"/>
      </g>
     </g>
    </g>
    <g id="ytick_8">
     <g id="line2d_29">
      <path clip-path="url(#pe7d514b249)" d="M 36.864 55.980559 
L 437.76 55.980559 
" style="fill:none;stroke:#cbcbcb;"/>
     </g>
     <g id="line2d_30"/>
     <g id="text_19">
      <!-- 11 -->
      <g transform="translate(23.184 59.019934)scale(0.08 -0.08)">
       <use xlink:href="#DejaVuSans-31"/>
       <use x="63.623047" xlink:href="#DejaVuSans-31"/>
      </g>
     </g>
    </g>
    <g id="text_20">
     <!-- Total Hours -->
     <defs>
      <path d="M 0.484375 72.90625 
L 67.671875 72.90625 
L 67.671875 58.6875 
L 43.5 58.6875 
L 43.5 0 
L 24.703125 0 
L 24.703125 58.6875 
L 0.484375 58.6875 
z
" id="DejaVuSans-Bold-54"/>
      <path d="M 34.421875 43.5 
Q 28.609375 43.5 25.5625 39.328125 
Q 22.515625 35.15625 22.515625 27.296875 
Q 22.515625 19.4375 25.5625 15.25 
Q 28.609375 11.078125 34.421875 11.078125 
Q 40.140625 11.078125 43.15625 15.25 
Q 46.1875 19.4375 46.1875 27.296875 
Q 46.1875 35.15625 43.15625 39.328125 
Q 40.140625 43.5 34.421875 43.5 
z
M 34.421875 56 
Q 48.53125 56 56.46875 48.375 
Q 64.40625 40.765625 64.40625 27.296875 
Q 64.40625 13.8125 56.46875 6.1875 
Q 48.53125 -1.421875 34.421875 -1.421875 
Q 20.265625 -1.421875 12.28125 6.1875 
Q 4.296875 13.8125 4.296875 27.296875 
Q 4.296875 40.765625 12.28125 48.375 
Q 20.265625 56 34.421875 56 
z
" id="DejaVuSans-Bold-6f"/>
      <path d="M 8.40625 75.984375 
L 25.875 75.984375 
L 25.875 0 
L 8.40625 0 
z
" id="DejaVuSans-Bold-6c"/>
      <path id="DejaVuSans-Bold-20"/>
      <path d="M 9.1875 72.90625 
L 27.984375 72.90625 
L 27.984375 45.125 
L 55.71875 45.125 
L 55.71875 72.90625 
L 74.515625 72.90625 
L 74.515625 0 
L 55.71875 0 
L 55.71875 30.90625 
L 27.984375 30.90625 
L 27.984375 0 
L 9.1875 0 
z
" id="DejaVuSans-Bold-48"/>
      <path d="M 7.8125 21.296875 
L 7.8125 54.6875 
L 25.390625 54.6875 
L 25.390625 49.21875 
Q 25.390625 44.78125 25.34375 38.0625 
Q 25.296875 31.34375 25.296875 29.109375 
Q 25.296875 22.515625 25.640625 19.609375 
Q 25.984375 16.703125 26.8125 15.375 
Q 27.875 13.671875 29.609375 12.734375 
Q 31.34375 11.8125 33.59375 11.8125 
Q 39.0625 11.8125 42.1875 16.015625 
Q 45.3125 20.21875 45.3125 27.6875 
L 45.3125 54.6875 
L 62.796875 54.6875 
L 62.796875 0 
L 45.3125 0 
L 45.3125 7.90625 
Q 41.359375 3.125 36.9375 0.84375 
Q 32.515625 -1.421875 27.203125 -1.421875 
Q 17.71875 -1.421875 12.765625 4.390625 
Q 7.8125 10.203125 7.8125 21.296875 
z
" id="DejaVuSans-Bold-75"/>
      <path d="M 49.03125 39.796875 
Q 46.734375 40.875 44.453125 41.375 
Q 42.1875 41.890625 39.890625 41.890625 
Q 33.15625 41.890625 29.515625 37.5625 
Q 25.875 33.25 25.875 25.203125 
L 25.875 0 
L 8.40625 0 
L 8.40625 54.6875 
L 25.875 54.6875 
L 25.875 45.703125 
Q 29.25 51.078125 33.609375 53.53125 
Q 37.984375 56 44.09375 56 
Q 44.96875 56 45.984375 55.921875 
Q 47.015625 55.859375 48.96875 55.609375 
z
" id="DejaVuSans-Bold-72"/>
      <path d="M 51.125 52.984375 
L 51.125 39.703125 
Q 45.515625 42.046875 40.28125 43.21875 
Q 35.0625 44.390625 30.421875 44.390625 
Q 25.4375 44.390625 23.015625 43.140625 
Q 20.609375 41.890625 20.609375 39.3125 
Q 20.609375 37.203125 22.4375 36.078125 
Q 24.265625 34.96875 29 34.421875 
L 32.078125 33.984375 
Q 45.515625 32.28125 50.140625 28.375 
Q 54.78125 24.46875 54.78125 16.109375 
Q 54.78125 7.375 48.328125 2.96875 
Q 41.890625 -1.421875 29.109375 -1.421875 
Q 23.6875 -1.421875 17.890625 -0.5625 
Q 12.109375 0.296875 6 2 
L 6 15.28125 
Q 11.234375 12.75 16.71875 11.46875 
Q 22.21875 10.203125 27.875 10.203125 
Q 33.015625 10.203125 35.59375 11.609375 
Q 38.1875 13.03125 38.1875 15.828125 
Q 38.1875 18.171875 36.40625 19.3125 
Q 34.625 20.453125 29.296875 21.09375 
L 26.21875 21.484375 
Q 14.546875 22.953125 9.859375 26.90625 
Q 5.171875 30.859375 5.171875 38.921875 
Q 5.171875 47.609375 11.125 51.796875 
Q 17.09375 56 29.390625 56 
Q 34.234375 56 39.546875 55.265625 
Q 44.875 54.546875 51.125 52.984375 
z
" id="DejaVuSans-Bold-73"/>
     </defs>
     <g style="fill:#5c5f6d;" transform="translate(17.104313 191.651)rotate(-90)scale(0.1 -0.1)">
      <use xlink:href="#DejaVuSans-Bold-54"/>
      <use x="68.009766" xlink:href="#DejaVuSans-Bold-6f"/>
      <use x="136.710938" xlink:href="#DejaVuSans-Bold-74"/>
      <use x="184.513672" xlink:href="#DejaVuSans-Bold-61"/>
      <use x="251.994141" xlink:href="#DejaVuSans-Bold-6c"/>
      <use x="286.271484" xlink:href="#DejaVuSans-Bold-20"/>
      <use x="321.085938" xlink:href="#DejaVuSans-Bold-48"/>
      <use x="404.777344" xlink:href="#DejaVuSans-Bold-6f"/>
      <use x="473.478516" xlink:href="#DejaVuSans-Bold-75"/>
      <use x="544.669922" xlink:href="#DejaVuSans-Bold-72"/>
      <use x="593.986328" xlink:href="#DejaVuSans-Bold-73"/>
     </g>
    </g>
   </g>
   <g id="PathCollection_1">
    <defs>
     <path d="M 0 2.236068 
C 0.593012 2.236068 1.161816 2.000462 1.581139 1.581139 
C 2.000462 1.161816 2.236068 0.593012 2.236068 0 
C 2.236068 -0.593012 2.000462 -1.161816 1.581139 -1.581139 
C 1.161816 -2.000462 0.593012 -2.236068 0 -2.236068 
C -0.593012 -2.236068 -1.161816 -2.000462 -1.581139 -1.581139 
C -2.000462 -1.161816 -2.236068 -0.593012 -2.236068 0 
C -2.236068 0.593012 -2.000462 1.161816 -1.581139 1.581139 
C -1.161816 2.000462 -0.593012 2.236068 0 2.236068 
z
" id="m2167b48b34" style="stroke:#4e4c67;stroke-opacity:0.8;stroke-width:0.5;"/>
    </defs>
    <g clip-path="url(#pe7d514b249)">
     <use style="fill:#4e4c67;fill-opacity:0.8;stroke:#4e4c67;stroke-opacity:0.8;stroke-width:0.5;" x="49.796129" xlink:href="#m2167b48b34" y="87.478488"/>
     <use style="fill:#4e4c67;fill-opacity:0.8;stroke:#4e4c67;stroke-opacity:0.8;stroke-width:0.5;" x="62.728258" xlink:href="#m2167b48b34" y="231.588483"/>
     <use style="fill:#4e4c67;fill-opacity:0.8;stroke:#4e4c67;stroke-opacity:0.8;stroke-width:0.5;" x="75.660387" xlink:href="#m2167b48b34" y="107.547965"/>
     <use style="fill:#4e4c67;fill-opacity:0.8;stroke:#4e4c67;stroke-opacity:0.8;stroke-width:0.5;" x="88.592516" xlink:href="#m2167b48b34" y="115.352762"/>
     <use style="fill:#4e4c67;fill-opacity:0.8;stroke:#4e4c67;stroke-opacity:0.8;stroke-width:0.5;" x="101.524645" xlink:href="#m2167b48b34" y="222.11123"/>
     <use style="fill:#4e4c67;fill-opacity:0.8;stroke:#4e4c67;stroke-opacity:0.8;stroke-width:0.5;" x="114.456774" xlink:href="#m2167b48b34" y="133.749782"/>
     <use style="fill:#4e4c67;fill-opacity:0.8;stroke:#4e4c67;stroke-opacity:0.8;stroke-width:0.5;" x="127.388903" xlink:href="#m2167b48b34" y="167.756396"/>
     <use style="fill:#4e4c67;fill-opacity:0.8;stroke:#4e4c67;stroke-opacity:0.8;stroke-width:0.5;" x="140.321032" xlink:href="#m2167b48b34" y="90.544659"/>
     <use style="fill:#4e4c67;fill-opacity:0.8;stroke:#4e4c67;stroke-opacity:0.8;stroke-width:0.5;" x="153.253161" xlink:href="#m2167b48b34" y="256.117843"/>
     <use style="fill:#4e4c67;fill-opacity:0.8;stroke:#4e4c67;stroke-opacity:0.8;stroke-width:0.5;" x="166.18529" xlink:href="#m2167b48b34" y="61.834157"/>
     <use style="fill:#4e4c67;fill-opacity:0.8;stroke:#4e4c67;stroke-opacity:0.8;stroke-width:0.5;" x="179.117419" xlink:href="#m2167b48b34" y="133.192297"/>
     <use style="fill:#4e4c67;fill-opacity:0.8;stroke:#4e4c67;stroke-opacity:0.8;stroke-width:0.5;" x="192.049548" xlink:href="#m2167b48b34" y="209.289064"/>
     <use style="fill:#4e4c67;fill-opacity:0.8;stroke:#4e4c67;stroke-opacity:0.8;stroke-width:0.5;" x="204.981677" xlink:href="#m2167b48b34" y="185.038446"/>
     <use style="fill:#4e4c67;fill-opacity:0.8;stroke:#4e4c67;stroke-opacity:0.8;stroke-width:0.5;" x="217.913806" xlink:href="#m2167b48b34" y="161.902799"/>
     <use style="fill:#4e4c67;fill-opacity:0.8;stroke:#4e4c67;stroke-opacity:0.8;stroke-width:0.5;" x="230.845935" xlink:href="#m2167b48b34" y="207.616607"/>
     <use style="fill:#4e4c67;fill-opacity:0.8;stroke:#4e4c67;stroke-opacity:0.8;stroke-width:0.5;" x="243.778065" xlink:href="#m2167b48b34" y="175.839935"/>
     <use style="fill:#4e4c67;fill-opacity:0.8;stroke:#4e4c67;stroke-opacity:0.8;stroke-width:0.5;" x="256.710194" xlink:href="#m2167b48b34" y="173.052508"/>
     <use style="fill:#4e4c67;fill-opacity:0.8;stroke:#4e4c67;stroke-opacity:0.8;stroke-width:0.5;" x="269.642323" xlink:href="#m2167b48b34" y="176.676164"/>
     <use style="fill:#4e4c67;fill-opacity:0.8;stroke:#4e4c67;stroke-opacity:0.8;stroke-width:0.5;" x="282.574452" xlink:href="#m2167b48b34" y="189.498329"/>
     <use style="fill:#4e4c67;fill-opacity:0.8;stroke:#4e4c67;stroke-opacity:0.8;stroke-width:0.5;" x="295.506581" xlink:href="#m2167b48b34" y="210.125292"/>
     <use style="fill:#4e4c67;fill-opacity:0.8;stroke:#4e4c67;stroke-opacity:0.8;stroke-width:0.5;" x="308.43871" xlink:href="#m2167b48b34" y="161.066571"/>
     <use style="fill:#4e4c67;fill-opacity:0.8;stroke:#4e4c67;stroke-opacity:0.8;stroke-width:0.5;" x="321.370839" xlink:href="#m2167b48b34" y="131.798583"/>
     <use style="fill:#4e4c67;fill-opacity:0.8;stroke:#4e4c67;stroke-opacity:0.8;stroke-width:0.5;" x="334.302968" xlink:href="#m2167b48b34" y="158.279143"/>
     <use style="fill:#4e4c67;fill-opacity:0.8;stroke:#4e4c67;stroke-opacity:0.8;stroke-width:0.5;" x="347.235097" xlink:href="#m2167b48b34" y="137.652181"/>
     <use style="fill:#4e4c67;fill-opacity:0.8;stroke:#4e4c67;stroke-opacity:0.8;stroke-width:0.5;" x="360.167226" xlink:href="#m2167b48b34" y="203.156724"/>
     <use style="fill:#4e4c67;fill-opacity:0.8;stroke:#4e4c67;stroke-opacity:0.8;stroke-width:0.5;" x="373.099355" xlink:href="#m2167b48b34" y="175.28245"/>
     <use style="fill:#4e4c67;fill-opacity:0.8;stroke:#4e4c67;stroke-opacity:0.8;stroke-width:0.5;" x="386.031484" xlink:href="#m2167b48b34" y="149.638118"/>
     <use style="fill:#4e4c67;fill-opacity:0.8;stroke:#4e4c67;stroke-opacity:0.8;stroke-width:0.5;" x="398.963613" xlink:href="#m2167b48b34" y="121.763845"/>
     <use style="fill:#4e4c67;fill-opacity:0.8;stroke:#4e4c67;stroke-opacity:0.8;stroke-width:0.5;" x="411.895742" xlink:href="#m2167b48b34" y="194.515699"/>
    </g>
   </g>
   <g id="line2d_31">
    <path clip-path="url(#pe7d514b249)" style="fill:none;stroke:#008fd5;stroke-width:4;"/>
   </g>
   <g id="line2d_32">
    <path clip-path="url(#pe7d514b249)" d="M 49.796129 87.478488 
L 62.728258 231.588483 
L 75.660387 107.547965 
L 88.592516 115.352762 
L 101.524645 222.11123 
L 114.456774 133.749782 
L 127.388903 167.756396 
L 140.321032 90.544659 
L 153.253161 256.117843 
L 166.18529 61.834157 
L 179.117419 133.192297 
L 192.049548 209.289064 
L 204.981677 185.038446 
L 217.913806 161.902799 
L 230.845935 207.616607 
L 243.778065 175.839935 
L 256.710194 173.052508 
L 269.642323 176.676164 
L 282.574452 189.498329 
L 295.506581 210.125292 
L 308.43871 161.066571 
L 321.370839 131.798583 
L 334.302968 158.279143 
L 347.235097 137.652181 
L 360.167226 203.156724 
L 373.099355 175.28245 
L 386.031484 149.638118 
L 398.963613 121.763845 
L 411.895742 194.515699 
" style="fill:none;opacity:0.3;stroke:#dcd6f7;stroke-width:4;"/>
   </g>
   <g id="line2d_33">
    <path clip-path="url(#pe7d514b249)" d="M 49.796129 152.173716 
L 62.728258 152.953097 
L 75.660387 153.732478 
L 88.592516 154.51186 
L 101.524645 155.291241 
L 114.456774 156.070622 
L 127.388903 156.850003 
L 140.321032 157.629384 
L 153.253161 158.408765 
L 166.18529 159.188147 
L 179.117419 159.967528 
L 192.049548 160.746909 
L 204.981677 161.52629 
L 217.913806 162.305671 
L 230.845935 163.085052 
L 243.778065 163.864434 
L 256.710194 164.643815 
L 269.642323 165.423196 
L 282.574452 166.202577 
L 295.506581 166.981958 
L 308.43871 167.761339 
L 321.370839 168.540721 
L 334.302968 169.320102 
L 347.235097 170.099483 
L 360.167226 170.878864 
L 373.099355 171.658245 
L 386.031484 172.437626 
L 398.963613 173.217008 
L 411.895742 173.996389 
" style="fill:none;stroke:#a6b1e1;stroke-linecap:round;stroke-width:4;"/>
   </g>
   <g id="patch_3">
    <path d="M 36.864 276.48 
L 36.864 41.472 
" style="fill:none;stroke:#f0f0f0;stroke-linecap:square;stroke-linejoin:miter;stroke-width:3;"/>
   </g>
   <g id="patch_4">
    <path d="M 437.76 276.48 
L 437.76 41.472 
" style="fill:none;stroke:#f0f0f0;stroke-linecap:square;stroke-linejoin:miter;stroke-width:3;"/>
   </g>
   <g id="patch_5">
    <path d="M 36.864 276.48 
L 437.76 276.48 
" style="fill:none;stroke:#f0f0f0;stroke-linecap:square;stroke-linejoin:miter;stroke-width:3;"/>
   </g>
   <g id="patch_6">
    <path d="M 36.864 41.472 
L 437.76 41.472 
" style="fill:none;stroke:#f0f0f0;stroke-linecap:square;stroke-linejoin:miter;stroke-width:3;"/>
   </g>
   <g id="text_21">
    <!-- Sleep -->
    <defs>
     <path d="M 59.90625 70.609375 
L 59.90625 55.171875 
Q 53.90625 57.859375 48.1875 59.21875 
Q 42.484375 60.59375 37.40625 60.59375 
Q 30.671875 60.59375 27.4375 58.734375 
Q 24.21875 56.890625 24.21875 52.984375 
Q 24.21875 50.046875 26.390625 48.40625 
Q 28.5625 46.78125 34.28125 45.609375 
L 42.28125 44 
Q 54.4375 41.546875 59.5625 36.5625 
Q 64.703125 31.59375 64.703125 22.40625 
Q 64.703125 10.359375 57.546875 4.46875 
Q 50.390625 -1.421875 35.6875 -1.421875 
Q 28.765625 -1.421875 21.78125 -0.09375 
Q 14.796875 1.21875 7.8125 3.8125 
L 7.8125 19.671875 
Q 14.796875 15.96875 21.3125 14.078125 
Q 27.828125 12.203125 33.890625 12.203125 
Q 40.046875 12.203125 43.3125 14.25 
Q 46.578125 16.3125 46.578125 20.125 
Q 46.578125 23.53125 44.359375 25.390625 
Q 42.140625 27.25 35.5 28.71875 
L 28.21875 30.328125 
Q 17.28125 32.671875 12.21875 37.796875 
Q 7.171875 42.921875 7.171875 51.609375 
Q 7.171875 62.5 14.203125 68.359375 
Q 21.234375 74.21875 34.421875 74.21875 
Q 40.4375 74.21875 46.78125 73.3125 
Q 53.125 72.40625 59.90625 70.609375 
z
" id="DejaVuSans-Bold-53"/>
     <path d="M 25.875 7.90625 
L 25.875 -20.796875 
L 8.40625 -20.796875 
L 8.40625 54.6875 
L 25.875 54.6875 
L 25.875 46.6875 
Q 29.5 51.46875 33.890625 53.734375 
Q 38.28125 56 44 56 
Q 54.109375 56 60.59375 47.96875 
Q 67.09375 39.9375 67.09375 27.296875 
Q 67.09375 14.65625 60.59375 6.609375 
Q 54.109375 -1.421875 44 -1.421875 
Q 38.28125 -1.421875 33.890625 0.84375 
Q 29.5 3.125 25.875 7.90625 
z
M 37.5 43.3125 
Q 31.890625 43.3125 28.875 39.1875 
Q 25.875 35.0625 25.875 27.296875 
Q 25.875 19.53125 28.875 15.40625 
Q 31.890625 11.28125 37.5 11.28125 
Q 43.109375 11.28125 46.0625 15.375 
Q 49.03125 19.484375 49.03125 27.296875 
Q 49.03125 35.109375 46.0625 39.203125 
Q 43.109375 43.3125 37.5 43.3125 
z
" id="DejaVuSans-Bold-70"/>
    </defs>
    <g style="fill:#5c5f6d;" transform="translate(209.094187 35.472)scale(0.18 -0.18)">
     <use xlink:href="#DejaVuSans-Bold-53"/>
     <use x="72.021484" xlink:href="#DejaVuSans-Bold-6c"/>
     <use x="106.298828" xlink:href="#DejaVuSans-Bold-65"/>
     <use x="174.121094" xlink:href="#DejaVuSans-Bold-65"/>
     <use x="241.943359" xlink:href="#DejaVuSans-Bold-70"/>
    </g>
   </g>
  </g>
 </g>
 <defs>
  <clipPath id="pe7d514b249">
   <rect height="235.008" width="400.896" x="36.864" y="41.472"/>
  </clipPath>
 </defs>
</svg>
