<?xml version="1.0" encoding="utf-8" standalone="no"?>
<!DOCTYPE svg PUBLIC "-//W3C//DTD SVG 1.1//EN"
  "http://www.w3.org/Graphics/SVG/1.1/DTD/svg11.dtd">
<!-- Created with matplotlib (http://matplotlib.org/) -->
<svg height="345pt" version="1.1" viewBox="0 0 460 345" width="460pt" xmlns="http://www.w3.org/2000/svg" xmlns:xlink="http://www.w3.org/1999/xlink">
 <defs>
  <style type="text/css">
*{stroke-linecap:butt;stroke-linejoin:round;}
  </style>
 </defs>
 <g id="figure_1">
  <g id="patch_1">
   <path d="M 0 345.6 
L 460.8 345.6 
L 460.8 0 
L 0 0 
z
" style="fill:#474e5d;"/>
  </g>
  <g id="axes_1">
   <g id="patch_2">
    <path d="M 36.864 321.408 
L 437.76 321.408 
L 437.76 41.472 
L 36.864 41.472 
z
" style="fill:#474e5d;"/>
   </g>
   <g id="matplotlib.axis_1">
    <g id="xtick_1">
     <g id="line2d_1">
      <path clip-path="url(#p355b192ef4)" d="M 130.621935 321.408 
L 130.621935 41.472 
" style="fill:none;stroke:#cbcbcb;"/>
     </g>
     <g id="line2d_2"/>
     <g id="text_1">
      <!--  -->
      <g style="fill:#ffffff;" transform="translate(130.621935 330.98675)scale(0.08 -0.08)"/>
      <!-- 09 -->
      <defs>
       <path d="M 31.78125 66.40625 
Q 24.171875 66.40625 20.328125 58.90625 
Q 16.5 51.421875 16.5 36.375 
Q 16.5 21.390625 20.328125 13.890625 
Q 24.171875 6.390625 31.78125 6.390625 
Q 39.453125 6.390625 43.28125 13.890625 
Q 47.125 21.390625 47.125 36.375 
Q 47.125 51.421875 43.28125 58.90625 
Q 39.453125 66.40625 31.78125 66.40625 
z
M 31.78125 74.21875 
Q 44.046875 74.21875 50.515625 64.515625 
Q 56.984375 54.828125 56.984375 36.375 
Q 56.984375 17.96875 50.515625 8.265625 
Q 44.046875 -1.421875 31.78125 -1.421875 
Q 19.53125 -1.421875 13.0625 8.265625 
Q 6.59375 17.96875 6.59375 36.375 
Q 6.59375 54.828125 13.0625 64.515625 
Q 19.53125 74.21875 31.78125 74.21875 
z
" id="DejaVuSans-30"/>
       <path d="M 10.984375 1.515625 
L 10.984375 10.5 
Q 14.703125 8.734375 18.5 7.8125 
Q 22.3125 6.890625 25.984375 6.890625 
Q 35.75 6.890625 40.890625 13.453125 
Q 46.046875 20.015625 46.78125 33.40625 
Q 43.953125 29.203125 39.59375 26.953125 
Q 35.25 24.703125 29.984375 24.703125 
Q 19.046875 24.703125 12.671875 31.3125 
Q 6.296875 37.9375 6.296875 49.421875 
Q 6.296875 60.640625 12.9375 67.421875 
Q 19.578125 74.21875 30.609375 74.21875 
Q 43.265625 74.21875 49.921875 64.515625 
Q 56.59375 54.828125 56.59375 36.375 
Q 56.59375 19.140625 48.40625 8.859375 
Q 40.234375 -1.421875 26.421875 -1.421875 
Q 22.703125 -1.421875 18.890625 -0.6875 
Q 15.09375 0.046875 10.984375 1.515625 
z
M 30.609375 32.421875 
Q 37.25 32.421875 41.125 36.953125 
Q 45.015625 41.5 45.015625 49.421875 
Q 45.015625 57.28125 41.125 61.84375 
Q 37.25 66.40625 30.609375 66.40625 
Q 23.96875 66.40625 20.09375 61.84375 
Q 16.21875 57.28125 16.21875 49.421875 
Q 16.21875 41.5 20.09375 36.953125 
Q 23.96875 32.421875 30.609375 32.421875 
z
" id="DejaVuSans-39"/>
      </defs>
      <g style="fill:#ffffff;" transform="translate(125.531935 339.945)scale(0.08 -0.08)">
       <use xlink:href="#DejaVuSans-30"/>
       <use x="63.623047" xlink:href="#DejaVuSans-39"/>
      </g>
     </g>
    </g>
    <g id="xtick_2">
     <g id="line2d_3">
      <path clip-path="url(#p355b192ef4)" d="M 227.612903 321.408 
L 227.612903 41.472 
" style="fill:none;stroke:#cbcbcb;"/>
     </g>
     <g id="line2d_4"/>
     <g id="text_2">
      <!--  -->
      <g style="fill:#ffffff;" transform="translate(227.612903 330.98675)scale(0.08 -0.08)"/>
      <!-- 10 -->
      <defs>
       <path d="M 12.40625 8.296875 
L 28.515625 8.296875 
L 28.515625 63.921875 
L 10.984375 60.40625 
L 10.984375 69.390625 
L 28.421875 72.90625 
L 38.28125 72.90625 
L 38.28125 8.296875 
L 54.390625 8.296875 
L 54.390625 0 
L 12.40625 0 
z
" id="DejaVuSans-31"/>
      </defs>
      <g style="fill:#ffffff;" transform="translate(222.522903 339.945)scale(0.08 -0.08)">
       <use xlink:href="#DejaVuSans-31"/>
       <use x="63.623047" xlink:href="#DejaVuSans-30"/>
      </g>
     </g>
    </g>
    <g id="xtick_3">
     <g id="line2d_5">
      <path clip-path="url(#p355b192ef4)" d="M 327.836903 321.408 
L 327.836903 41.472 
" style="fill:none;stroke:#cbcbcb;"/>
     </g>
     <g id="line2d_6"/>
     <g id="text_3">
      <!--  -->
      <g style="fill:#ffffff;" transform="translate(327.836903 330.98675)scale(0.08 -0.08)"/>
      <!-- 11 -->
      <g style="fill:#ffffff;" transform="translate(322.746903 339.945)scale(0.08 -0.08)">
       <use xlink:href="#DejaVuSans-31"/>
       <use x="63.623047" xlink:href="#DejaVuSans-31"/>
      </g>
     </g>
    </g>
    <g id="xtick_4">
     <g id="line2d_7">
      <path clip-path="url(#p355b192ef4)" d="M 424.827871 321.408 
L 424.827871 41.472 
" style="fill:none;stroke:#cbcbcb;"/>
     </g>
     <g id="line2d_8"/>
     <g id="text_4">
      <!--  -->
      <g style="fill:#ffffff;" transform="translate(424.827871 330.98675)scale(0.08 -0.08)"/>
      <!-- 12 -->
      <defs>
       <path d="M 19.1875 8.296875 
L 53.609375 8.296875 
L 53.609375 0 
L 7.328125 0 
L 7.328125 8.296875 
Q 12.9375 14.109375 22.625 23.890625 
Q 32.328125 33.6875 34.8125 36.53125 
Q 39.546875 41.84375 41.421875 45.53125 
Q 43.3125 49.21875 43.3125 52.78125 
Q 43.3125 58.59375 39.234375 62.25 
Q 35.15625 65.921875 28.609375 65.921875 
Q 23.96875 65.921875 18.8125 64.3125 
Q 13.671875 62.703125 7.8125 59.421875 
L 7.8125 69.390625 
Q 13.765625 71.78125 18.9375 73 
Q 24.125 74.21875 28.421875 74.21875 
Q 39.75 74.21875 46.484375 68.546875 
Q 53.21875 62.890625 53.21875 53.421875 
Q 53.21875 48.921875 51.53125 44.890625 
Q 49.859375 40.875 45.40625 35.40625 
Q 44.1875 33.984375 37.640625 27.21875 
Q 31.109375 20.453125 19.1875 8.296875 
z
" id="DejaVuSans-32"/>
      </defs>
      <g style="fill:#ffffff;" transform="translate(419.737871 339.945)scale(0.08 -0.08)">
       <use xlink:href="#DejaVuSans-31"/>
       <use x="63.623047" xlink:href="#DejaVuSans-32"/>
      </g>
     </g>
    </g>
    <g id="xtick_5">
     <g id="line2d_9"/>
    </g>
    <g id="xtick_6">
     <g id="line2d_10"/>
    </g>
    <g id="xtick_7">
     <g id="line2d_11"/>
    </g>
    <g id="xtick_8">
     <g id="line2d_12"/>
    </g>
    <g id="xtick_9">
     <g id="line2d_13"/>
    </g>
    <g id="xtick_10">
     <g id="line2d_14"/>
    </g>
    <g id="xtick_11">
     <g id="line2d_15"/>
    </g>
    <g id="xtick_12">
     <g id="line2d_16"/>
    </g>
    <g id="xtick_13">
     <g id="line2d_17"/>
    </g>
    <g id="xtick_14">
     <g id="line2d_18"/>
    </g>
    <g id="xtick_15">
     <g id="line2d_19"/>
    </g>
    <g id="xtick_16">
     <g id="line2d_20"/>
    </g>
    <g id="xtick_17">
     <g id="line2d_21"/>
    </g>
    <g id="xtick_18">
     <g id="line2d_22"/>
    </g>
    <g id="xtick_19">
     <g id="line2d_23"/>
    </g>
    <g id="xtick_20">
     <g id="line2d_24"/>
    </g>
    <g id="text_5">
     <!-- Date -->
     <defs>
      <path d="M 27.984375 58.6875 
L 27.984375 14.203125 
L 34.71875 14.203125 
Q 46.234375 14.203125 52.3125 19.921875 
Q 58.40625 25.640625 58.40625 36.53125 
Q 58.40625 47.359375 52.34375 53.015625 
Q 46.296875 58.6875 34.71875 58.6875 
z
M 9.1875 72.90625 
L 29 72.90625 
Q 45.609375 72.90625 53.734375 70.53125 
Q 61.859375 68.171875 67.671875 62.5 
Q 72.796875 57.5625 75.28125 51.109375 
Q 77.78125 44.671875 77.78125 36.53125 
Q 77.78125 28.265625 75.28125 21.796875 
Q 72.796875 15.328125 67.671875 10.40625 
Q 61.8125 4.734375 53.609375 2.359375 
Q 45.40625 0 29 0 
L 9.1875 0 
z
" id="DejaVuSans-Bold-44"/>
      <path d="M 32.90625 24.609375 
Q 27.4375 24.609375 24.671875 22.75 
Q 21.921875 20.90625 21.921875 17.28125 
Q 21.921875 13.96875 24.140625 12.078125 
Q 26.375 10.203125 30.328125 10.203125 
Q 35.25 10.203125 38.625 13.734375 
Q 42 17.28125 42 22.609375 
L 42 24.609375 
z
M 59.625 31.203125 
L 59.625 0 
L 42 0 
L 42 8.109375 
Q 38.484375 3.125 34.078125 0.84375 
Q 29.6875 -1.421875 23.390625 -1.421875 
Q 14.890625 -1.421875 9.59375 3.53125 
Q 4.296875 8.5 4.296875 16.40625 
Q 4.296875 26.03125 10.90625 30.515625 
Q 17.53125 35.015625 31.6875 35.015625 
L 42 35.015625 
L 42 36.375 
Q 42 40.53125 38.71875 42.453125 
Q 35.453125 44.390625 28.515625 44.390625 
Q 22.90625 44.390625 18.0625 43.265625 
Q 13.234375 42.140625 9.078125 39.890625 
L 9.078125 53.21875 
Q 14.703125 54.59375 20.359375 55.296875 
Q 26.03125 56 31.6875 56 
Q 46.484375 56 53.046875 50.171875 
Q 59.625 44.34375 59.625 31.203125 
z
" id="DejaVuSans-Bold-61"/>
      <path d="M 27.484375 70.21875 
L 27.484375 54.6875 
L 45.515625 54.6875 
L 45.515625 42.1875 
L 27.484375 42.1875 
L 27.484375 19 
Q 27.484375 15.1875 29 13.84375 
Q 30.515625 12.5 35.015625 12.5 
L 44 12.5 
L 44 0 
L 29 0 
Q 18.65625 0 14.328125 4.3125 
Q 10.015625 8.640625 10.015625 19 
L 10.015625 42.1875 
L 1.3125 42.1875 
L 1.3125 54.6875 
L 10.015625 54.6875 
L 10.015625 70.21875 
z
" id="DejaVuSans-Bold-74"/>
      <path d="M 62.984375 27.484375 
L 62.984375 22.515625 
L 22.125 22.515625 
Q 22.75 16.359375 26.5625 13.28125 
Q 30.375 10.203125 37.203125 10.203125 
Q 42.71875 10.203125 48.5 11.84375 
Q 54.296875 13.484375 60.40625 16.796875 
L 60.40625 3.328125 
Q 54.203125 0.984375 48 -0.21875 
Q 41.796875 -1.421875 35.59375 -1.421875 
Q 20.75 -1.421875 12.515625 6.125 
Q 4.296875 13.671875 4.296875 27.296875 
Q 4.296875 40.671875 12.375 48.328125 
Q 20.453125 56 34.625 56 
Q 47.515625 56 55.25 48.234375 
Q 62.984375 40.484375 62.984375 27.484375 
z
M 45.015625 33.296875 
Q 45.015625 38.28125 42.109375 41.328125 
Q 39.203125 44.390625 34.515625 44.390625 
Q 29.4375 44.390625 26.265625 41.53125 
Q 23.09375 38.671875 22.3125 33.296875 
z
" id="DejaVuSans-Bold-65"/>
     </defs>
     <g style="fill:#ffffff;" transform="translate(224.00575 353.207187)scale(0.1 -0.1)">
      <use xlink:href="#DejaVuSans-Bold-44"/>
      <use x="83.007812" xlink:href="#DejaVuSans-Bold-61"/>
      <use x="150.488281" xlink:href="#DejaVuSans-Bold-74"/>
      <use x="198.291016" xlink:href="#DejaVuSans-Bold-65"/>
     </g>
    </g>
   </g>
   <g id="matplotlib.axis_2">
    <g id="ytick_1">
     <g id="line2d_25">
      <path clip-path="url(#p355b192ef4)" d="M 36.864 309.961881 
L 437.76 309.961881 
" style="fill:none;stroke:#cbcbcb;"/>
     </g>
     <g id="line2d_26"/>
     <g id="text_6">
      <!-- 0 -->
      <g style="fill:#ffffff;" transform="translate(28.274 313.001256)scale(0.08 -0.08)">
       <use xlink:href="#DejaVuSans-30"/>
      </g>
     </g>
    </g>
    <g id="ytick_2">
     <g id="line2d_27">
      <path clip-path="url(#p355b192ef4)" d="M 36.864 274.365183 
L 437.76 274.365183 
" style="fill:none;stroke:#cbcbcb;"/>
     </g>
     <g id="line2d_28"/>
     <g id="text_7">
      <!-- 2000 -->
      <g style="fill:#ffffff;" transform="translate(13.004 277.404558)scale(0.08 -0.08)">
       <use xlink:href="#DejaVuSans-32"/>
       <use x="63.623047" xlink:href="#DejaVuSans-30"/>
       <use x="127.246094" xlink:href="#DejaVuSans-30"/>
       <use x="190.869141" xlink:href="#DejaVuSans-30"/>
      </g>
     </g>
    </g>
    <g id="ytick_3">
     <g id="line2d_29">
      <path clip-path="url(#p355b192ef4)" d="M 36.864 238.768484 
L 437.76 238.768484 
" style="fill:none;stroke:#cbcbcb;"/>
     </g>
     <g id="line2d_30"/>
     <g id="text_8">
      <!-- 4000 -->
      <defs>
       <path d="M 37.796875 64.3125 
L 12.890625 25.390625 
L 37.796875 25.390625 
z
M 35.203125 72.90625 
L 47.609375 72.90625 
L 47.609375 25.390625 
L 58.015625 25.390625 
L 58.015625 17.1875 
L 47.609375 17.1875 
L 47.609375 0 
L 37.796875 0 
L 37.796875 17.1875 
L 4.890625 17.1875 
L 4.890625 26.703125 
z
" id="DejaVuSans-34"/>
      </defs>
      <g style="fill:#ffffff;" transform="translate(13.004 241.807859)scale(0.08 -0.08)">
       <use xlink:href="#DejaVuSans-34"/>
       <use x="63.623047" xlink:href="#DejaVuSans-30"/>
       <use x="127.246094" xlink:href="#DejaVuSans-30"/>
       <use x="190.869141" xlink:href="#DejaVuSans-30"/>
      </g>
     </g>
    </g>
    <g id="ytick_4">
     <g id="line2d_31">
      <path clip-path="url(#p355b192ef4)" d="M 36.864 203.171785 
L 437.76 203.171785 
" style="fill:none;stroke:#cbcbcb;"/>
     </g>
     <g id="line2d_32"/>
     <g id="text_9">
      <!-- 6000 -->
      <defs>
       <path d="M 33.015625 40.375 
Q 26.375 40.375 22.484375 35.828125 
Q 18.609375 31.296875 18.609375 23.390625 
Q 18.609375 15.53125 22.484375 10.953125 
Q 26.375 6.390625 33.015625 6.390625 
Q 39.65625 6.390625 43.53125 10.953125 
Q 47.40625 15.53125 47.40625 23.390625 
Q 47.40625 31.296875 43.53125 35.828125 
Q 39.65625 40.375 33.015625 40.375 
z
M 52.59375 71.296875 
L 52.59375 62.3125 
Q 48.875 64.0625 45.09375 64.984375 
Q 41.3125 65.921875 37.59375 65.921875 
Q 27.828125 65.921875 22.671875 59.328125 
Q 17.53125 52.734375 16.796875 39.40625 
Q 19.671875 43.65625 24.015625 45.921875 
Q 28.375 48.1875 33.59375 48.1875 
Q 44.578125 48.1875 50.953125 41.515625 
Q 57.328125 34.859375 57.328125 23.390625 
Q 57.328125 12.15625 50.6875 5.359375 
Q 44.046875 -1.421875 33.015625 -1.421875 
Q 20.359375 -1.421875 13.671875 8.265625 
Q 6.984375 17.96875 6.984375 36.375 
Q 6.984375 53.65625 15.1875 63.9375 
Q 23.390625 74.21875 37.203125 74.21875 
Q 40.921875 74.21875 44.703125 73.484375 
Q 48.484375 72.75 52.59375 71.296875 
z
" id="DejaVuSans-36"/>
      </defs>
      <g style="fill:#ffffff;" transform="translate(13.004 206.21116)scale(0.08 -0.08)">
       <use xlink:href="#DejaVuSans-36"/>
       <use x="63.623047" xlink:href="#DejaVuSans-30"/>
       <use x="127.246094" xlink:href="#DejaVuSans-30"/>
       <use x="190.869141" xlink:href="#DejaVuSans-30"/>
      </g>
     </g>
    </g>
    <g id="ytick_5">
     <g id="line2d_33">
      <path clip-path="url(#p355b192ef4)" d="M 36.864 167.575086 
L 437.76 167.575086 
" style="fill:none;stroke:#cbcbcb;"/>
     </g>
     <g id="line2d_34"/>
     <g id="text_10">
      <!-- 8000 -->
      <defs>
       <path d="M 31.78125 34.625 
Q 24.75 34.625 20.71875 30.859375 
Q 16.703125 27.09375 16.703125 20.515625 
Q 16.703125 13.921875 20.71875 10.15625 
Q 24.75 6.390625 31.78125 6.390625 
Q 38.8125 6.390625 42.859375 10.171875 
Q 46.921875 13.96875 46.921875 20.515625 
Q 46.921875 27.09375 42.890625 30.859375 
Q 38.875 34.625 31.78125 34.625 
z
M 21.921875 38.8125 
Q 15.578125 40.375 12.03125 44.71875 
Q 8.5 49.078125 8.5 55.328125 
Q 8.5 64.0625 14.71875 69.140625 
Q 20.953125 74.21875 31.78125 74.21875 
Q 42.671875 74.21875 48.875 69.140625 
Q 55.078125 64.0625 55.078125 55.328125 
Q 55.078125 49.078125 51.53125 44.71875 
Q 48 40.375 41.703125 38.8125 
Q 48.828125 37.15625 52.796875 32.3125 
Q 56.78125 27.484375 56.78125 20.515625 
Q 56.78125 9.90625 50.3125 4.234375 
Q 43.84375 -1.421875 31.78125 -1.421875 
Q 19.734375 -1.421875 13.25 4.234375 
Q 6.78125 9.90625 6.78125 20.515625 
Q 6.78125 27.484375 10.78125 32.3125 
Q 14.796875 37.15625 21.921875 38.8125 
z
M 18.3125 54.390625 
Q 18.3125 48.734375 21.84375 45.5625 
Q 25.390625 42.390625 31.78125 42.390625 
Q 38.140625 42.390625 41.71875 45.5625 
Q 45.3125 48.734375 45.3125 54.390625 
Q 45.3125 60.0625 41.71875 63.234375 
Q 38.140625 66.40625 31.78125 66.40625 
Q 25.390625 66.40625 21.84375 63.234375 
Q 18.3125 60.0625 18.3125 54.390625 
z
" id="DejaVuSans-38"/>
      </defs>
      <g style="fill:#ffffff;" transform="translate(13.004 170.614461)scale(0.08 -0.08)">
       <use xlink:href="#DejaVuSans-38"/>
       <use x="63.623047" xlink:href="#DejaVuSans-30"/>
       <use x="127.246094" xlink:href="#DejaVuSans-30"/>
       <use x="190.869141" xlink:href="#DejaVuSans-30"/>
      </g>
     </g>
    </g>
    <g id="ytick_6">
     <g id="line2d_35">
      <path clip-path="url(#p355b192ef4)" d="M 36.864 131.978387 
L 437.76 131.978387 
" style="fill:none;stroke:#cbcbcb;"/>
     </g>
     <g id="line2d_36"/>
     <g id="text_11">
      <!-- 10000 -->
      <g style="fill:#ffffff;" transform="translate(7.914 135.017762)scale(0.08 -0.08)">
       <use xlink:href="#DejaVuSans-31"/>
       <use x="63.623047" xlink:href="#DejaVuSans-30"/>
       <use x="127.246094" xlink:href="#DejaVuSans-30"/>
       <use x="190.869141" xlink:href="#DejaVuSans-30"/>
       <use x="254.492188" xlink:href="#DejaVuSans-30"/>
      </g>
     </g>
    </g>
    <g id="ytick_7">
     <g id="line2d_37">
      <path clip-path="url(#p355b192ef4)" d="M 36.864 96.381688 
L 437.76 96.381688 
" style="fill:none;stroke:#cbcbcb;"/>
     </g>
     <g id="line2d_38"/>
     <g id="text_12">
      <!-- 12000 -->
      <g style="fill:#ffffff;" transform="translate(7.914 99.421063)scale(0.08 -0.08)">
       <use xlink:href="#DejaVuSans-31"/>
       <use x="63.623047" xlink:href="#DejaVuSans-32"/>
       <use x="127.246094" xlink:href="#DejaVuSans-30"/>
       <use x="190.869141" xlink:href="#DejaVuSans-30"/>
       <use x="254.492188" xlink:href="#DejaVuSans-30"/>
      </g>
     </g>
    </g>
    <g id="ytick_8">
     <g id="line2d_39">
      <path clip-path="url(#p355b192ef4)" d="M 36.864 60.784989 
L 437.76 60.784989 
" style="fill:none;stroke:#cbcbcb;"/>
     </g>
     <g id="line2d_40"/>
     <g id="text_13">
      <!-- 14000 -->
      <g style="fill:#ffffff;" transform="translate(7.914 63.824364)scale(0.08 -0.08)">
       <use xlink:href="#DejaVuSans-31"/>
       <use x="63.623047" xlink:href="#DejaVuSans-34"/>
       <use x="127.246094" xlink:href="#DejaVuSans-30"/>
       <use x="190.869141" xlink:href="#DejaVuSans-30"/>
       <use x="254.492188" xlink:href="#DejaVuSans-30"/>
      </g>
     </g>
    </g>
    <g id="text_14">
     <!-- Step Count -->
     <defs>
      <path d="M 59.90625 70.609375 
L 59.90625 55.171875 
Q 53.90625 57.859375 48.1875 59.21875 
Q 42.484375 60.59375 37.40625 60.59375 
Q 30.671875 60.59375 27.4375 58.734375 
Q 24.21875 56.890625 24.21875 52.984375 
Q 24.21875 50.046875 26.390625 48.40625 
Q 28.5625 46.78125 34.28125 45.609375 
L 42.28125 44 
Q 54.4375 41.546875 59.5625 36.5625 
Q 64.703125 31.59375 64.703125 22.40625 
Q 64.703125 10.359375 57.546875 4.46875 
Q 50.390625 -1.421875 35.6875 -1.421875 
Q 28.765625 -1.421875 21.78125 -0.09375 
Q 14.796875 1.21875 7.8125 3.8125 
L 7.8125 19.671875 
Q 14.796875 15.96875 21.3125 14.078125 
Q 27.828125 12.203125 33.890625 12.203125 
Q 40.046875 12.203125 43.3125 14.25 
Q 46.578125 16.3125 46.578125 20.125 
Q 46.578125 23.53125 44.359375 25.390625 
Q 42.140625 27.25 35.5 28.71875 
L 28.21875 30.328125 
Q 17.28125 32.671875 12.21875 37.796875 
Q 7.171875 42.921875 7.171875 51.609375 
Q 7.171875 62.5 14.203125 68.359375 
Q 21.234375 74.21875 34.421875 74.21875 
Q 40.4375 74.21875 46.78125 73.3125 
Q 53.125 72.40625 59.90625 70.609375 
z
" id="DejaVuSans-Bold-53"/>
      <path d="M 25.875 7.90625 
L 25.875 -20.796875 
L 8.40625 -20.796875 
L 8.40625 54.6875 
L 25.875 54.6875 
L 25.875 46.6875 
Q 29.5 51.46875 33.890625 53.734375 
Q 38.28125 56 44 56 
Q 54.109375 56 60.59375 47.96875 
Q 67.09375 39.9375 67.09375 27.296875 
Q 67.09375 14.65625 60.59375 6.609375 
Q 54.109375 -1.421875 44 -1.421875 
Q 38.28125 -1.421875 33.890625 0.84375 
Q 29.5 3.125 25.875 7.90625 
z
M 37.5 43.3125 
Q 31.890625 43.3125 28.875 39.1875 
Q 25.875 35.0625 25.875 27.296875 
Q 25.875 19.53125 28.875 15.40625 
Q 31.890625 11.28125 37.5 11.28125 
Q 43.109375 11.28125 46.0625 15.375 
Q 49.03125 19.484375 49.03125 27.296875 
Q 49.03125 35.109375 46.0625 39.203125 
Q 43.109375 43.3125 37.5 43.3125 
z
" id="DejaVuSans-Bold-70"/>
      <path id="DejaVuSans-Bold-20"/>
      <path d="M 67 4 
Q 61.8125 1.3125 56.203125 -0.046875 
Q 50.59375 -1.421875 44.484375 -1.421875 
Q 26.265625 -1.421875 15.625 8.765625 
Q 4.984375 18.953125 4.984375 36.375 
Q 4.984375 53.859375 15.625 64.03125 
Q 26.265625 74.21875 44.484375 74.21875 
Q 50.59375 74.21875 56.203125 72.84375 
Q 61.8125 71.484375 67 68.796875 
L 67 53.71875 
Q 61.765625 57.28125 56.6875 58.9375 
Q 51.609375 60.59375 46 60.59375 
Q 35.9375 60.59375 30.171875 54.140625 
Q 24.421875 47.703125 24.421875 36.375 
Q 24.421875 25.09375 30.171875 18.640625 
Q 35.9375 12.203125 46 12.203125 
Q 51.609375 12.203125 56.6875 13.859375 
Q 61.765625 15.53125 67 19.09375 
z
" id="DejaVuSans-Bold-43"/>
      <path d="M 34.421875 43.5 
Q 28.609375 43.5 25.5625 39.328125 
Q 22.515625 35.15625 22.515625 27.296875 
Q 22.515625 19.4375 25.5625 15.25 
Q 28.609375 11.078125 34.421875 11.078125 
Q 40.140625 11.078125 43.15625 15.25 
Q 46.1875 19.4375 46.1875 27.296875 
Q 46.1875 35.15625 43.15625 39.328125 
Q 40.140625 43.5 34.421875 43.5 
z
M 34.421875 56 
Q 48.53125 56 56.46875 48.375 
Q 64.40625 40.765625 64.40625 27.296875 
Q 64.40625 13.8125 56.46875 6.1875 
Q 48.53125 -1.421875 34.421875 -1.421875 
Q 20.265625 -1.421875 12.28125 6.1875 
Q 4.296875 13.8125 4.296875 27.296875 
Q 4.296875 40.765625 12.28125 48.375 
Q 20.265625 56 34.421875 56 
z
" id="DejaVuSans-Bold-6f"/>
      <path d="M 7.8125 21.296875 
L 7.8125 54.6875 
L 25.390625 54.6875 
L 25.390625 49.21875 
Q 25.390625 44.78125 25.34375 38.0625 
Q 25.296875 31.34375 25.296875 29.109375 
Q 25.296875 22.515625 25.640625 19.609375 
Q 25.984375 16.703125 26.8125 15.375 
Q 27.875 13.671875 29.609375 12.734375 
Q 31.34375 11.8125 33.59375 11.8125 
Q 39.0625 11.8125 42.1875 16.015625 
Q 45.3125 20.21875 45.3125 27.6875 
L 45.3125 54.6875 
L 62.796875 54.6875 
L 62.796875 0 
L 45.3125 0 
L 45.3125 7.90625 
Q 41.359375 3.125 36.9375 0.84375 
Q 32.515625 -1.421875 27.203125 -1.421875 
Q 17.71875 -1.421875 12.765625 4.390625 
Q 7.8125 10.203125 7.8125 21.296875 
z
" id="DejaVuSans-Bold-75"/>
      <path d="M 63.375 33.296875 
L 63.375 0 
L 45.796875 0 
L 45.796875 5.421875 
L 45.796875 25.484375 
Q 45.796875 32.5625 45.484375 35.25 
Q 45.171875 37.9375 44.390625 39.203125 
Q 43.359375 40.921875 41.59375 41.875 
Q 39.84375 42.828125 37.59375 42.828125 
Q 32.125 42.828125 29 38.59375 
Q 25.875 34.375 25.875 26.90625 
L 25.875 0 
L 8.40625 0 
L 8.40625 54.6875 
L 25.875 54.6875 
L 25.875 46.6875 
Q 29.828125 51.46875 34.265625 53.734375 
Q 38.71875 56 44.09375 56 
Q 53.5625 56 58.46875 50.1875 
Q 63.375 44.390625 63.375 33.296875 
z
" id="DejaVuSans-Bold-6e"/>
     </defs>
     <g style="fill:#ffffff;" transform="translate(1.834313 212.754844)rotate(-90)scale(0.1 -0.1)">
      <use xlink:href="#DejaVuSans-Bold-53"/>
      <use x="72.021484" xlink:href="#DejaVuSans-Bold-74"/>
      <use x="119.824219" xlink:href="#DejaVuSans-Bold-65"/>
      <use x="187.646484" xlink:href="#DejaVuSans-Bold-70"/>
      <use x="259.228516" xlink:href="#DejaVuSans-Bold-20"/>
      <use x="294.042969" xlink:href="#DejaVuSans-Bold-43"/>
      <use x="367.431641" xlink:href="#DejaVuSans-Bold-6f"/>
      <use x="436.132812" xlink:href="#DejaVuSans-Bold-75"/>
      <use x="507.324219" xlink:href="#DejaVuSans-Bold-6e"/>
      <use x="578.515625" xlink:href="#DejaVuSans-Bold-74"/>
     </g>
    </g>
   </g>
   <g id="PathCollection_1">
    <defs>
     <path d="M 0 0.707107 
C 0.187527 0.707107 0.367398 0.632602 0.5 0.5 
C 0.632602 0.367398 0.707107 0.187527 0.707107 0 
C 0.707107 -0.187527 0.632602 -0.367398 0.5 -0.5 
C 0.367398 -0.632602 0.187527 -0.707107 0 -0.707107 
C -0.187527 -0.707107 -0.367398 -0.632602 -0.5 -0.5 
C -0.632602 -0.367398 -0.707107 -0.187527 -0.707107 0 
C -0.707107 0.187527 -0.632602 0.367398 -0.5 0.5 
C -0.367398 0.632602 -0.187527 0.707107 0 0.707107 
z
" id="m76fce74849" style="stroke:#dcd6f7;stroke-opacity:0.8;stroke-width:0.5;"/>
    </defs>
    <g clip-path="url(#p355b192ef4)">
     <use style="fill:#dcd6f7;fill-opacity:0.8;stroke:#dcd6f7;stroke-opacity:0.8;stroke-width:0.5;" x="392.497548" xlink:href="#m76fce74849" y="308.217643"/>
     <use style="fill:#dcd6f7;fill-opacity:0.8;stroke:#dcd6f7;stroke-opacity:0.8;stroke-width:0.5;" x="389.264516" xlink:href="#m76fce74849" y="308.555812"/>
     <use style="fill:#dcd6f7;fill-opacity:0.8;stroke:#dcd6f7;stroke-opacity:0.8;stroke-width:0.5;" x="386.031484" xlink:href="#m76fce74849" y="251.31632"/>
     <use style="fill:#dcd6f7;fill-opacity:0.8;stroke:#dcd6f7;stroke-opacity:0.8;stroke-width:0.5;" x="382.798452" xlink:href="#m76fce74849" y="235.920748"/>
     <use style="fill:#dcd6f7;fill-opacity:0.8;stroke:#dcd6f7;stroke-opacity:0.8;stroke-width:0.5;" x="379.565419" xlink:href="#m76fce74849" y="249.3763"/>
     <use style="fill:#dcd6f7;fill-opacity:0.8;stroke:#dcd6f7;stroke-opacity:0.8;stroke-width:0.5;" x="376.332387" xlink:href="#m76fce74849" y="259.663746"/>
     <use style="fill:#dcd6f7;fill-opacity:0.8;stroke:#dcd6f7;stroke-opacity:0.8;stroke-width:0.5;" x="373.099355" xlink:href="#m76fce74849" y="273.564257"/>
     <use style="fill:#dcd6f7;fill-opacity:0.8;stroke:#dcd6f7;stroke-opacity:0.8;stroke-width:0.5;" x="369.866323" xlink:href="#m76fce74849" y="270.752118"/>
     <use style="fill:#dcd6f7;fill-opacity:0.8;stroke:#dcd6f7;stroke-opacity:0.8;stroke-width:0.5;" x="366.63329" xlink:href="#m76fce74849" y="224.13824"/>
     <use style="fill:#dcd6f7;fill-opacity:0.8;stroke:#dcd6f7;stroke-opacity:0.8;stroke-width:0.5;" x="363.400258" xlink:href="#m76fce74849" y="250.817966"/>
     <use style="fill:#dcd6f7;fill-opacity:0.8;stroke:#dcd6f7;stroke-opacity:0.8;stroke-width:0.5;" x="360.167226" xlink:href="#m76fce74849" y="164.780745"/>
     <use style="fill:#dcd6f7;fill-opacity:0.8;stroke:#dcd6f7;stroke-opacity:0.8;stroke-width:0.5;" x="356.934194" xlink:href="#m76fce74849" y="265.537201"/>
     <use style="fill:#dcd6f7;fill-opacity:0.8;stroke:#dcd6f7;stroke-opacity:0.8;stroke-width:0.5;" x="353.701161" xlink:href="#m76fce74849" y="253.914879"/>
     <use style="fill:#dcd6f7;fill-opacity:0.8;stroke:#dcd6f7;stroke-opacity:0.8;stroke-width:0.5;" x="350.468129" xlink:href="#m76fce74849" y="290.543882"/>
     <use style="fill:#dcd6f7;fill-opacity:0.8;stroke:#dcd6f7;stroke-opacity:0.8;stroke-width:0.5;" x="347.235097" xlink:href="#m76fce74849" y="268.527324"/>
     <use style="fill:#dcd6f7;fill-opacity:0.8;stroke:#dcd6f7;stroke-opacity:0.8;stroke-width:0.5;" x="344.002065" xlink:href="#m76fce74849" y="293.676392"/>
     <use style="fill:#dcd6f7;fill-opacity:0.8;stroke:#dcd6f7;stroke-opacity:0.8;stroke-width:0.5;" x="340.769032" xlink:href="#m76fce74849" y="272.229381"/>
     <use style="fill:#dcd6f7;fill-opacity:0.8;stroke:#dcd6f7;stroke-opacity:0.8;stroke-width:0.5;" x="337.536" xlink:href="#m76fce74849" y="186.601521"/>
     <use style="fill:#dcd6f7;fill-opacity:0.8;stroke:#dcd6f7;stroke-opacity:0.8;stroke-width:0.5;" x="334.302968" xlink:href="#m76fce74849" y="285.506949"/>
     <use style="fill:#dcd6f7;fill-opacity:0.8;stroke:#dcd6f7;stroke-opacity:0.8;stroke-width:0.5;" x="331.069935" xlink:href="#m76fce74849" y="240.21015"/>
     <use style="fill:#dcd6f7;fill-opacity:0.8;stroke:#dcd6f7;stroke-opacity:0.8;stroke-width:0.5;" x="327.836903" xlink:href="#m76fce74849" y="235.422394"/>
     <use style="fill:#dcd6f7;fill-opacity:0.8;stroke:#dcd6f7;stroke-opacity:0.8;stroke-width:0.5;" x="324.603871" xlink:href="#m76fce74849" y="266.320329"/>
     <use style="fill:#dcd6f7;fill-opacity:0.8;stroke:#dcd6f7;stroke-opacity:0.8;stroke-width:0.5;" x="321.370839" xlink:href="#m76fce74849" y="251.42311"/>
     <use style="fill:#dcd6f7;fill-opacity:0.8;stroke:#dcd6f7;stroke-opacity:0.8;stroke-width:0.5;" x="318.137806" xlink:href="#m76fce74849" y="237.842969"/>
     <use style="fill:#dcd6f7;fill-opacity:0.8;stroke:#dcd6f7;stroke-opacity:0.8;stroke-width:0.5;" x="314.904774" xlink:href="#m76fce74849" y="235.013032"/>
     <use style="fill:#dcd6f7;fill-opacity:0.8;stroke:#dcd6f7;stroke-opacity:0.8;stroke-width:0.5;" x="311.671742" xlink:href="#m76fce74849" y="212.266741"/>
     <use style="fill:#dcd6f7;fill-opacity:0.8;stroke:#dcd6f7;stroke-opacity:0.8;stroke-width:0.5;" x="308.43871" xlink:href="#m76fce74849" y="289.778553"/>
     <use style="fill:#dcd6f7;fill-opacity:0.8;stroke:#dcd6f7;stroke-opacity:0.8;stroke-width:0.5;" x="305.205677" xlink:href="#m76fce74849" y="221.735463"/>
     <use style="fill:#dcd6f7;fill-opacity:0.8;stroke:#dcd6f7;stroke-opacity:0.8;stroke-width:0.5;" x="301.972645" xlink:href="#m76fce74849" y="285.631538"/>
     <use style="fill:#dcd6f7;fill-opacity:0.8;stroke:#dcd6f7;stroke-opacity:0.8;stroke-width:0.5;" x="298.739613" xlink:href="#m76fce74849" y="277.551087"/>
     <use style="fill:#dcd6f7;fill-opacity:0.8;stroke:#dcd6f7;stroke-opacity:0.8;stroke-width:0.5;" x="295.506581" xlink:href="#m76fce74849" y="240.7441"/>
     <use style="fill:#dcd6f7;fill-opacity:0.8;stroke:#dcd6f7;stroke-opacity:0.8;stroke-width:0.5;" x="292.273548" xlink:href="#m76fce74849" y="257.065187"/>
     <use style="fill:#dcd6f7;fill-opacity:0.8;stroke:#dcd6f7;stroke-opacity:0.8;stroke-width:0.5;" x="289.040516" xlink:href="#m76fce74849" y="290.045528"/>
     <use style="fill:#dcd6f7;fill-opacity:0.8;stroke:#dcd6f7;stroke-opacity:0.8;stroke-width:0.5;" x="285.807484" xlink:href="#m76fce74849" y="282.534625"/>
     <use style="fill:#dcd6f7;fill-opacity:0.8;stroke:#dcd6f7;stroke-opacity:0.8;stroke-width:0.5;" x="282.574452" xlink:href="#m76fce74849" y="278.70798"/>
     <use style="fill:#dcd6f7;fill-opacity:0.8;stroke:#dcd6f7;stroke-opacity:0.8;stroke-width:0.5;" x="279.341419" xlink:href="#m76fce74849" y="280.487815"/>
     <use style="fill:#dcd6f7;fill-opacity:0.8;stroke:#dcd6f7;stroke-opacity:0.8;stroke-width:0.5;" x="276.108387" xlink:href="#m76fce74849" y="217.552851"/>
     <use style="fill:#dcd6f7;fill-opacity:0.8;stroke:#dcd6f7;stroke-opacity:0.8;stroke-width:0.5;" x="272.875355" xlink:href="#m76fce74849" y="155.863772"/>
     <use style="fill:#dcd6f7;fill-opacity:0.8;stroke:#dcd6f7;stroke-opacity:0.8;stroke-width:0.5;" x="269.642323" xlink:href="#m76fce74849" y="119.43055"/>
     <use style="fill:#dcd6f7;fill-opacity:0.8;stroke:#dcd6f7;stroke-opacity:0.8;stroke-width:0.5;" x="266.40929" xlink:href="#m76fce74849" y="193.525079"/>
     <use style="fill:#dcd6f7;fill-opacity:0.8;stroke:#dcd6f7;stroke-opacity:0.8;stroke-width:0.5;" x="263.176258" xlink:href="#m76fce74849" y="267.423826"/>
     <use style="fill:#dcd6f7;fill-opacity:0.8;stroke:#dcd6f7;stroke-opacity:0.8;stroke-width:0.5;" x="259.943226" xlink:href="#m76fce74849" y="285.684933"/>
     <use style="fill:#dcd6f7;fill-opacity:0.8;stroke:#dcd6f7;stroke-opacity:0.8;stroke-width:0.5;" x="256.710194" xlink:href="#m76fce74849" y="268.260349"/>
     <use style="fill:#dcd6f7;fill-opacity:0.8;stroke:#dcd6f7;stroke-opacity:0.8;stroke-width:0.5;" x="253.477161" xlink:href="#m76fce74849" y="249.05593"/>
     <use style="fill:#dcd6f7;fill-opacity:0.8;stroke:#dcd6f7;stroke-opacity:0.8;stroke-width:0.5;" x="250.244129" xlink:href="#m76fce74849" y="210.736083"/>
     <use style="fill:#dcd6f7;fill-opacity:0.8;stroke:#dcd6f7;stroke-opacity:0.8;stroke-width:0.5;" x="247.011097" xlink:href="#m76fce74849" y="269.239258"/>
     <use style="fill:#dcd6f7;fill-opacity:0.8;stroke:#dcd6f7;stroke-opacity:0.8;stroke-width:0.5;" x="243.778065" xlink:href="#m76fce74849" y="277.266314"/>
     <use style="fill:#dcd6f7;fill-opacity:0.8;stroke:#dcd6f7;stroke-opacity:0.8;stroke-width:0.5;" x="240.545032" xlink:href="#m76fce74849" y="271.90901"/>
     <use style="fill:#dcd6f7;fill-opacity:0.8;stroke:#dcd6f7;stroke-opacity:0.8;stroke-width:0.5;" x="237.312" xlink:href="#m76fce74849" y="235.457991"/>
     <use style="fill:#dcd6f7;fill-opacity:0.8;stroke:#dcd6f7;stroke-opacity:0.8;stroke-width:0.5;" x="234.078968" xlink:href="#m76fce74849" y="258.613643"/>
     <use style="fill:#dcd6f7;fill-opacity:0.8;stroke:#dcd6f7;stroke-opacity:0.8;stroke-width:0.5;" x="230.845935" xlink:href="#m76fce74849" y="236.294513"/>
     <use style="fill:#dcd6f7;fill-opacity:0.8;stroke:#dcd6f7;stroke-opacity:0.8;stroke-width:0.5;" x="227.612903" xlink:href="#m76fce74849" y="97.876749"/>
     <use style="fill:#dcd6f7;fill-opacity:0.8;stroke:#dcd6f7;stroke-opacity:0.8;stroke-width:0.5;" x="224.379871" xlink:href="#m76fce74849" y="142.710792"/>
     <use style="fill:#dcd6f7;fill-opacity:0.8;stroke:#dcd6f7;stroke-opacity:0.8;stroke-width:0.5;" x="221.146839" xlink:href="#m76fce74849" y="268.954484"/>
     <use style="fill:#dcd6f7;fill-opacity:0.8;stroke:#dcd6f7;stroke-opacity:0.8;stroke-width:0.5;" x="217.913806" xlink:href="#m76fce74849" y="287.678348"/>
     <use style="fill:#dcd6f7;fill-opacity:0.8;stroke:#dcd6f7;stroke-opacity:0.8;stroke-width:0.5;" x="214.680774" xlink:href="#m76fce74849" y="237.593793"/>
     <use style="fill:#dcd6f7;fill-opacity:0.8;stroke:#dcd6f7;stroke-opacity:0.8;stroke-width:0.5;" x="211.447742" xlink:href="#m76fce74849" y="264.57609"/>
     <use style="fill:#dcd6f7;fill-opacity:0.8;stroke:#dcd6f7;stroke-opacity:0.8;stroke-width:0.5;" x="208.21471" xlink:href="#m76fce74849" y="254.893788"/>
     <use style="fill:#dcd6f7;fill-opacity:0.8;stroke:#dcd6f7;stroke-opacity:0.8;stroke-width:0.5;" x="204.981677" xlink:href="#m76fce74849" y="54.324188"/>
     <use style="fill:#dcd6f7;fill-opacity:0.8;stroke:#dcd6f7;stroke-opacity:0.8;stroke-width:0.5;" x="201.748645" xlink:href="#m76fce74849" y="258.079693"/>
     <use style="fill:#dcd6f7;fill-opacity:0.8;stroke:#dcd6f7;stroke-opacity:0.8;stroke-width:0.5;" x="198.515613" xlink:href="#m76fce74849" y="245.336075"/>
     <use style="fill:#dcd6f7;fill-opacity:0.8;stroke:#dcd6f7;stroke-opacity:0.8;stroke-width:0.5;" x="195.282581" xlink:href="#m76fce74849" y="257.207574"/>
     <use style="fill:#dcd6f7;fill-opacity:0.8;stroke:#dcd6f7;stroke-opacity:0.8;stroke-width:0.5;" x="192.049548" xlink:href="#m76fce74849" y="255.623521"/>
     <use style="fill:#dcd6f7;fill-opacity:0.8;stroke:#dcd6f7;stroke-opacity:0.8;stroke-width:0.5;" x="188.816516" xlink:href="#m76fce74849" y="178.734651"/>
     <use style="fill:#dcd6f7;fill-opacity:0.8;stroke:#dcd6f7;stroke-opacity:0.8;stroke-width:0.5;" x="185.583484" xlink:href="#m76fce74849" y="254.786998"/>
     <use style="fill:#dcd6f7;fill-opacity:0.8;stroke:#dcd6f7;stroke-opacity:0.8;stroke-width:0.5;" x="182.350452" xlink:href="#m76fce74849" y="250.319612"/>
     <use style="fill:#dcd6f7;fill-opacity:0.8;stroke:#dcd6f7;stroke-opacity:0.8;stroke-width:0.5;" x="179.117419" xlink:href="#m76fce74849" y="258.471256"/>
     <use style="fill:#dcd6f7;fill-opacity:0.8;stroke:#dcd6f7;stroke-opacity:0.8;stroke-width:0.5;" x="175.884387" xlink:href="#m76fce74849" y="287.998718"/>
     <use style="fill:#dcd6f7;fill-opacity:0.8;stroke:#dcd6f7;stroke-opacity:0.8;stroke-width:0.5;" x="172.651355" xlink:href="#m76fce74849" y="283.905098"/>
     <use style="fill:#dcd6f7;fill-opacity:0.8;stroke:#dcd6f7;stroke-opacity:0.8;stroke-width:0.5;" x="169.418323" xlink:href="#m76fce74849" y="278.316416"/>
     <use style="fill:#dcd6f7;fill-opacity:0.8;stroke:#dcd6f7;stroke-opacity:0.8;stroke-width:0.5;" x="166.18529" xlink:href="#m76fce74849" y="292.590692"/>
     <use style="fill:#dcd6f7;fill-opacity:0.8;stroke:#dcd6f7;stroke-opacity:0.8;stroke-width:0.5;" x="162.952258" xlink:href="#m76fce74849" y="282.196456"/>
     <use style="fill:#dcd6f7;fill-opacity:0.8;stroke:#dcd6f7;stroke-opacity:0.8;stroke-width:0.5;" x="159.719226" xlink:href="#m76fce74849" y="215.256864"/>
     <use style="fill:#dcd6f7;fill-opacity:0.8;stroke:#dcd6f7;stroke-opacity:0.8;stroke-width:0.5;" x="156.486194" xlink:href="#m76fce74849" y="217.303674"/>
     <use style="fill:#dcd6f7;fill-opacity:0.8;stroke:#dcd6f7;stroke-opacity:0.8;stroke-width:0.5;" x="153.253161" xlink:href="#m76fce74849" y="277.497692"/>
     <use style="fill:#dcd6f7;fill-opacity:0.8;stroke:#dcd6f7;stroke-opacity:0.8;stroke-width:0.5;" x="150.020129" xlink:href="#m76fce74849" y="231.987312"/>
     <use style="fill:#dcd6f7;fill-opacity:0.8;stroke:#dcd6f7;stroke-opacity:0.8;stroke-width:0.5;" x="146.787097" xlink:href="#m76fce74849" y="275.272898"/>
     <use style="fill:#dcd6f7;fill-opacity:0.8;stroke:#dcd6f7;stroke-opacity:0.8;stroke-width:0.5;" x="143.554065" xlink:href="#m76fce74849" y="223.960257"/>
     <use style="fill:#dcd6f7;fill-opacity:0.8;stroke:#dcd6f7;stroke-opacity:0.8;stroke-width:0.5;" x="140.321032" xlink:href="#m76fce74849" y="239.88978"/>
     <use style="fill:#dcd6f7;fill-opacity:0.8;stroke:#dcd6f7;stroke-opacity:0.8;stroke-width:0.5;" x="137.088" xlink:href="#m76fce74849" y="233.482374"/>
     <use style="fill:#dcd6f7;fill-opacity:0.8;stroke:#dcd6f7;stroke-opacity:0.8;stroke-width:0.5;" x="133.854968" xlink:href="#m76fce74849" y="220.400587"/>
     <use style="fill:#dcd6f7;fill-opacity:0.8;stroke:#dcd6f7;stroke-opacity:0.8;stroke-width:0.5;" x="130.621935" xlink:href="#m76fce74849" y="257.314364"/>
     <use style="fill:#dcd6f7;fill-opacity:0.8;stroke:#dcd6f7;stroke-opacity:0.8;stroke-width:0.5;" x="127.388903" xlink:href="#m76fce74849" y="262.600474"/>
     <use style="fill:#dcd6f7;fill-opacity:0.8;stroke:#dcd6f7;stroke-opacity:0.8;stroke-width:0.5;" x="124.155871" xlink:href="#m76fce74849" y="268.011172"/>
     <use style="fill:#dcd6f7;fill-opacity:0.8;stroke:#dcd6f7;stroke-opacity:0.8;stroke-width:0.5;" x="120.922839" xlink:href="#m76fce74849" y="278.049441"/>
     <use style="fill:#dcd6f7;fill-opacity:0.8;stroke:#dcd6f7;stroke-opacity:0.8;stroke-width:0.5;" x="117.689806" xlink:href="#m76fce74849" y="250.461999"/>
     <use style="fill:#dcd6f7;fill-opacity:0.8;stroke:#dcd6f7;stroke-opacity:0.8;stroke-width:0.5;" x="114.456774" xlink:href="#m76fce74849" y="257.883911"/>
     <use style="fill:#dcd6f7;fill-opacity:0.8;stroke:#dcd6f7;stroke-opacity:0.8;stroke-width:0.5;" x="111.223742" xlink:href="#m76fce74849" y="266.071152"/>
     <use style="fill:#dcd6f7;fill-opacity:0.8;stroke:#dcd6f7;stroke-opacity:0.8;stroke-width:0.5;" x="107.99071" xlink:href="#m76fce74849" y="225.722293"/>
     <use style="fill:#dcd6f7;fill-opacity:0.8;stroke:#dcd6f7;stroke-opacity:0.8;stroke-width:0.5;" x="104.757677" xlink:href="#m76fce74849" y="257.652532"/>
     <use style="fill:#dcd6f7;fill-opacity:0.8;stroke:#dcd6f7;stroke-opacity:0.8;stroke-width:0.5;" x="101.524645" xlink:href="#m76fce74849" y="262.547078"/>
     <use style="fill:#dcd6f7;fill-opacity:0.8;stroke:#dcd6f7;stroke-opacity:0.8;stroke-width:0.5;" x="98.291613" xlink:href="#m76fce74849" y="278.085038"/>
     <use style="fill:#dcd6f7;fill-opacity:0.8;stroke:#dcd6f7;stroke-opacity:0.8;stroke-width:0.5;" x="95.058581" xlink:href="#m76fce74849" y="266.284732"/>
     <use style="fill:#dcd6f7;fill-opacity:0.8;stroke:#dcd6f7;stroke-opacity:0.8;stroke-width:0.5;" x="91.825548" xlink:href="#m76fce74849" y="262.63607"/>
     <use style="fill:#dcd6f7;fill-opacity:0.8;stroke:#dcd6f7;stroke-opacity:0.8;stroke-width:0.5;" x="88.592516" xlink:href="#m76fce74849" y="240.672907"/>
     <use style="fill:#dcd6f7;fill-opacity:0.8;stroke:#dcd6f7;stroke-opacity:0.8;stroke-width:0.5;" x="85.359484" xlink:href="#m76fce74849" y="241.100067"/>
     <use style="fill:#dcd6f7;fill-opacity:0.8;stroke:#dcd6f7;stroke-opacity:0.8;stroke-width:0.5;" x="82.126452" xlink:href="#m76fce74849" y="260.357882"/>
     <use style="fill:#dcd6f7;fill-opacity:0.8;stroke:#dcd6f7;stroke-opacity:0.8;stroke-width:0.5;" x="78.893419" xlink:href="#m76fce74849" y="220.685361"/>
     <use style="fill:#dcd6f7;fill-opacity:0.8;stroke:#dcd6f7;stroke-opacity:0.8;stroke-width:0.5;" x="75.660387" xlink:href="#m76fce74849" y="264.504897"/>
     <use style="fill:#dcd6f7;fill-opacity:0.8;stroke:#dcd6f7;stroke-opacity:0.8;stroke-width:0.5;" x="72.427355" xlink:href="#m76fce74849" y="263.686173"/>
     <use style="fill:#dcd6f7;fill-opacity:0.8;stroke:#dcd6f7;stroke-opacity:0.8;stroke-width:0.5;" x="69.194323" xlink:href="#m76fce74849" y="293.017853"/>
     <use style="fill:#dcd6f7;fill-opacity:0.8;stroke:#dcd6f7;stroke-opacity:0.8;stroke-width:0.5;" x="65.96129" xlink:href="#m76fce74849" y="243.360458"/>
     <use style="fill:#dcd6f7;fill-opacity:0.8;stroke:#dcd6f7;stroke-opacity:0.8;stroke-width:0.5;" x="62.728258" xlink:href="#m76fce74849" y="206.357689"/>
     <use style="fill:#dcd6f7;fill-opacity:0.8;stroke:#dcd6f7;stroke-opacity:0.8;stroke-width:0.5;" x="59.495226" xlink:href="#m76fce74849" y="268.117962"/>
     <use style="fill:#dcd6f7;fill-opacity:0.8;stroke:#dcd6f7;stroke-opacity:0.8;stroke-width:0.5;" x="56.262194" xlink:href="#m76fce74849" y="277.853659"/>
     <use style="fill:#dcd6f7;fill-opacity:0.8;stroke:#dcd6f7;stroke-opacity:0.8;stroke-width:0.5;" x="53.029161" xlink:href="#m76fce74849" y="265.288024"/>
     <use style="fill:#dcd6f7;fill-opacity:0.8;stroke:#dcd6f7;stroke-opacity:0.8;stroke-width:0.5;" x="49.796129" xlink:href="#m76fce74849" y="297.325053"/>
     <use style="fill:#dcd6f7;fill-opacity:0.8;stroke:#dcd6f7;stroke-opacity:0.8;stroke-width:0.5;" x="46.563097" xlink:href="#m76fce74849" y="218.923324"/>
     <use style="fill:#dcd6f7;fill-opacity:0.8;stroke:#dcd6f7;stroke-opacity:0.8;stroke-width:0.5;" x="43.330065" xlink:href="#m76fce74849" y="199.256148"/>
     <use style="fill:#dcd6f7;fill-opacity:0.8;stroke:#dcd6f7;stroke-opacity:0.8;stroke-width:0.5;" x="40.097032" xlink:href="#m76fce74849" y="246.831136"/>
    </g>
   </g>
   <g id="line2d_41">
    <path clip-path="url(#p355b192ef4)" d="M 392.497548 308.217643 
L 389.264516 308.555812 
L 386.031484 251.31632 
L 382.798452 235.920748 
L 379.565419 249.3763 
L 376.332387 259.663746 
L 373.099355 273.564257 
L 369.866323 270.752118 
L 366.63329 224.13824 
L 363.400258 250.817966 
L 360.167226 164.780745 
L 356.934194 265.537201 
L 353.701161 253.914879 
L 350.468129 290.543882 
L 347.235097 268.527324 
L 344.002065 293.676392 
L 340.769032 272.229381 
L 337.536 186.601521 
L 334.302968 285.506949 
L 331.069935 240.21015 
L 327.836903 235.422394 
L 324.603871 266.320329 
L 321.370839 251.42311 
L 318.137806 237.842969 
L 314.904774 235.013032 
L 311.671742 212.266741 
L 308.43871 289.778553 
L 305.205677 221.735463 
L 301.972645 285.631538 
L 298.739613 277.551087 
L 295.506581 240.7441 
L 292.273548 257.065187 
L 289.040516 290.045528 
L 285.807484 282.534625 
L 282.574452 278.70798 
L 279.341419 280.487815 
L 276.108387 217.552851 
L 272.875355 155.863772 
L 269.642323 119.43055 
L 266.40929 193.525079 
L 263.176258 267.423826 
L 259.943226 285.684933 
L 256.710194 268.260349 
L 253.477161 249.05593 
L 250.244129 210.736083 
L 247.011097 269.239258 
L 243.778065 277.266314 
L 240.545032 271.90901 
L 237.312 235.457991 
L 234.078968 258.613643 
L 230.845935 236.294513 
L 227.612903 97.876749 
L 224.379871 142.710792 
L 221.146839 268.954484 
L 217.913806 287.678348 
L 214.680774 237.593793 
L 211.447742 264.57609 
L 208.21471 254.893788 
L 204.981677 54.324188 
L 201.748645 258.079693 
L 198.515613 245.336075 
L 195.282581 257.207574 
L 192.049548 255.623521 
L 188.816516 178.734651 
L 185.583484 254.786998 
L 182.350452 250.319612 
L 179.117419 258.471256 
L 175.884387 287.998718 
L 172.651355 283.905098 
L 169.418323 278.316416 
L 166.18529 292.590692 
L 162.952258 282.196456 
L 159.719226 215.256864 
L 156.486194 217.303674 
L 153.253161 277.497692 
L 150.020129 231.987312 
L 146.787097 275.272898 
L 143.554065 223.960257 
L 140.321032 239.88978 
L 137.088 233.482374 
L 133.854968 220.400587 
L 130.621935 257.314364 
L 127.388903 262.600474 
L 124.155871 268.011172 
L 120.922839 278.049441 
L 117.689806 250.461999 
L 114.456774 257.883911 
L 111.223742 266.071152 
L 107.99071 225.722293 
L 104.757677 257.652532 
L 101.524645 262.547078 
L 98.291613 278.085038 
L 95.058581 266.284732 
L 91.825548 262.63607 
L 88.592516 240.672907 
L 85.359484 241.100067 
L 82.126452 260.357882 
L 78.893419 220.685361 
L 75.660387 264.504897 
L 72.427355 263.686173 
L 69.194323 293.017853 
L 65.96129 243.360458 
L 62.728258 206.357689 
L 59.495226 268.117962 
L 56.262194 277.853659 
L 53.029161 265.288024 
L 49.796129 297.325053 
L 46.563097 218.923324 
L 43.330065 199.256148 
L 40.097032 246.831136 
" style="fill:none;opacity:0.3;stroke:#dcd6f7;stroke-width:1.5;"/>
   </g>
   <g id="line2d_42">
    <path clip-path="url(#p355b192ef4)" d="M 392.497548 249.337957 
L 389.264516 249.323519 
L 386.031484 249.309082 
L 382.798452 249.294644 
L 379.565419 249.280206 
L 376.332387 249.265769 
L 373.099355 249.251331 
L 369.866323 249.236893 
L 366.63329 249.222456 
L 363.400258 249.208018 
L 360.167226 249.19358 
L 356.934194 249.179143 
L 353.701161 249.164705 
L 350.468129 249.150267 
L 347.235097 249.135829 
L 344.002065 249.121392 
L 340.769032 249.106954 
L 337.536 249.092516 
L 334.302968 249.078079 
L 331.069935 249.063641 
L 327.836903 249.049203 
L 324.603871 249.034766 
L 321.370839 249.020328 
L 318.137806 249.00589 
L 314.904774 248.991453 
L 311.671742 248.977015 
L 308.43871 248.962577 
L 305.205677 248.94814 
L 301.972645 248.933702 
L 298.739613 248.919264 
L 295.506581 248.904827 
L 292.273548 248.890389 
L 289.040516 248.875951 
L 285.807484 248.861514 
L 282.574452 248.847076 
L 279.341419 248.832638 
L 276.108387 248.818201 
L 272.875355 248.803763 
L 269.642323 248.789325 
L 266.40929 248.774888 
L 263.176258 248.76045 
L 259.943226 248.746012 
L 256.710194 248.731575 
L 253.477161 248.717137 
L 250.244129 248.702699 
L 247.011097 248.688262 
L 243.778065 248.673824 
L 240.545032 248.659386 
L 237.312 248.644949 
L 234.078968 248.630511 
L 230.845935 248.616073 
L 227.612903 248.601636 
L 224.379871 248.587198 
L 221.146839 248.57276 
L 217.913806 248.558323 
L 214.680774 248.543885 
L 211.447742 248.529447 
L 208.21471 248.51501 
L 204.981677 248.500572 
L 201.748645 248.486134 
L 198.515613 248.471696 
L 195.282581 248.457259 
L 192.049548 248.442821 
L 188.816516 248.428383 
L 185.583484 248.413946 
L 182.350452 248.399508 
L 179.117419 248.38507 
L 175.884387 248.370633 
L 172.651355 248.356195 
L 169.418323 248.341757 
L 166.18529 248.32732 
L 162.952258 248.312882 
L 159.719226 248.298444 
L 156.486194 248.284007 
L 153.253161 248.269569 
L 150.020129 248.255131 
L 146.787097 248.240694 
L 143.554065 248.226256 
L 140.321032 248.211818 
L 137.088 248.197381 
L 133.854968 248.182943 
L 130.621935 248.168505 
L 127.388903 248.154068 
L 124.155871 248.13963 
L 120.922839 248.125192 
L 117.689806 248.110755 
L 114.456774 248.096317 
L 111.223742 248.081879 
L 107.99071 248.067442 
L 104.757677 248.053004 
L 101.524645 248.038566 
L 98.291613 248.024129 
L 95.058581 248.009691 
L 91.825548 247.995253 
L 88.592516 247.980816 
L 85.359484 247.966378 
L 82.126452 247.95194 
L 78.893419 247.937503 
L 75.660387 247.923065 
L 72.427355 247.908627 
L 69.194323 247.89419 
L 65.96129 247.879752 
L 62.728258 247.865314 
L 59.495226 247.850877 
L 56.262194 247.836439 
L 53.029161 247.822001 
L 49.796129 247.807563 
L 46.563097 247.793126 
L 43.330065 247.778688 
L 40.097032 247.76425 
" style="fill:none;stroke:#a6b1e1;stroke-linecap:round;stroke-width:2;"/>
   </g>
  </g>
 </g>
 <defs>
  <clipPath id="p355b192ef4">
   <rect height="279.936" width="400.896" x="36.864" y="41.472"/>
  </clipPath>
 </defs>
</svg>
